<?xml version="1.0" encoding="iso-8859-1"?>
<!-- Generator: Adobe Illustrator 19.0.0, SVG Export Plug-In . SVG Version: 6.00 Build 0)  -->
<svg width="20px" fill="#fff" version="1.1" id="Capa_1" xmlns="http://www.w3.org/2000/svg" xmlns:xlink="http://www.w3.org/1999/xlink" x="0px" y="0px"
	 viewBox="0 0 384 384" style="enable-background:new 0 0 384 384;" xml:space="preserve">
<g>
	<g>
		<path d="M16,312v16c0,17.68,14.32,32,32,32h288c17.68,0,32-14.32,32-32v-16H16z"/>
	</g>
</g>
<g>
	<g>
		<path d="M192,24C48.496,24,16,95.104,16,168h352C368,95.104,336,24,192,24z M80,136c-8.832,0-16-7.168-16-16
			c0-8.832,7.168-16,16-16c8.832,0,16,7.168,16,16C96,128.832,88.832,136,80,136z M128,88c-8.832,0-16-7.168-16-16
			c0-8.832,7.168-16,16-16c8.832,0,16,7.168,16,16C144,80.832,136.832,88,128,88z M192,136c-8.832,0-16-7.168-16-16
			c0-8.832,7.168-16,16-16c8.832,0,16,7.168,16,16C208,128.832,200.832,136,192,136z M256,88c-8.832,0-16-7.168-16-16
			c0-8.832,7.168-16,16-16c8.832,0,16,7.168,16,16C272,80.832,264.832,88,256,88z M304,136c-8.832,0-16-7.168-16-16
			c0-8.832,7.168-16,16-16c8.832,0,16,7.168,16,16C320,128.832,312.832,136,304,136z"/>
	</g>
</g>
<g>
	<g>
		<path d="M368,248h-32l-48,32l-48-32H16c-8.832,0-16,7.168-16,16v16c0,8.832,7.168,16,16,16h352c8.832,0,16-7.168,16-16v-16
			C384,255.168,376.832,248,368,248z"/>
	</g>
</g>
<g>
	<g>
		<path d="M346.32,202.336C338.672,209.968,332.656,216,319.936,216c-12.704,0-18.736-6.016-26.368-13.664
			C285.376,194.16,275.216,184,255.872,184c-19.312,0-29.472,10.176-37.648,18.336C210.592,209.968,204.56,216,191.888,216
			s-18.704-6.016-26.336-13.664C157.376,194.16,147.216,184,127.92,184c-19.312,0-29.472,10.176-37.648,18.352
			C82.656,209.984,76.64,216,63.968,216s-18.704-6.016-26.336-13.664C29.472,194.176,19.312,184,0,184v16
			c12.672,0,18.704,6.016,26.336,13.664c8.16,8.16,18.32,18.336,37.632,18.336c19.296,0,29.456-10.176,37.632-18.336
			c7.632-7.632,13.664-13.664,26.336-13.664s18.688,6.016,26.32,13.648c8.176,8.176,18.336,18.352,37.648,18.352
			s29.472-10.176,37.648-18.336c7.632-7.632,13.664-13.664,26.336-13.664c12.72,0,18.752,6.032,26.384,13.664
			c8.192,8.176,18.352,18.336,37.68,18.336c19.344,0,29.52-10.176,37.696-18.336C365.264,206.016,371.296,200,384,200v-16
			C364.672,184,354.496,194.16,346.32,202.336z"/>
	</g>
</g>
<g>
</g>
<g>
</g>
<g>
</g>
<g>
</g>
<g>
</g>
<g>
</g>
<g>
</g>
<g>
</g>
<g>
</g>
<g>
</g>
<g>
</g>
<g>
</g>
<g>
</g>
<g>
</g>
<g>
</g>
</svg>
