<svg fill="#fff" viewBox="0 0 512 512.00019" width="20px" xmlns="http://www.w3.org/2000/svg"><path d="m497 273.132812h-482c-8.285156 0-15 6.714844-15 15 0 123.8125 100.207031 223.867188 223.867188 223.867188h64.265624c123.8125 0 223.867188-100.210938 223.867188-223.867188 0-8.285156-6.714844-15-15-15zm0 0"/><path d="m345.339844 148.628906 21.859375-131.164062c1.359375-8.167969-4.160157-15.898438-12.339844-17.257813-8.160156-1.359375-15.890625 4.148438-17.257813 12.328125l-22.019531 132.152344c3.277344 2.828125 6.457031 5.78125 9.539063 8.828125 6.589844-2.136719 13.339844-3.769531 20.21875-4.886719zm0 0"/><path d="m446.152344 69.90625c3.699218-7.410156.699218-16.417969-6.710938-20.117188-7.410156-3.710937-16.421875-.710937-20.121094 6.699219l-45.179687 90.359375c10.730469.429688 21.171875 2.058594 31.160156 4.761719zm0 0"/><path d="m191.730469 191.199219c-41.46875 0-76.859375 26.039062-90.699219 62.660156h36.320312c11.378907-18.03125 31.480469-30 54.378907-30 22.898437 0 43 11.96875 54.378906 30h36.3125c-13.839844-36.621094-49.222656-62.660156-90.691406-62.660156zm0 0"/><path d="m191.730469 161.195312c58.230469 0 107.300781 39.210938 122.242187 92.664063h33.660156c-2.800781-12.742187-7.132812-24.929687-12.78125-36.339844 10.191407-4.863281 21.578126-7.582031 33.621094-7.582031 30.886719 0 57.597656 17.921875 70.308594 43.921875h35.679688c-14.480469-44.710937-56.519532-77.121094-105.988282-77.121094-18.121094 0-35.671875 4.320313-51.492187 12.589844-29.238281-37.011719-74.519531-60.800781-125.25-60.800781-76.242188 0-140.171875 53.738281-155.902344 125.332031h33.652344c14.949219-53.453125 64.019531-92.664063 122.25-92.664063zm0 0"/></svg>