<svg width="300"  xmlns="http://www.w3.org/2000/svg" viewBox="0 0 340.24 366.11"><defs><style>.cls-1{fill:#f9f9f9;}</style></defs><g id="Camada_2" data-name="Camada 2"><g id="Capa_1" data-name="Capa 1"><circle class="cls-1" cx="213.22" cy="276.81" r="6.43"/><path class="cls-1" d="M340.16,154.14A63.21,63.21,0,0,0,304.4,94.08h0A63,63,0,0,0,274,87.88,86.66,86.66,0,0,0,168.27,25.66a87.74,87.74,0,0,0-18.4,7.09,63,63,0,0,0-28-26.48h0a63.26,63.26,0,0,0-76.18,97.29,62.85,62.85,0,0,0,18.76,15.38L.46,280.64a6.41,6.41,0,0,0,3.18,8.16L163,365.47a6.43,6.43,0,0,0,8.37-2.6l33.06-57.75a6.45,6.45,0,0,0-2.38-8.78l-.42-.22a6.45,6.45,0,0,0-8.35,2.61h0l-17,29.63-34.6-16.65,10.56-18.53a6.42,6.42,0,1,0-11.16-6.36l-11,19.31L70.31,277.37l8.22-20.66A6.43,6.43,0,1,0,66.59,252L58.7,271.78,24.57,255.36l-.25-.1,52.06-131.5a67.72,67.72,0,0,0,20.06,2.43,6.43,6.43,0,0,0-.37-12.86,52.63,52.63,0,0,1-21-3.58c-.85-.36-1.68-.73-2.46-1.1a50.38,50.38,0,1,1,66.32-69,77.61,77.61,0,0,0-10,8.27A6.43,6.43,0,1,0,138,57c3.22-3.22,13.23-10.19,13.45-10.38a73.84,73.84,0,0,1,111,48.71c0,.11,1.84,15.08,1.18,21.49a6.44,6.44,0,0,0,3.61,6.45,6.54,6.54,0,0,0,2.13.6,6.45,6.45,0,0,0,7.05-5.75,82.24,82.24,0,0,0-.2-17.42,50.38,50.38,0,1,1-18.61,96.89c-.15-.06-2-.94-2.81-1.35a48.5,48.5,0,0,1-19.13-16.65,6.43,6.43,0,0,0-10.56,7.34,62.23,62.23,0,0,0,21.07,19.32L222,248.49a6.45,6.45,0,0,0,2.38,8.78,3.17,3.17,0,0,0,.41.21h0a6.45,6.45,0,0,0,8.35-2.61l24.89-43.47a63.27,63.27,0,0,0,82.1-57.27ZM169.89,339.56l-6.71,11.73L14.61,279.8l5-12.56Z"/></g></g></svg>