<?xml version="1.0" encoding="iso-8859-1"?>
<!-- Generator: Adobe Illustrator 19.0.0, SVG Export Plug-In . SVG Version: 6.00 Build 0)  -->
<svg width="20px" fill="#fff" version="1.1" id="Layer_1" xmlns="http://www.w3.org/2000/svg" xmlns:xlink="http://www.w3.org/1999/xlink" x="0px" y="0px"
	 viewBox="0 0 455 455" style="enable-background:new 0 0 455 455;" xml:space="preserve">
<g>
	<path d="M107.706,180.432c-24.545,5.656-47.851,18.04-66.974,37.164c-54.31,54.31-54.31,142.363,0,196.672
		c54.31,54.31,142.363,54.31,196.672,0c19.124-19.124,31.508-42.429,37.164-66.974l28.757-124.755l-70.864-70.864L107.706,180.432z
		 M101.113,372.062L79.9,350.849l28.284-28.284l21.213,21.213L101.113,372.062z M101.113,292.062L79.9,270.849l28.284-28.284
		l21.213,21.213L101.113,292.062z"/>
	<path d="M421.399,69.819l-36.218,0V33.6c0-18.557-15.044-33.6-33.601-33.6c-18.557,0-33.601,15.043-33.601,33.6l0,45.822
		l-57.672,57.672l57.598,57.598l57.671-57.672l45.822,0c18.557,0.001,33.601-15.043,33.601-33.6
		C455,84.863,439.957,69.819,421.399,69.819z"/>
</g>
<g>
</g>
<g>
</g>
<g>
</g>
<g>
</g>
<g>
</g>
<g>
</g>
<g>
</g>
<g>
</g>
<g>
</g>
<g>
</g>
<g>
</g>
<g>
</g>
<g>
</g>
<g>
</g>
<g>
</g>
</svg>
