<svg width="25" xmlns="http://www.w3.org/2000/svg" viewBox="0 0 512 512"><defs><style>.cls-1{fill:#d54f44;}.cls-2{fill:#993434;}.cls-3{fill:#fff;}.cls-4{fill:#e9edf5;}.cls-5{fill:#dce1eb;}.cls-6{fill:#bec3d2;}</style></defs><g id="Camada_2" data-name="Camada 2"><g id="Capa_1" data-name="Capa 1"><circle class="cls-1" cx="256" cy="256" r="256"/><path class="cls-2" d="M512,256a259.5,259.5,0,0,0-1.63-28.86L412.27,129l-25.63,21.38-76.3-76.3L119,235.57,244.54,361.16l-86.91,70.19,80,80q9.12.65,18.39.66C397.39,512,512,397.39,512,256Z"/><path class="cls-3" d="M426.11,172.81a76.14,76.14,0,0,0-99-72.58,76.1,76.1,0,0,0-142.19,0,76.1,76.1,0,1,0-27.28,148.54V431.35H354.37V248.77a76.09,76.09,0,0,0,71.74-76Z"/><path class="cls-4" d="M350,96.71a76.09,76.09,0,0,0-22.92,3.52,76.13,76.13,0,0,0-71.1-49h-.41V431.35h98.78V248.77A76.09,76.09,0,0,0,350,96.71Z"/><path class="cls-5" d="M157.62,376.31H354.37v55H157.62Z"/><path class="cls-6" d="M255.6,376.31h98.77v55H255.6Z"/></g></g></svg>