<svg id="Capa_1" enable-background="new 0 0 512 512" viewBox="0 0 512 512" width="20px" fill="#fff" xmlns="http://www.w3.org/2000/svg"><path d="m116.914 324.993c11.977-2.981 24.36-6.064 48.775-6.064s36.799 3.083 48.775 6.064c10.691 2.662 20.791 5.177 41.527 5.177 20.737 0 30.837-2.515 41.529-5.177 11.977-2.981 24.361-6.064 48.776-6.064 24.417 0 36.802 3.083 48.779 6.064 10.692 2.662 20.792 5.177 41.53 5.177 20.739 0 30.839-2.515 41.532-5.177 8.791-2.188 17.882-4.451 31.997-5.491.999-.074 1.781-.923 1.781-1.933v-37.702c0-.718-.35-1.188-.644-1.457-.402-.369-.875-.533-1.408-.483-6.266.566-11.308 1.441-15.978 2.457-.107.023-.215.046-.321.07-2.793.614-5.46 1.277-8.181 1.955-11.978 2.982-24.362 6.065-48.778 6.065s-36.801-3.083-48.778-6.064c-10.692-2.662-20.793-5.177-41.531-5.177-20.737 0-30.836 2.515-41.528 5.177-11.977 2.981-24.361 6.064-48.777 6.064-24.415 0-36.799-3.083-48.775-6.064-10.691-2.662-20.791-5.177-41.527-5.177s-30.836 2.515-41.527 5.176c-11.977 2.982-24.361 6.065-48.776 6.065s-36.8-3.083-48.776-6.065c-2.729-.68-5.404-1.345-8.206-1.961-.076-.017-.153-.033-.229-.05-4.687-1.022-9.747-1.902-16.04-2.471-.538-.054-1.004.114-1.408.483-.294.269-.644.739-.644 1.457v37.702c0 1.01.782 1.858 1.781 1.933 14.114 1.04 23.204 3.303 31.995 5.492 10.691 2.661 20.791 5.176 41.527 5.176 20.737-.001 30.836-2.515 41.528-5.177z"/><path d="m387.829 210.717c-10.692-2.662-20.793-5.177-41.531-5.177-20.737 0-30.836 2.515-41.528 5.176-11.977 2.982-24.361 6.065-48.777 6.065-24.415 0-36.799-3.083-48.775-6.065-10.691-2.661-20.791-5.176-41.527-5.176s-30.836 2.515-41.527 5.176c-11.977 2.982-24.361 6.065-48.776 6.065-18.896 0-30.584-1.847-40.455-4.064v40.843c1.352.336 2.701.668 4.069.991v.004c9.061 2.145 18.973 3.918 36.386 3.918 20.737 0 30.836-2.515 41.528-5.177 11.977-2.981 24.36-6.064 48.775-6.064s36.799 3.083 48.775 6.065c10.691 2.661 20.791 5.176 41.527 5.176 20.737 0 30.837-2.515 41.529-5.177 11.977-2.981 24.361-6.064 48.776-6.064 24.417 0 36.802 3.083 48.779 6.065 10.692 2.661 20.792 5.176 41.53 5.176 18.706 0 28.756-2.046 38.393-4.401v-.003c.691-.169 1.38-.339 2.069-.51v-40.842c-9.873 2.217-21.562 4.065-40.462 4.065-24.416 0-36.8-3.083-48.778-6.065z"/><path d="m124.162 139.02c-11.977 2.981-24.36 6.065-48.776 6.065-24.414 0-36.798-3.083-48.774-6.065-7.358-1.832-14.309-3.563-24.478-4.481-.538-.052-1.004.114-1.408.483-.294.269-.644.739-.644 1.457v37.702c0 1.01.782 1.858 1.781 1.933 14.114 1.04 23.204 3.303 31.995 5.491 10.691 2.662 20.791 5.177 41.527 5.177 20.737 0 30.836-2.515 41.528-5.177 11.977-2.981 24.36-6.064 48.775-6.064s36.799 3.083 48.775 6.064c10.691 2.662 20.791 5.177 41.527 5.177 20.737 0 30.837-2.515 41.529-5.177 11.977-2.981 24.361-6.064 48.776-6.064 24.417 0 36.802 3.083 48.779 6.064 10.692 2.662 20.792 5.177 41.53 5.177 20.739 0 30.839-2.515 41.532-5.177 8.791-2.188 17.882-4.451 31.997-5.491.999-.074 1.781-.923 1.781-1.933v-37.703c0-.718-.35-1.188-.644-1.456-.404-.37-.885-.537-1.408-.483-10.17.919-17.121 2.649-24.48 4.481-11.978 2.982-24.362 6.065-48.778 6.065s-36.801-3.083-48.778-6.065c-10.692-2.662-20.793-5.177-41.531-5.177-20.736 0-30.836 2.515-41.528 5.177-11.977 2.981-24.361 6.065-48.777 6.065-24.415 0-36.799-3.084-48.775-6.065-10.692-2.662-20.791-5.177-41.527-5.177s-30.834 2.515-41.526 5.177z"/><path d="m0 420.27v24.73c0 24.113 19.617 43.73 43.729 43.73h424.541c24.113 0 43.73-19.617 43.73-43.73v-24.73z"/><path d="m88.564 106.679c3.394 2.705 7.018 4.976 10.778 6.899 6.72-.969 12.07-2.299 17.573-3.669 11.977-2.981 24.36-6.065 48.775-6.065s36.799 3.084 48.775 6.065c6.97 1.735 13.69 3.407 23.266 4.362 4.261-2.061 8.364-4.552 12.177-7.591 32.455-25.866 32.046-80.362 32.046-80.362s-53.03-12.558-85.486 13.308c-15.012 11.964-22.99 30.052-27.232 46.041-4.242-15.989-12.22-34.077-27.232-46.041-32.456-25.866-85.486-13.308-85.486-13.308s-.41 54.495 32.046 80.361z"/><path d="m477.069 356.105c-9.873 2.217-21.562 4.065-40.462 4.065-24.416 0-36.801-3.083-48.778-6.064-10.692-2.662-20.793-5.177-41.531-5.177-20.737 0-30.836 2.515-41.528 5.176-11.977 2.982-24.361 6.065-48.777 6.065-24.415 0-36.799-3.083-48.775-6.065-10.691-2.661-20.791-5.176-41.527-5.176s-30.836 2.515-41.527 5.176c-11.977 2.982-24.361 6.065-48.776 6.065-18.896 0-30.584-1.847-40.455-4.064v34.165h442.139v-34.166z"/></svg>