<svg width="127" height="52" xmlns="http://www.w3.org/2000/svg" viewBox="0 0 160 66.15"><defs><style>.cls-1{fill:#affc41;}.cls-2{font-size:25.45px;letter-spacing:-0.06em;}.cls-2,.cls-4{fill:#fff;font-family:Gilroy-Bold, Gilroy;font-weight:700;}.cls-3{letter-spacing:-0.05em;}.cls-4{font-size:32.27px;letter-spacing:-0.05em;}</style></defs><g id="Camada_2" data-name="Camada 2"><g id="Camada_1-2" data-name="Camada 1"><g id="logo"><g id="logo-2" data-name="logo"><path class="cls-1" d="M51.33,18.1h0S51.3,18.06,51.33,18.1Z"/><path class="cls-1" d="M13.34,27.64h0a6.65,6.65,0,0,0-9.41,0,6.66,6.66,0,0,0-.25,9.16,7.1,7.1,0,0,0-1.78,1.32A6.75,6.75,0,0,0,2,47.53L5.3,50.89,3,53.19a2.32,2.32,0,1,0,3.28,3.29l2.3-2.29,3.32,3.34a6.69,6.69,0,0,0,10.68-1.61,6.66,6.66,0,0,0,9.29-9.54Zm4.78,26.59a2.06,2.06,0,0,1-2.93,0l-9.95-10a2.06,2.06,0,0,1,1.45-3.52h0A2,2,0,0,1,8,41.2L18.39,51.7A2.06,2.06,0,0,1,18.12,54.23Zm10.46-1.72a2,2,0,0,1-2.85,0L7.2,33.76A2,2,0,0,1,10,30.91L28.57,49.65h0A2,2,0,0,1,28.58,52.51Z"/><path class="cls-1" d="M32.44,6.73a2,2,0,0,1,1.43.6L48,21.39a6.71,6.71,0,1,0,9.49-9.5L54.19,8.57l2.29-2.29A2.32,2.32,0,1,0,53.19,3l-2.3,2.3L47.53,2a6.73,6.73,0,0,0-9.42-.06,6.83,6.83,0,0,0-1.33,1.8,6.66,6.66,0,0,0-9,9.75L35.21,21,24,32.18a2.33,2.33,0,0,0,1.64,4,2.35,2.35,0,0,0,1.65-.68L38.49,24.28,46.14,32a6.66,6.66,0,0,0,9.42,0,2.32,2.32,0,1,0-3.29-3.28,2,2,0,0,1-2.84,0L31,10.16a2,2,0,0,1,1.42-3.43Zm8.91-1.51a2.06,2.06,0,0,1,2.9,0l10,9.94a2.06,2.06,0,0,1,0,2.93,2.07,2.07,0,0,1-2.89,0h0l-10-9.94a2.05,2.05,0,0,1,0-2.94Z"/><text class="cls-2" transform="translate(59.9 33.71)">G<tspan class="cls-3" x="18.43" y="0">ym</tspan></text><text class="cls-4" transform="translate(34.45 57.67)">Manager</text></g></g></g></g></svg>