<svg width="120" xmlns="http://www.w3.org/2000/svg" viewBox="0 0 150.51 91.92"><defs><style>.cls-1{fill:#e28086;}.cls-2{fill:#30579d;}.cls-3{fill:#26457d;}.cls-4{fill:#21386b;}.cls-5{fill:#f9f6f6;}.cls-6{fill:#ffe07d;}.cls-7,.cls-8{font-size:34.27px;}.cls-7{font-family:Gilroy-Regular, Gilroy;}.cls-8{font-family:Gilroy-Black, Gilroy;font-weight:800;letter-spacing:-0.05em;}.cls-9{letter-spacing:-0.06em;}.cls-10{letter-spacing:-0.05em;}</style></defs><g id="Camada_2" data-name="Camada 2"><g id="Camada_2-2" data-name="Camada 2"><g id="logo"><path class="cls-1" d="M132.55,68.78l-1.19-6.57L129,60.6l-2.35,1.61-1.19,6.57a.37.37,0,0,0,.19.38,7.08,7.08,0,0,0,6.69,0,.36.36,0,0,0,.19-.38Z"/><path class="cls-2" d="M110.75.1,72.59,17.81a1.13,1.13,0,0,0,0,2.05l38.16,19.45a1.13,1.13,0,0,0,1,0l38.16-19.45a1.13,1.13,0,0,0,0-2.05L111.7.1a1.21,1.21,0,0,0-1,0Z"/><path class="cls-2" d="M135.34,31.38H87.1L83.22,45.9a1.51,1.51,0,0,0,.61,1.64l2,1.35a45.13,45.13,0,0,0,50.81,0l2-1.35a1.51,1.51,0,0,0,.62-1.64Z"/><path class="cls-3" d="M139.23,45.9l-3.89-14.52-4.14-.73-.73,3,2.43,9.09a1.51,1.51,0,0,1-.61,1.64l-2,1.35a45.14,45.14,0,0,1-42.36,4.52,45.16,45.16,0,0,0,48.69-1.36l2-1.35a1.51,1.51,0,0,0,.62-1.64Z"/><path class="cls-4" d="M150.51,18.84v4.79a1.1,1.1,0,0,1-.65,1L111.7,42.36a1.13,1.13,0,0,1-1,0L72.59,24.65a1.11,1.11,0,0,1-.66-1V18.84a1.1,1.1,0,0,0,.66,1l3,1.38,35.2,16.33a1.13,1.13,0,0,0,1,0l35.2-16.33,3-1.38A1.09,1.09,0,0,0,150.51,18.84Z"/><path class="cls-5" d="M129,59a1.19,1.19,0,0,1-1.19-1.19V30.33a.23.23,0,0,0-.11-.2L110.61,19.85a1.19,1.19,0,0,1-.4-1.63,1.17,1.17,0,0,1,1.62-.4L128.94,28.1a2.61,2.61,0,0,1,1.26,2.23v27.5A1.18,1.18,0,0,1,129,59Z"/><path class="cls-6" d="M131.38,62.21h-4.73a.22.22,0,0,1-.22-.22V59.63a2.59,2.59,0,1,1,5.17,0V62a.22.22,0,0,1-.22.22Z"/><text class="cls-7" transform="translate(2 53.43)">ADM</text><text class="cls-8" transform="translate(0 82.43)">S<tspan class="cls-9" x="18.2" y="0">C</tspan><tspan class="cls-10" x="40.68" y="0">HOOL</tspan></text></g></g></g></svg>