<?xml version="1.0" encoding="utf-8"?>
<!-- Generator: Adobe Illustrator 24.2.0, SVG Export Plug-In . SVG Version: 6.00 Build 0)  -->
<svg version="1.1" id="Camada_1" xmlns="http://www.w3.org/2000/svg" xmlns:xlink="http://www.w3.org/1999/xlink" x="0px" y="0px"
	 viewBox="0 0 500 500" style="enable-background:new 0 0 500 500;" xml:space="preserve">
<style type="text/css">
	.st0{fill:#FFA8A7;}
	.st1{fill:#37474F;}
	.st2{fill:#263238;}
	.st3{fill:#455A64;}
	.st4{fill:#FF1A69;}
	.st5{fill:#F28F8F;}
	.st6{opacity:0.15;enable-background:new    ;}
	.st7{opacity:0.2;enable-background:new    ;}
	.st8{opacity:0.5;fill:#FFFFFF;enable-background:new    ;}
	.st9{fill:#B16668;}
	.st10{fill:#F5F5F5;}
	.st11{fill:#E0E0E0;}
	.st12{opacity:0.35;enable-background:new    ;}
	.st13{opacity:0.1;enable-background:new    ;}
</style>
<g id="freepik--Character--inject-3">
	<g id="freepik--Bottom--inject-3">
		<path class="st0" d="M427.6,332.1c0,0,2.8-41.2,2-56.4c-0.6-12-2.3-17-2.6-19.7c0,0-3-28-3.2-51.9c-0.1-11.5-1.2-19.6-7.5-33.3
			l-40.4,9.7c-0.8,6.1-3.6,46.4-4.3,82.2c-0.6,31.4,0.3,58.8,0.3,58.8v1.6c0,1.8-0.4,3.1-1.6,6.1c-1.5,3.8-3.6,7.3-6.3,10.4
			c-0.8,0.9-6.6,5.9-7.4,7c-2.5,2.9,2.7,4.5,6.5,4c4-0.5,10.3-2.1,12-4.5c1.2-1.6,2.1-7.4,3.3-9c4.1-5.6,5.8-8,5.8-9.8
			c0.1-3.2-1-4.5-1.5-6.3c0.3-3.8,8.5-35,8.7-46.1c0.1-5.3-0.3-12.5-0.3-12.5l6.4-36.5c2.5,9.1,6.8,31.8,8.2,40.4
			c1.8,10.6,6.4,37.9,9.1,54.1c1,6.3,1.5,9.4,2,12.4l0.1,1.2c0.1,1.6,1.2,18.5,1.9,22c1.3,7.4,7.9,6.5,8.9,0.5
			c0.9-5.1-0.2-20.8-0.2-22.8L427.6,332.1z"/>
		<path class="st1" d="M427.6,332.1c1.9,0,0.6,7.2,1.1,11.8c0.5,5,2.1,8.6,2.6,12.6c0.6,3.5,0.1,7.2-1.5,10.4c-1.3,3-7.8,7-10.3,2.8
			s-3-9.1-2.7-13.7s0-7.7,0.1-11.4c0.1-3.2-2.3-11.4,0.1-11.8l0.1,1.2c0.9,1.7,9.6,2.1,10.5-0.3L427.6,332.1z"/>
		<path class="st2" d="M384.7,331.3c0.6,2.3,0,8.6,0,8.6s-1,2.2-4.6,3.6l-1.6-8.8L384.7,331.3z"/>
		<polygon points="380.1,343.6 372.2,341 370.4,334 379.2,338.5 		"/>
		<path class="st1" d="M371.9,323.2v-1.6c-1.1,0.5-3.4,9.1-6.6,15c-2.9,5.4-8.6,8.4-10.5,10.7c-2.5,3.1,2.4,7.2,10.1,5.5
			c3.9-0.8,9.7-3.3,11.3-5.9s2.1-7.4,3.4-9.3s4.4-4.1,5-6.3c0.5-2,0.5-4,0-6c-0.6-2-1.1-4.4-1.8-4.2v1.5c-0.5,1.1-2.4,2.3-6.3,2.5
			C374.6,325.2,372.8,324.9,371.9,323.2z"/>
		<path class="st3" d="M375,180c0,0-2.7,29.7-3.5,55.9s-0.1,60.2-0.1,60.2s2.7,1.9,8.7,2.2s8-1.7,8-1.7s3.6-11.9,4.2-20.3
			c0.4-4.5,0.4-9.1,0-13.6l5.3-35.1c0,0,6.8,34.5,7.5,38.7s7.2,41.1,7.2,41.1s2.5,2.3,9.1,2.2c5.8-0.1,7.4-2.2,7.4-2.2
			s1.4-22.6,1.1-32.3c-0.3-8.5-2.2-15.3-2.6-20.8s-0.6-37-1-49s-1.4-22.3-11.7-36.7L375,180z"/>
		<path class="st1" d="M397.7,227.6l-4.4-22c0,0-7.7-2-11.3-6.7c0,0,1,5.2,9,8.6l4.7,21.9L394,252L397.7,227.6z"/>
	</g>
	<g id="freepik--Top--inject-3">
		<path class="st0" d="M318.6,174.5c2.8,0.4,5.8,0.2,8.5-0.6c-1.2-0.6-2.3-1.4-3.4-2.2c-1-0.8-1.2-2.2-0.4-3.2
			c0.4-0.4,1.3,0.5,3.4,1.1c2.7,0.8,4.6,0.9,7.1,2.4c1,0.6,2.1,0.8,3.2,0.6c6.2-1.2,20.8-8,27.5-11.6c1.4-5.6,3.7-13.7,6.6-23.9
			c2.7-9.4,7-13.5,13.9-13.3l-1,20.4c0,0-3.3,14.1-7.3,25.6c-0.7,2-3.6,4.3-8.8,6.3c-6.8,2.5-14.9,4.9-24.9,7.6
			c-4,1.2-8.2,2-12.3,2.4c-10.5,0.9-14.6-2-16-4.1C310.6,176.2,313,173.4,318.6,174.5z"/>
		<path class="st4" d="M402.7,123.6l9.6,0.7c-1.7,8,1.1,16.2,7.2,21.5l-4.3,17.3c0.1,2.1,3.7,9.3,7.1,17.1
			c-6.5,8.6-38.1,11.6-48.4,4c1.6-8.1,2.8-14.3,3.1-17.4l-0.5-11.2c-12.9-10.6,2.7-26.8,8.4-31.9l7.2-0.3L402.7,123.6z"/>
		<path class="st5" d="M443.2,209.7c-1.4-1.1-2.2-2.8-2.1-4.6c0.2-1.6,0.5-3.6,1.2-4.4s4.9-6.5,6.7-3.2c2,3.6,1.6,5.1,1.6,5.1
			L443.2,209.7z"/>
		<path class="st1" d="M430.3,286c-4.5-0.2-8.9-1.5-12.8-3.9l-49.9-28.8c-7.7-4.4-14-15.3-14-24.2v-41.9c0-4.4-3.6-8-8-8
			c-1.4,0-2.8,0.4-4,1.1l-17.5,10.1c-0.9,0.6-2.2,0.3-2.8-0.6c-0.6-0.9-0.3-2.2,0.6-2.8c0,0,0.1-0.1,0.1-0.1l17.5-10.1
			c5.7-3.3,13.1-1.3,16.4,4.4c1,1.8,1.6,3.9,1.6,6v41.9c0,7.5,5.5,17,12,20.8l49.9,28.8c6.4,3.7,12.3,4.3,16.7,1.8s6.8-8,6.8-15.4
			v-53.5c0-9.1,5.8-19.5,13.2-23.8l12.2-7c0.9-0.6,2.2-0.3,2.8,0.6c0.6,0.9,0.3,2.2-0.6,2.8c0,0-0.1,0.1-0.1,0.1l-12.2,7
			c-6.1,3.5-11.2,12.8-11.2,20.3v53.5c0,8.9-3.1,15.5-8.8,18.8C435.8,285.3,433.1,286,430.3,286z"/>
		<g id="freepik--Plug--inject-3">
			<path class="st1" d="M344,193.3v3.3c0,5.2-3.7,11.6-8.2,14.2l-30.3,17.5l-30.8-17.8v-26.7l29.9-13.8c4.8-2.2,12.3-1.9,16.8,0.8
				l14.4,8.3C340.3,181.7,344,188.1,344,193.3z"/>
			<path class="st3" d="M304.6,170c4.8-2.2,12.3-1.9,16.8,0.8l14.4,8.3c4.5,2.6,4.4,6.5-0.4,8.7l-29.9,13.8l-30.8-17.8L304.6,170z"
				/>
			<path class="st6" d="M308.4,195.2c2.4,1.6,3.9,4.2,4.1,7.1v21.9l-7,4l-30.8-17.8v-26.6l7.8-3.6L308.4,195.2z"/>
			<path class="st1" d="M272.1,179.2c0.9-0.4,2-0.3,2.9,0.3l30.3,17.5c2.4,1.6,3.9,4.2,4.1,7.1v26.1c0.1,1-0.3,2-1.2,2.6
				c-0.7,0.4-3.2,1.8-3.9,2.2c-0.9,0.4-2,0.3-2.9-0.3l-30.3-17.5c-2.4-1.6-3.9-4.2-4.1-7.1v-26.1c-0.1-1,0.3-2,1.2-2.6L272.1,179.2z
				"/>
			<path class="st3" d="M301.4,199.2l-30.3-17.5c-2.3-1.3-4.1-0.2-4.1,2.4v26.1c0.2,2.9,1.7,5.5,4.1,7.1l30.3,17.5
				c2.3,1.3,4.1,0.2,4.1-2.4v-26.1C305.3,203.4,303.8,200.8,301.4,199.2z"/>
			<path class="st4" d="M265.5,229.6v4.5c0,1.8,0.6,3.1,1.7,3.7l2.7,1.6c1.3,0.6,2.9,0.5,4.1-0.4l25-14.5v-17.8l-2.7-1.6l-25,14.5
				C267.8,221.8,265.7,225.5,265.5,229.6z M276.8,224c0.1,0.3,0.1,0.7,0.2,1c-0.1,2.7-1.6,5.2-3.9,6.7c-0.3,0.2-0.6,0.3-1,0.4
				c-0.1-0.3-0.1-0.7-0.1-1c0.1-2.7,1.6-5.2,3.9-6.7C276.2,224.2,276.5,224.1,276.8,224z"/>
			<path class="st7" d="M269.8,239.3c0.1,0,0.1,0.1,0.2,0.1l0,0L269.8,239.3l-2.6-1.5c-1-0.6-1.7-1.9-1.7-3.7v-4.5
				c0.1-2,0.6-4,1.7-5.7l2.7,1.6c-1,1.7-1.6,3.7-1.7,5.7v4.5c-0.1,1.2,0.3,2.3,1,3.2C269.4,239,269.6,239.2,269.8,239.3z"/>
			<path class="st8" d="M299,206.7l-25,14.5c-1.7,1.1-3.1,2.5-4.1,4.3l-2.7-1.6c1-1.7,2.4-3.2,4-4.3l25-14.5L299,206.7z"/>
			<path class="st8" d="M270,239.4L270,239.4L270,239.4L270,239.4z"/>
			<path class="st7" d="M270,239.4L270,239.4L270,239.4z"/>
			<path class="st7" d="M277,225c0-0.4,0-0.7-0.1-1.1l0,0c1.6-0.4,2.9,0.6,2.9,2.6c-0.1,2.7-1.6,5.2-3.8,6.7c-1.8,1-3.3,0.5-3.7-1.2
				c0.4-0.1,0.7-0.2,1-0.4C275.4,230.2,276.9,227.7,277,225z"/>
			<path class="st4" d="M242.4,216.2v4.5c0,1.8,0.6,3.1,1.7,3.7l2.7,1.6c1.3,0.6,2.9,0.5,4.1-0.4l25-14.5v-17.8l-2.7-1.6l-25,14.5
				C244.8,208.5,242.6,212.2,242.4,216.2z M253.8,210.6c0.1,0.3,0.1,0.7,0.1,1.1c-0.1,2.7-1.6,5.2-3.9,6.7c-0.3,0.2-0.7,0.3-1,0.4
				c-0.1-0.3-0.1-0.7-0.1-1.1c0.1-2.7,1.6-5.2,3.8-6.7C253.1,210.9,253.4,210.7,253.8,210.6z"/>
			<path class="st7" d="M246.9,226.1L246.9,226.1h-0.1l-2.7-1.6c-1.1-0.6-1.7-1.9-1.7-3.7v-4.5c0-1,0.2-1.9,0.4-2.8
				c0.3-1,0.7-1.9,1.2-2.8l0,0l2.7,1.6l0,0c-0.3,0.4-0.5,0.9-0.7,1.4c-0.6,1.3-1,2.8-1,4.3v4.5c-0.1,1.2,0.3,2.3,1,3.2
				C246.4,225.8,246.6,226,246.9,226.1z"/>
			<path class="st8" d="M275.9,193.4l-25,14.5c-1.7,1.1-3.1,2.5-4.1,4.3l-2.7-1.6c0.9-1.7,2.3-3.2,4-4.3l25-14.5L275.9,193.4z"/>
			<path class="st8" d="M247,226.1L247,226.1L247,226.1L247,226.1z"/>
			<path class="st7" d="M253.9,211.7c0-0.4,0-0.7-0.1-1.1l0,0c1.6-0.5,2.9,0.6,2.9,2.6c-0.1,2.7-1.6,5.2-3.8,6.7
				c-1.8,1-3.3,0.5-3.7-1.2c0.4-0.1,0.7-0.2,1-0.4C252.3,216.9,253.7,214.4,253.9,211.7z"/>
		</g>
		<path class="st0" d="M456.8,193.4c-0.3-3.7-0.9-7.4-1.6-11c-2.3-8.5-5.3-16.8-9.1-24.8c-1.7-3.2-5.4-7.8-8.1-11.8
			c-3.8-5.6-6.4-8.7-9.3-12.4c-6.3-8.3-9-8.8-16.4-9c-1,2.6-3.3,13.4,4.1,22.1l15.8,16.7c0.9,1.4,10.6,18,12.2,24.1
			c0.3,1.1,0.1,2.2-0.4,3.2c-1.3,2.8-2.2,5.7-2.8,8.8c-0.5,2.1-1.7,3.8-1.3,4.1c1.1,0.7,2.5,0.6,3.5-0.3c1.1-1.2,2.1-2.6,2.7-4.1
			c1.2-0.1,2.2,0.8,2.3,2c0,0.1,0,0.1,0,0.2c0.1,1.2-0.5,2.9-0.9,5.1c-0.1,0.4-0.2,0.9-0.4,2.1c-0.2,0.8-0.3,1.6-0.3,2.4
			c2,0.4,4.1-0.9,7.5-4C457.5,203.8,457.7,199.9,456.8,193.4z"/>
		<path class="st2" d="M404.4,118.7c0.1-2,6.6-6.7,9.9-11.7c3-4.6,7.3-17.3-2.8-21.4c0,0,2.2-6.1-1.8-9.7s-9.3-1.4-10.1,0.1
			c-1-3.8-4.5-6.5-8.5-6.6c-3.9-0.3-7.4,2.3-8.3,6.2c-3.3-1.4-7.1-0.3-9.2,2.6c-3.7,5.1,1.2,9.8,1.2,9.8c-1.3,0.9-2,2.4-1.9,4
			c0.3,2.2,2.4,2.7,2.6,3.8c0.1,0.6-0.3,1.1-0.8,1.3c-0.4,0.1-0.7,0-1-0.3c0.2,1.2,1.4,2,2.6,1.7c0,0,0,0,0,0
			c2.3-0.1,4.4-3.3,4.4-3.3L404.4,118.7z"/>
		<path class="st0" d="M383.2,85.1c-3,1.3-5.8,5.9-5.8,18.7c0,10.8,3.4,13.6,5,14.4s5,0.4,8.1-0.1v6.2c0,0-5.8,7.2-0.6,10.7
			c13.3-2.3,14.3-11.1,14.3-11.1l0.2-13.6c0,0,1.8,1.9,5-0.9c2.7-2.3,3.6-6.3,1.6-8.5s-4.6-2.4-6.9,0.1c0,0-4.2,0.3-10.6-3.7
			S385,89.1,383.2,85.1z"/>
		<path class="st9" d="M390.9,110.5c0.1,0.9-0.6,1.6-1.5,1.7c0,0,0,0,0,0c-0.9,0.1-1.7-0.6-1.7-1.5c-0.1-0.9,0.6-1.7,1.5-1.7
			S390.8,109.5,390.9,110.5C390.9,110.4,390.9,110.5,390.9,110.5z"/>
		<path class="st2" d="M382.7,100c0,0.8-0.7,1.4-1.5,1.4c-0.8,0-1.4-0.7-1.4-1.5c0-0.8,0.6-1.4,1.4-1.4
			C382,98.5,382.7,99.2,382.7,100C382.7,100,382.7,100,382.7,100z"/>
		<path class="st2" d="M393.8,100.7c0.1,0.9-0.6,1.6-1.5,1.7c0,0,0,0,0,0c-0.9,0-1.6-0.7-1.6-1.6c0-0.9,0.6-1.6,1.5-1.6
			C393,99.1,393.7,99.8,393.8,100.7L393.8,100.7z"/>
		<path class="st2" d="M381.7,94.3l-3,1.8c0.4,0.8,1.5,1.1,2.3,0.7c0,0,0.1,0,0.1-0.1C381.9,96.2,382.1,95.1,381.7,94.3z"/>
		<path class="st2" d="M404.4,99.2v6c-1.6,0-2.9-1.2-2.9-2.7c0-0.1,0-0.1,0-0.2C401.5,100.6,402.7,99.3,404.4,99.2z"/>
		<polygon class="st5" points="386.6,98.6 386,107.2 381.5,106.1 		"/>
		<path class="st5" d="M390.6,118c3.4-0.4,10.3-2.3,11.4-5.1c-0.4,1.4-1.3,2.7-2.5,3.6c-2.1,1.8-8.9,3.7-8.9,3.7L390.6,118z"/>
	</g>
	<g id="freepik--question-marks--inject-3">
		<path class="st4" d="M430.9,57.6c0.9,0.6,1.7,1.4,2.4,2.2c0.7,0.8,1.2,1.7,1.6,2.7c0.3,0.9,0.5,2,0.4,3c-0.1,1.1-0.5,2.1-1.1,3
			c-0.5,0.7-1,1.3-1.7,1.8c-0.6,0.4-1.3,0.7-2,0.9c-0.7,0.2-1.4,0.4-2.1,0.4l-2,0.2c-0.6,0.1-1.2,0.2-1.8,0.4
			c-0.5,0.1-1,0.4-1.4,0.8c-0.2,0.2-0.4,0.3-0.6,0.4c-0.2,0.1-0.5,0-0.7-0.1l-2.3-1.5c-0.2-0.1-0.4-0.4-0.4-0.6
			c-0.1-0.2,0-0.5,0.2-0.7c0.5-0.7,1.1-1.3,1.8-1.7c0.7-0.4,1.3-0.7,2.1-0.9c0.7-0.2,1.4-0.3,2.1-0.4c0.7-0.1,1.4-0.1,2-0.2
			c0.6-0.1,1.1-0.2,1.7-0.4c0.5-0.2,0.9-0.5,1.1-0.9c0.5-0.7,0.6-1.7,0.3-2.5c-0.4-1-1.1-1.8-2-2.4c-1.6-1.1-3.8-1.1-5.4,0.1
			c-0.2,0.1-0.4,0.2-0.6,0.3c-0.2,0-0.5-0.1-0.7-0.2l-2.4-1.6c-0.2-0.1-0.3-0.3-0.3-0.5c0-0.2,0-0.4,0.1-0.6
			c0.5-0.7,1.2-1.3,2.1-1.7c0.9-0.5,1.9-0.8,2.9-0.9c1.1-0.1,2.3-0.1,3.4,0.1C428.7,56.5,429.9,57,430.9,57.6z M420.9,75.3
			c0.2,0.1,0.4,0.4,0.4,0.6c0,0.2,0,0.5-0.2,0.7l-1.7,2.6c-0.1,0.2-0.4,0.4-0.6,0.4c-0.2,0-0.5,0-0.7-0.2l-2.6-1.7
			c-0.2-0.1-0.4-0.4-0.4-0.6c0-0.2,0-0.5,0.2-0.7l1.7-2.6c0.1-0.2,0.4-0.4,0.6-0.4c0.2,0,0.5,0,0.7,0.2L420.9,75.3z"/>
		<path class="st4" d="M429.4,96c0.2,0.3,0.2,0.7,0,0.9c0,0,0,0,0,0l-1.5,1.4c-0.1,0.1-0.3,0.2-0.5,0.2c-0.2,0-0.3-0.1-0.4-0.2
			l-1.4-1.5c-0.1-0.1-0.2-0.3-0.2-0.5c0-0.2,0.1-0.3,0.2-0.4l1.5-1.4c0.3-0.2,0.7-0.2,0.9,0L429.4,96z M438.4,86.1
			c0.5,0.5,0.9,1.1,1.3,1.8c0.3,0.6,0.5,1.3,0.6,2c0.1,0.7,0,1.3-0.2,2c-0.4,1.2-1.3,2.2-2.5,2.7c-0.5,0.2-0.9,0.3-1.4,0.3
			c-0.5,0-1,0-1.4,0l-1.3-0.1c-0.4,0-0.8,0-1.2,0c-0.4,0-0.7,0.1-1,0.4c-0.1,0.1-0.3,0.1-0.5,0.2c-0.2,0-0.3-0.1-0.4-0.2l-1.2-1.3
			c-0.1-0.1-0.2-0.3-0.2-0.5c0-0.2,0.1-0.3,0.2-0.4c0.4-0.4,0.9-0.7,1.4-0.8c0.5-0.2,1-0.2,1.5-0.3c0.5,0,1,0,1.4,0.1
			c0.5,0.1,0.9,0.1,1.3,0.2c0.4,0,0.8,0,1.1,0c0.3,0,0.6-0.2,0.9-0.4c0.4-0.4,0.6-1,0.5-1.6c-0.1-0.7-0.4-1.4-1-1.9
			c-0.9-1-2.3-1.3-3.5-0.7c-0.1,0.1-0.3,0.1-0.5,0.1c-0.2,0-0.3-0.1-0.4-0.2l-1.3-1.4c-0.1-0.1-0.2-0.2-0.2-0.4
			c0-0.1,0.1-0.3,0.2-0.4c0.5-0.4,1-0.7,1.6-0.8c0.7-0.2,1.3-0.2,2-0.1c0.7,0.1,1.5,0.3,2.2,0.6C437.2,85,437.9,85.5,438.4,86.1
			L438.4,86.1z"/>
	</g>
</g>
<g id="freepik--Text--inject-3">
	<g>
		<path class="st10" d="M166,48c1.7-0.1,3.4,0.4,4.8,1.5c1.2,1.1,1.8,2.6,1.7,4.2c0.1,1.6-0.5,3.2-1.7,4.3c-1.4,1.1-3.1,1.6-4.8,1.5
			h-4v5.6c0,0.2-0.1,0.4-0.2,0.5c-0.1,0.1-0.3,0.2-0.5,0.2h-2.1c-0.4,0-0.7-0.3-0.7-0.7c0,0,0,0,0,0V48.7c0-0.4,0.3-0.7,0.7-0.7
			c0,0,0,0,0,0L166,48z M162,56.3h3.9c0.8,0,1.6-0.2,2.3-0.6c0.6-0.5,0.9-1.2,0.9-2c0.1-0.8-0.2-1.5-0.9-2c-0.7-0.4-1.5-0.6-2.3-0.5
			H162V56.3z"/>
		<path class="st10" d="M174.8,55.8c0.1-0.4,0.2-0.8,0.5-1.1c0.3-0.4,0.6-0.8,1-1.1c0.5-0.4,1.1-0.7,1.6-0.9
			c0.7-0.2,1.5-0.4,2.3-0.3c0.8,0,1.6,0.1,2.3,0.3c0.7,0.2,1.3,0.5,1.8,1c0.5,0.5,0.9,1,1.1,1.7c0.3,0.7,0.4,1.5,0.4,2.3v7.4
			c0,0.2-0.1,0.4-0.2,0.5c-0.1,0.1-0.3,0.2-0.5,0.2h-1.9c-0.4,0-0.7-0.3-0.7-0.7c0,0,0,0,0,0v-0.8c-0.4,0.5-0.9,1-1.5,1.3
			c-0.8,0.4-1.7,0.6-2.6,0.5c-0.7,0-1.4-0.1-2-0.3c-0.5-0.2-1-0.4-1.4-0.8c-0.4-0.4-0.7-0.8-0.9-1.3c-0.2-0.5-0.3-1-0.3-1.6
			c-0.1-1.1,0.4-2.1,1.2-2.7c1-0.7,2.2-1.2,3.4-1.3l4.1-0.7c0.1-0.6-0.2-1.1-0.7-1.5c-0.5-0.3-1.1-0.4-1.7-0.4c-0.3,0-0.7,0-1,0.2
			c-0.2,0.1-0.5,0.3-0.7,0.5c-0.1,0.1-0.3,0.2-0.4,0.3c-0.1,0.1-0.3,0.1-0.4,0.1h-2.4c-0.2,0-0.3-0.1-0.4-0.2
			C174.8,56.1,174.7,56,174.8,55.8z M179,63c0.5,0,1-0.1,1.5-0.2c0.4-0.1,0.8-0.4,1.1-0.7c0.3-0.3,0.5-0.6,0.7-0.9
			c0.1-0.3,0.2-0.7,0.2-1v-0.3l-3.4,0.6c-0.5,0.1-1,0.2-1.5,0.5c-0.3,0.2-0.5,0.6-0.5,0.9c0,0.4,0.2,0.7,0.6,0.8
			C178.1,62.9,178.6,63,179,63z"/>
		<path class="st10" d="M195,68.3c0.4,0,0.7-0.1,1.1-0.2c0.4-0.1,0.7-0.3,1-0.5c0.3-0.2,0.6-0.6,0.8-0.9c0.2-0.4,0.3-0.8,0.3-1.3
			v-0.9c-0.2,0.2-0.3,0.3-0.5,0.5c-0.2,0.2-0.5,0.4-0.8,0.5c-0.3,0.2-0.7,0.3-1.1,0.4c-0.5,0.1-0.9,0.2-1.4,0.2
			c-0.8,0-1.6-0.2-2.3-0.5c-0.7-0.3-1.3-0.8-1.8-1.3c-0.5-0.6-0.9-1.2-1.1-1.9c-0.3-0.7-0.4-1.5-0.5-2.2c0-0.2,0-0.5,0-0.9
			s0-0.6,0-0.9c0-0.8,0.2-1.5,0.5-2.2c0.3-0.7,0.7-1.3,1.1-1.9c0.5-0.6,1.1-1,1.7-1.3c0.7-0.3,1.5-0.5,2.3-0.5c0.5,0,0.9,0,1.4,0.2
			c0.4,0.1,0.7,0.2,1.1,0.4c0.3,0.1,0.6,0.3,0.8,0.5c0.2,0.1,0.4,0.3,0.5,0.5v-0.6c0-0.4,0.3-0.7,0.7-0.7h1.9c0.4,0,0.7,0.3,0.7,0.7
			v11.9c0.1,1.7-0.5,3.4-1.7,4.6c-1.3,1.1-3,1.7-4.7,1.6c-0.8,0-1.6-0.1-2.4-0.3c-0.7-0.2-1.3-0.5-1.9-0.9c-0.5-0.3-1-0.8-1.3-1.3
			c-0.3-0.4-0.5-1-0.5-1.5c0-0.2,0.1-0.4,0.2-0.5c0.1-0.1,0.3-0.2,0.5-0.2h1.7c0.2,0,0.4,0.1,0.6,0.2c0.2,0.2,0.3,0.3,0.4,0.4
			c0.2,0.3,0.5,0.5,0.9,0.7C193.8,68.3,194.4,68.3,195,68.3z M192,58.5c-0.1,0.5-0.1,0.9,0,1.4c0,0.9,0.4,1.7,1,2.4
			c0.6,0.5,1.3,0.7,2.1,0.7c0.8,0,1.5-0.2,2.1-0.7c0.6-0.5,1-1.3,1-2.1c0-0.3,0.1-0.7,0.1-1c0-0.3,0-0.7-0.1-1
			c-0.1-1.6-1.4-2.9-3.1-2.8c-0.8,0-1.5,0.2-2.1,0.7C192.4,56.7,192,57.6,192,58.5z"/>
		<path class="st10" d="M204.3,59.2c0-0.9,0.1-1.8,0.4-2.7c0.3-0.8,0.7-1.5,1.3-2.2c0.6-0.6,1.2-1.1,2-1.5c1.6-0.7,3.5-0.7,5.1,0
			c0.8,0.3,1.4,0.8,2,1.4c0.5,0.6,1,1.3,1.3,2.1c0.3,0.8,0.4,1.6,0.4,2.5v1.1c0,0.2-0.1,0.4-0.2,0.5c-0.1,0.1-0.3,0.2-0.5,0.2h-8.5
			c0,0.3,0.1,0.7,0.2,1c0.2,0.3,0.4,0.6,0.6,0.8c0.3,0.2,0.6,0.4,0.9,0.5c0.4,0.1,0.7,0.2,1.1,0.2c0.4,0,0.9,0,1.3-0.2
			c0.3-0.1,0.6-0.2,0.8-0.4c0.1-0.1,0.3-0.2,0.5-0.3c0.2-0.1,0.3-0.1,0.5-0.1h2c0.2,0,0.4,0.1,0.5,0.2c0.1,0.1,0.2,0.3,0.2,0.5
			c-0.1,0.3-0.2,0.6-0.4,0.9c-0.3,0.4-0.7,0.8-1.1,1.1c-0.6,0.4-1.2,0.7-1.8,0.9c-0.8,0.3-1.6,0.4-2.5,0.4c-0.9,0-1.8-0.2-2.6-0.5
			c-0.8-0.3-1.4-0.8-2-1.4c-0.6-0.6-1-1.3-1.3-2.1C204.4,61.1,204.3,60.1,204.3,59.2z M210.5,55.4c-0.4,0-0.9,0.1-1.3,0.2
			c-0.3,0.1-0.6,0.3-0.9,0.6c-0.2,0.2-0.4,0.5-0.6,0.8c-0.1,0.3-0.2,0.5-0.2,0.8h5.7c0-0.3-0.1-0.5-0.2-0.8
			c-0.1-0.3-0.3-0.5-0.5-0.8c-0.2-0.2-0.5-0.4-0.8-0.6C211.4,55.4,210.9,55.4,210.5,55.4z"/>
		<path class="st10" d="M237.6,65.1c0,0.4-0.3,0.7-0.7,0.7c0,0,0,0,0,0h-2c-0.2,0-0.4-0.1-0.5-0.2c-0.1-0.1-0.2-0.3-0.2-0.5v-6.4
			c0-0.9-0.2-1.7-0.7-2.4c-0.5-0.6-1.3-1-2.2-0.9c-0.8,0-1.6,0.3-2.1,0.9c-0.5,0.7-0.8,1.6-0.8,2.4v6.4c0,0.2-0.1,0.4-0.2,0.5
			c-0.1,0.1-0.3,0.2-0.5,0.2H226c-0.2,0-0.4-0.1-0.5-0.2c-0.1-0.1-0.2-0.3-0.2-0.5V53.3c0-0.2,0.1-0.4,0.2-0.5
			c0.1-0.1,0.3-0.2,0.5-0.2h1.9c0.2,0,0.4,0.1,0.5,0.2c0.1,0.1,0.2,0.3,0.2,0.5v0.6c0.5-0.4,1-0.8,1.6-1.1c0.7-0.3,1.4-0.4,2.1-0.4
			c0.9,0,1.8,0.1,2.6,0.5c0.7,0.3,1.2,0.7,1.7,1.3c0.4,0.6,0.7,1.2,0.9,1.9c0.2,0.7,0.3,1.5,0.3,2.3L237.6,65.1z"/>
		<path class="st10" d="M246.8,52.3c0.9,0,1.7,0.1,2.5,0.4c0.7,0.3,1.4,0.7,1.9,1.2c0.5,0.5,1,1.1,1.3,1.8c0.3,0.7,0.5,1.4,0.6,2.2
			c0,0.2,0,0.4,0,0.6V60c0,0.2,0,0.4,0,0.6c-0.1,0.8-0.3,1.5-0.6,2.2c-0.3,0.7-0.8,1.3-1.3,1.8c-0.6,0.5-1.2,0.9-1.9,1.2
			c-1.6,0.6-3.4,0.6-5,0c-0.7-0.3-1.4-0.7-2-1.2c-0.5-0.5-1-1.1-1.3-1.8c-0.3-0.7-0.5-1.4-0.6-2.2c0-0.2,0-0.3,0-0.6
			c0-0.2,0-0.5,0-0.7s0-0.5,0-0.7s0-0.4,0-0.6c0.1-0.8,0.2-1.5,0.6-2.2c0.3-0.7,0.8-1.3,1.3-1.8c0.6-0.5,1.3-0.9,2-1.2
			C245.1,52.5,246,52.3,246.8,52.3z M249.9,58c0-0.5-0.2-0.9-0.4-1.3c-0.2-0.3-0.4-0.6-0.7-0.8c-0.3-0.2-0.6-0.3-0.9-0.4
			c-0.3-0.1-0.7-0.1-1-0.1c-0.3,0-0.7,0-1,0.1c-0.3,0.1-0.7,0.2-0.9,0.4c-0.3,0.2-0.5,0.5-0.7,0.8c-0.2,0.4-0.3,0.8-0.4,1.3
			c0,0.1,0,0.3,0,0.5s0,0.4,0,0.6s0,0.4,0,0.6c0,0.2,0,0.3,0,0.5c0,0.5,0.2,0.9,0.4,1.3c0.2,0.3,0.4,0.6,0.7,0.8
			c0.3,0.2,0.6,0.3,0.9,0.4c0.3,0.1,0.7,0.1,1,0.1c0.3,0,0.7,0,1-0.1c0.3-0.1,0.7-0.2,0.9-0.4c0.3-0.2,0.5-0.5,0.7-0.8
			c0.2-0.4,0.3-0.8,0.4-1.3c0-0.1,0-0.3,0-0.5v-1.3C249.9,58.3,249.9,58.2,249.9,58L249.9,58z"/>
		<path class="st10" d="M260.4,61c0,0.5,0.1,0.9,0.4,1.3c0.4,0.4,1,0.5,1.6,0.5h1.5c0.2,0,0.4,0.1,0.5,0.2c0.1,0.1,0.2,0.3,0.2,0.5
			v1.7c0,0.4-0.3,0.7-0.7,0.7c0,0,0,0,0,0H262c-1.3,0.1-2.6-0.3-3.7-1.2c-0.9-0.9-1.4-2.2-1.3-3.5v-5.4h-1.7c-0.4,0-0.7-0.3-0.7-0.7
			v-1.7c0-0.4,0.3-0.7,0.7-0.7h1.7v-4.1c0-0.4,0.3-0.7,0.7-0.7h1.9c0.2,0,0.4,0.1,0.5,0.2c0.1,0.1,0.2,0.3,0.2,0.5v4.1h3.3
			c0.4,0,0.7,0.3,0.7,0.7V55c0,0.4-0.3,0.7-0.7,0.7h-3.3L260.4,61z"/>
		<path class="st10" d="M277,52.6h3.5c0.2,0,0.4,0.1,0.5,0.2c0.1,0.1,0.2,0.3,0.2,0.5V55c0,0.2-0.1,0.4-0.2,0.5
			c-0.1,0.1-0.3,0.2-0.5,0.2H277v9.5c0,0.4-0.3,0.7-0.7,0.7c0,0,0,0,0,0h-1.9c-0.2,0-0.4-0.1-0.5-0.2c-0.1-0.1-0.2-0.3-0.2-0.5v-9.5
			H272c-0.2,0-0.4-0.1-0.5-0.2c-0.1-0.1-0.2-0.3-0.2-0.5v-1.7c0-0.2,0.1-0.4,0.2-0.5c0.1-0.1,0.3-0.2,0.5-0.2h1.7v-1.1
			c0-0.7,0.1-1.4,0.4-2.1c0.2-0.5,0.6-1,1-1.4c0.5-0.4,1-0.6,1.6-0.8c0.7-0.2,1.4-0.2,2.1-0.2h2.1c0.2,0,0.4,0.1,0.5,0.2
			c0.1,0.1,0.2,0.3,0.2,0.5v1.7c0,0.4-0.3,0.7-0.7,0.7c0,0,0,0,0,0H279c-0.5,0-1,0.1-1.5,0.3c-0.4,0.3-0.6,0.8-0.5,1.3L277,52.6z"/>
		<path class="st10" d="M289,52.3c0.9,0,1.7,0.1,2.5,0.4c0.7,0.3,1.4,0.7,1.9,1.2c0.5,0.5,1,1.1,1.3,1.8c0.3,0.7,0.5,1.4,0.6,2.2
			c0,0.2,0,0.4,0,0.6V60c0,0.2,0,0.4,0,0.6c-0.1,0.8-0.3,1.5-0.6,2.2c-0.3,0.7-0.8,1.3-1.3,1.8c-0.6,0.5-1.2,0.9-2,1.2
			c-0.8,0.3-1.6,0.4-2.5,0.4c-0.9,0-1.7-0.1-2.5-0.4c-0.7-0.3-1.4-0.7-2-1.2c-0.5-0.5-1-1.1-1.3-1.8c-0.3-0.7-0.5-1.4-0.6-2.2
			c0-0.2,0-0.3,0-0.6s0-0.5,0-0.7s0-0.5,0-0.7s0-0.4,0-0.6c0-0.8,0.2-1.5,0.6-2.2c0.3-0.6,0.8-1.2,1.3-1.7c0.6-0.5,1.2-0.9,2-1.2
			C287.2,52.5,288.1,52.3,289,52.3z M292,58c0-0.5-0.2-0.9-0.4-1.3c-0.2-0.3-0.4-0.6-0.7-0.8c-0.3-0.2-0.6-0.3-0.9-0.4
			c-0.3-0.1-0.7-0.1-1-0.1c-0.3,0-0.7,0-1,0.1c-0.3,0.1-0.7,0.2-0.9,0.4c-0.3,0.2-0.5,0.5-0.7,0.8c-0.2,0.4-0.3,0.8-0.4,1.3
			c0,0.1,0,0.3,0,0.5s0,0.4,0,0.6s0,0.4,0,0.6c0,0.2,0,0.3,0,0.5c0,0.5,0.2,0.9,0.4,1.3c0.2,0.3,0.4,0.6,0.7,0.8
			c0.3,0.2,0.6,0.3,0.9,0.4c0.3,0.1,0.7,0.1,1,0.1c0.3,0,0.7,0,1-0.1c0.3-0.1,0.6-0.2,0.9-0.4c0.3-0.2,0.5-0.5,0.7-0.8
			c0.2-0.4,0.3-0.8,0.4-1.3c0-0.2,0-0.3,0-0.5v-1.2C292,58.4,292,58.2,292,58z"/>
		<path class="st10" d="M298.1,53.3c0-0.4,0.3-0.7,0.7-0.7h1.9c0.4,0,0.7,0.3,0.7,0.7v6.4c0,0.9,0.2,1.7,0.6,2.4
			c0.5,0.6,1.3,1,2.1,0.9c0.8,0,1.6-0.3,2-0.9c0.5-0.7,0.8-1.6,0.7-2.4v-6.4c0-0.4,0.3-0.7,0.7-0.7h1.9c0.2,0,0.4,0.1,0.5,0.2
			c0.1,0.1,0.2,0.3,0.2,0.5v11.8c0,0.4-0.3,0.7-0.7,0.7c0,0,0,0,0,0h-1.9c-0.2,0-0.4-0.1-0.5-0.2c-0.1-0.1-0.2-0.3-0.2-0.5v-0.6
			c-0.4,0.4-0.9,0.7-1.4,1c-0.6,0.3-1.4,0.5-2.1,0.5c-0.9,0-1.8-0.1-2.6-0.5c-0.6-0.3-1.2-0.7-1.6-1.3c-0.4-0.6-0.7-1.2-0.9-1.9
			c-0.2-0.7-0.3-1.5-0.2-2.3V53.3z"/>
		<path class="st10" d="M326.1,65.1c0,0.4-0.3,0.7-0.7,0.7c0,0,0,0,0,0h-1.9c-0.2,0-0.4-0.1-0.5-0.2c-0.1-0.1-0.2-0.3-0.2-0.5v-6.4
			c0-0.9-0.2-1.7-0.7-2.4c-0.5-0.6-1.3-1-2.2-0.9c-0.8,0-1.6,0.3-2.1,0.9c-0.5,0.7-0.8,1.6-0.8,2.4v6.4c0,0.2-0.1,0.4-0.2,0.5
			c-0.1,0.1-0.3,0.2-0.5,0.2h-1.9c-0.2,0-0.4-0.1-0.5-0.2c-0.1-0.1-0.2-0.3-0.2-0.5V53.3c0-0.2,0.1-0.4,0.2-0.5
			c0.1-0.1,0.3-0.2,0.5-0.2h1.9c0.2,0,0.4,0.1,0.5,0.2c0.1,0.1,0.2,0.3,0.2,0.5v0.6c0.5-0.4,1-0.8,1.5-1.1c0.7-0.3,1.4-0.4,2.1-0.4
			c0.9,0,1.8,0.1,2.6,0.5c0.7,0.3,1.2,0.7,1.7,1.3c0.4,0.6,0.7,1.2,0.9,1.9c0.2,0.7,0.3,1.5,0.3,2.3L326.1,65.1z"/>
		<path class="st10" d="M334.5,52.3c0.5,0,0.9,0,1.4,0.2c0.4,0.1,0.7,0.2,1.1,0.4c0.3,0.1,0.6,0.3,0.8,0.5c0.2,0.1,0.4,0.3,0.5,0.5
			v-5.4c0-0.4,0.3-0.7,0.7-0.7c0,0,0,0,0,0h1.9c0.2,0,0.4,0.1,0.5,0.2c0.1,0.1,0.2,0.3,0.2,0.5v16.6c0,0.2-0.1,0.4-0.2,0.5
			c-0.1,0.1-0.3,0.2-0.5,0.2h-1.9c-0.4,0-0.7-0.3-0.7-0.7c0,0,0,0,0,0v-0.6c-0.2,0.2-0.3,0.3-0.5,0.5c-0.2,0.2-0.5,0.4-0.8,0.5
			c-0.3,0.2-0.7,0.3-1.1,0.4c-0.5,0.1-0.9,0.2-1.4,0.2c-0.8,0-1.6-0.2-2.3-0.5c-0.7-0.3-1.3-0.8-1.8-1.3c-0.5-0.6-0.9-1.2-1.1-1.9
			c-0.3-0.7-0.4-1.5-0.5-2.2c0-0.2,0-0.5,0-0.9s0-0.6,0-0.9c0-0.8,0.2-1.5,0.5-2.2c0.3-0.7,0.7-1.3,1.1-1.9c0.5-0.6,1.1-1,1.8-1.3
			C333,52.5,333.8,52.3,334.5,52.3z M332.2,58.5c0,0.5,0,0.9,0,1.4c0,0.9,0.4,1.7,1,2.4c0.6,0.5,1.3,0.7,2.1,0.7
			c0.8,0,1.5-0.2,2.1-0.7c0.6-0.5,1-1.3,1-2.1c0-0.3,0.1-0.7,0-1c0-0.3,0-0.7,0-1c-0.1-1.6-1.4-2.9-3.1-2.8c-0.8,0-1.5,0.2-2.1,0.7
			C332.5,56.7,332.2,57.6,332.2,58.5L332.2,58.5z"/>
	</g>
	<g>
		<path class="st4" d="M196.4,90.8c0.2,0,0.3,0.1,0.4,0.2c0.1,0.1,0.2,0.3,0.2,0.4v2.5c0,0.2-0.1,0.3-0.2,0.4
			c-0.1,0.1-0.3,0.2-0.4,0.2h-11c-0.2,0-0.3-0.1-0.4-0.2c-0.1-0.1-0.2-0.3-0.2-0.4v-15c0-0.2,0.1-0.3,0.2-0.4
			c0.1-0.1,0.3-0.2,0.4-0.2h10.8c0.3,0,0.6,0.3,0.6,0.6v2.5c0,0.2-0.1,0.3-0.2,0.4c-0.1,0.1-0.3,0.2-0.4,0.2h-7.2v2.5h6.6
			c0.2,0,0.3,0.1,0.4,0.2c0.1,0.1,0.2,0.3,0.2,0.4v2.5c0,0.2-0.1,0.3-0.2,0.4c-0.1,0.1-0.3,0.2-0.4,0.2h-6.6v2.6L196.4,90.8z"/>
		<path class="st4" d="M206.7,78.2c0.9,0,1.8,0.1,2.7,0.3c0.7,0.2,1.4,0.5,2.1,1c0.6,0.4,1,1,1.3,1.7c0.3,0.7,0.5,1.5,0.4,2.3
			c0,1-0.2,2-0.7,2.9c-0.5,0.8-1.2,1.4-2,1.8l2.9,5.5c0,0.1,0.1,0.2,0.1,0.3c0,0.3-0.2,0.5-0.5,0.5h-3.2c-0.2,0-0.5-0.1-0.7-0.2
			c-0.1-0.1-0.2-0.3-0.3-0.4l-2.6-5H204v5c0,0.2-0.1,0.3-0.2,0.4c-0.1,0.1-0.3,0.2-0.4,0.2h-3c-0.2,0-0.3-0.1-0.4-0.2
			c-0.1-0.1-0.2-0.3-0.2-0.4v-15c0-0.2,0.1-0.3,0.2-0.4c0.1-0.1,0.3-0.2,0.4-0.2L206.7,78.2z M204,85.2h2.6c0.6,0,1.1-0.1,1.6-0.4
			c0.4-0.3,0.7-0.8,0.6-1.3c0.1-0.5-0.2-1-0.6-1.3c-0.5-0.3-1.1-0.4-1.6-0.4H204L204,85.2z"/>
		<path class="st4" d="M222.8,78.2c0.9,0,1.8,0.1,2.7,0.3c0.7,0.2,1.4,0.5,2.1,1c0.6,0.4,1,1,1.3,1.7c0.3,0.7,0.5,1.5,0.4,2.3
			c0,1-0.2,2-0.7,2.9c-0.5,0.8-1.2,1.4-2,1.8l2.9,5.5c0,0.1,0.1,0.2,0.1,0.3c0,0.3-0.2,0.5-0.5,0.5h-3.2c-0.2,0-0.5-0.1-0.7-0.2
			c-0.1-0.1-0.2-0.3-0.3-0.4l-2.6-5h-2.1v5c0,0.2-0.1,0.3-0.2,0.4c-0.1,0.1-0.3,0.2-0.4,0.2h-3.1c-0.2,0-0.3-0.1-0.4-0.2
			c-0.1-0.1-0.2-0.3-0.2-0.4v-15c0-0.2,0.1-0.3,0.2-0.4c0.1-0.1,0.3-0.2,0.4-0.2L222.8,78.2z M220.2,85.2h2.6c0.6,0,1.1-0.1,1.6-0.4
			c0.4-0.3,0.7-0.8,0.6-1.3c0.1-0.5-0.2-1-0.6-1.3c-0.5-0.3-1.1-0.4-1.6-0.4h-2.6V85.2z"/>
		<path class="st4" d="M231.5,84.3c0-0.8,0.2-1.7,0.6-2.4c0.3-0.8,0.8-1.4,1.4-2c0.6-0.6,1.4-1.1,2.2-1.3c2-0.7,4.1-0.7,6.1,0
			c0.8,0.3,1.6,0.8,2.2,1.3c0.6,0.6,1.1,1.2,1.4,2c0.3,0.8,0.5,1.6,0.6,2.4c0,0.7,0.1,1.4,0.1,2.1s0,1.4-0.1,2
			c0,0.8-0.2,1.7-0.6,2.5c-0.3,0.8-0.8,1.4-1.4,2c-0.7,0.6-1.4,1-2.2,1.3c-2,0.7-4.1,0.7-6.1,0c-0.8-0.3-1.6-0.7-2.2-1.3
			c-0.6-0.6-1.1-1.2-1.4-2c-0.3-0.8-0.5-1.6-0.6-2.5c0-0.6,0-1.3,0-2S231.5,84.9,231.5,84.3z M241.7,88.3c0-0.3,0-0.6,0.1-0.9
			s0-0.7,0-1.1s0-0.7,0-1s0-0.6-0.1-0.9c0-0.4-0.1-0.7-0.2-1.1c-0.1-0.3-0.3-0.6-0.6-0.8c-0.3-0.2-0.6-0.4-0.9-0.6
			c-0.4-0.1-0.8-0.2-1.3-0.2c-0.4,0-0.9,0.1-1.2,0.2c-0.3,0.1-0.6,0.3-0.9,0.6c-0.2,0.2-0.4,0.5-0.6,0.8c-0.1,0.3-0.2,0.7-0.2,1.1
			c0,0.3,0,0.6-0.1,0.9c0,0.3,0,0.7,0,1s0,0.7,0,1.1s0,0.7,0.1,0.9c0,0.7,0.3,1.4,0.8,1.9c0.6,0.5,1.4,0.8,2.1,0.8
			c0.8,0.1,1.6-0.2,2.1-0.8C241.4,89.7,241.6,89,241.7,88.3L241.7,88.3z"/>
		<path class="st4" d="M255.6,78.2c0.9,0,1.8,0.1,2.7,0.3c0.7,0.2,1.4,0.5,2,1c0.6,0.4,1,1,1.3,1.7c0.3,0.7,0.5,1.5,0.5,2.3
			c0,1-0.2,2-0.7,2.9c-0.5,0.8-1.2,1.4-2,1.8l2.9,5.5c0,0.1,0.1,0.2,0.1,0.3c0,0.1-0.1,0.3-0.2,0.4c-0.1,0.1-0.2,0.2-0.4,0.2h-3.2
			c-0.2,0-0.5-0.1-0.7-0.2c-0.1-0.1-0.2-0.3-0.3-0.4l-2.6-5H253v5c0,0.3-0.3,0.6-0.6,0.6h-3c-0.3,0-0.6-0.3-0.6-0.6v-15
			c0-0.3,0.3-0.6,0.6-0.6L255.6,78.2z M253,85.2h2.6c0.6,0,1.1-0.1,1.6-0.4c0.5-0.3,0.7-0.8,0.6-1.3c0.1-0.5-0.2-1.1-0.6-1.3
			c-0.5-0.3-1-0.4-1.6-0.4H253L253,85.2z"/>
		<path class="st4" d="M277.5,94.5c-0.2,0-0.3-0.1-0.5-0.2c-0.1-0.1-0.2-0.3-0.2-0.4v-2.4h-7.3c-0.2,0-0.3-0.1-0.4-0.2
			c-0.1-0.1-0.2-0.3-0.2-0.4v-2.5c0-0.4,0.1-0.7,0.3-1l7-8.8c0.1-0.1,0.2-0.3,0.4-0.3c0.2-0.1,0.3-0.1,0.5-0.1h3.5
			c0.2,0,0.3,0.1,0.4,0.2c0.1,0.1,0.2,0.3,0.2,0.4v8.9h2c0.2,0,0.3,0.1,0.4,0.2c0.1,0.1,0.2,0.3,0.2,0.4v2.5c0,0.2-0.1,0.3-0.2,0.4
			c-0.1,0.1-0.3,0.2-0.4,0.2h-2v2.4c0,0.2-0.1,0.3-0.2,0.4c-0.1,0.1-0.3,0.2-0.4,0.2L277.5,94.5z M277,87.8v-4.3l-3.4,4.3L277,87.8z
			"/>
		<path class="st4" d="M292.5,78c1,0,2,0.1,3,0.5c0.8,0.3,1.5,0.8,2.1,1.4c0.5,0.6,1,1.3,1.2,2c0.3,0.8,0.4,1.6,0.5,2.4
			c0,0.7,0,1.4,0,2.1s0,1.4,0,2c0,0.8-0.2,1.6-0.5,2.4c-0.3,0.7-0.7,1.4-1.2,2c-0.6,0.6-1.3,1.1-2.1,1.4c-1.9,0.7-4.1,0.7-6,0
			c-0.8-0.3-1.5-0.8-2.1-1.4c-0.6-0.6-1-1.3-1.2-2c-0.3-0.8-0.4-1.6-0.5-2.4c0-0.6,0-1.3,0-2s0-1.4,0-2.1c0-0.8,0.2-1.6,0.5-2.4
			c0.3-0.7,0.7-1.4,1.2-2c0.6-0.6,1.3-1.1,2.1-1.4C290.5,78.1,291.5,78,292.5,78z M295,88.3c0.1-1.3,0.1-2.6,0-3.9
			c0-0.4-0.1-0.7-0.2-1.1c-0.1-0.3-0.2-0.6-0.4-0.8c-0.2-0.2-0.5-0.4-0.8-0.6c-0.4-0.2-0.8-0.2-1.2-0.2c-0.4,0-0.8,0.1-1.2,0.2
			c-0.3,0.1-0.5,0.3-0.8,0.6c-0.2,0.3-0.3,0.5-0.4,0.8c-0.1,0.3-0.2,0.7-0.2,1.1c-0.1,1.3-0.1,2.6,0,3.9c0,0.4,0.1,0.7,0.1,1.1
			c0.1,0.3,0.2,0.6,0.4,0.8c0.2,0.2,0.5,0.4,0.8,0.6c0.4,0.2,0.8,0.2,1.2,0.2c0.4,0,0.8-0.1,1.2-0.2c0.3-0.1,0.6-0.3,0.8-0.6
			c0.2-0.3,0.3-0.5,0.4-0.8C294.9,89,295,88.7,295,88.3z"/>
		<path class="st4" d="M309.8,94.5c-0.3,0-0.6-0.3-0.6-0.6v-2.4h-7.3c-0.2,0-0.3-0.1-0.4-0.2c-0.1-0.1-0.2-0.3-0.2-0.4v-2.5
			c0-0.4,0.1-0.7,0.3-1l6.9-8.8c0.1-0.1,0.2-0.3,0.4-0.3c0.1-0.1,0.3-0.1,0.5-0.1h3.5c0.3,0,0.6,0.3,0.6,0.6v8.9h2
			c0.3,0,0.6,0.3,0.6,0.6v2.5c0,0.2-0.1,0.3-0.2,0.4c-0.1,0.1-0.3,0.2-0.4,0.2h-2v2.4c0,0.3-0.3,0.6-0.6,0.6L309.8,94.5z
			 M309.3,87.8v-4.3l-3.4,4.3L309.3,87.8z"/>
	</g>
</g>
<g id="freepik--character--inject-3">
	<g id="freepik--bottom--inject-3">
		<path class="st0" d="M76.8,345.7c3.2,1.9,7.4,2,11.3,0.6l3-21l-14-3.6L76.8,345.7z"/>
		<path class="st2" d="M99.4,365.8c0.3,0.4,0.1,3-0.3,3.6s-2.8,2.6-7.3,2.7c-4.2,0.1-8-0.7-10.4-2.4s-3.5-3.5-3.6-5.9
			s0.3-4.7-0.8-6.6s-2.3-3.5-2.6-4.5c-0.4-1.7-0.4-3.5,0-5.2L99.4,365.8z"/>
		<path class="st4" d="M89.1,345.4c0,0.9,0.1,1.8,0.4,2.7c0.5,1.9,1.3,3.7,2.3,5.4c0.5,0.9,1,1.8,1.6,2.6c1.2,1.6,2.7,2.9,4,4.5
			c1.4,1.4,2.2,3.3,2.3,5.3c0,3.3-3.7,4.2-6.4,4.6c-3,0.4-6.1,0.1-9-0.9c-3.1-1-5.3-3.7-5.7-6.9c-0.1-0.9,0-1.9-0.1-2.8
			c-0.2-2.1-1-4.2-2.3-5.9c-0.7-1-1.3-2.1-1.8-3.3c-0.8-2.1,0.1-4.4,0.7-6.4c0.6-1.7,1-3.8,1.6-3.6c0,0.4,0,1.1,0,1.1
			c0.2,0.4,0.6,0.7,0.7,1.1c0.1,0.5,0.2,0.9,0.4,1.4c0.3,0.7,0.8,1.3,1.4,1.7c0.1-1.2,0.2-2.5,0.3-3.7c-0.1-0.7,0.4-1.4,1.1-1.5
			c0.1,0,0.2,0,0.3,0c2.3-0.4,4.7-0.5,7.1-0.2c0.4,0,0.7,0.2,0.9,0.5c0.1,0.3,0.2,0.6,0.1,0.9C89.2,343.1,89.1,344.3,89.1,345.4z"/>
		<path class="st7" d="M89.1,345.4c0,0.9,0.1,1.8,0.4,2.7c0.5,1.9,1.3,3.7,2.3,5.4c0.5,0.9,1,1.8,1.6,2.6c1.2,1.6,2.7,2.9,4,4.5
			c1.4,1.4,2.2,3.3,2.3,5.3c0,3.3-3.7,4.2-6.4,4.6c-3,0.4-6.1,0.1-9-0.9c-3.1-1-5.3-3.7-5.7-6.9c-0.1-0.9,0-1.9-0.1-2.8
			c-0.2-2.1-1-4.2-2.3-5.9c-0.7-1-1.3-2.1-1.8-3.3c-0.8-2.1,0.1-4.4,0.7-6.4c0.6-1.7,1-3.8,1.6-3.6c0,0.4,0,1.1,0,1.1
			c0.2,0.4,0.6,0.7,0.7,1.1c0.1,0.5,0.2,0.9,0.4,1.4c0.3,0.7,0.8,1.3,1.4,1.7c0.1-1.2,0.2-2.5,0.3-3.7c-0.1-0.7,0.4-1.4,1.1-1.5
			c0.1,0,0.2,0,0.3,0c2.3-0.4,4.7-0.5,7.1-0.2c0.4,0,0.7,0.2,0.9,0.5c0.1,0.3,0.2,0.6,0.1,0.9C89.2,343.1,89.1,344.3,89.1,345.4z"/>
		<path class="st3" d="M92.2,354.3c-1.2-1-3.9-1.1-5.5-1.1c-1.5,0.1-3,0.5-4.4,1.3c-0.4,0.2-0.9,0.2-1.2-0.2l0,0
			c-0.3-0.4-0.3-1,0-1.3c0,0,0.1-0.1,0.1-0.1c1.5-1,3.2-1.5,4.9-1.5C90,351.3,91,352,91,352S92.6,353.2,92.2,354.3z"/>
		<path class="st3" d="M94.9,357.8c-1.5-1-4.5-1-6.1-1c-1.5,0.1-3,0.5-4.2,1.4c-0.4,0.3-0.9,0.2-1.3-0.2l0,0c-0.3-0.4-0.3-0.9,0-1.3
			c0,0,0.1-0.1,0.1-0.1c1.5-1,3.2-1.6,5-1.7c3.7-0.1,4.7,0.8,4.7,0.8C94,356.1,94.6,356.9,94.9,357.8z"/>
		<path class="st3" d="M84.9,347.8c1.6-0.2,3.2,0,4.7,0.6c0.6,0.4,1,1.5,0.6,1.7c-1.3-0.6-2.7-0.9-4.2-0.8c-1.4,0.1-2.8,0.4-4.1,0.9
			c-0.3,0.1-0.7,0.3-1,0.5c-0.4,0.2-1,0.1-1.2-0.4c0,0,0,0,0-0.1l0,0c-0.1-0.4,0-0.8,0.4-1C81.6,348.4,83.2,347.9,84.9,347.8z"/>
		<path class="st0" d="M116.3,337.8c2.4,6.1,6.3,4.2,12.1,0.7l0.9-20.9l-14.8-1.4L116.3,337.8z"/>
		<path class="st2" d="M150.7,352.5c0.3,1,0.2,2-0.3,2.9c-0.5,0.8-5.1,3.1-11.1,2.4c-4.5-0.6-8.7-2.3-12.3-5.1
			c-2.2-1.7-4.6-2.1-7.6-2.4s-5.2-1.4-5.8-2.8s0.3-3.8,0.3-3.8L150.7,352.5z"/>
		<path class="st4" d="M127.1,333.3c0.5-0.1,1.1-0.3,1.6-0.5c0.3-0.1,0.6-0.1,0.9,0c0.4,0.2,0.5,0.6,0.6,1c0.1,0.9,0.3,1.8,0.5,2.7
			c0.4,0.7,1,1.4,1.6,1.9c1.4,1.3,3,2.4,4.7,3.4c1.9,1.2,3.8,2.1,5.8,3.1s4.8,1.8,6.4,3c2.3,1.7,2.4,5.8-0.4,7.2
			c-2.4,1.2-8.6,2.4-15,0.2c-3.5-1.2-7.2-5.2-11.8-5.8c-2.9-0.4-6.8-0.8-8.6-3.2c-0.6-1-0.1-3.9,0.4-7.3c0.5-3,0.9-7.8,1.9-7.5
			l0.1,0.9l1.2,1.4c0.3,0.3,0.5,0.5,0.8,0.8c0.3,0.4,0.6,0.7,1,1.1c0.5,0.4,1.1,0.7,1.7,0.7c0.3,0,0.6,0,0.8-0.2
			c0.5-0.3,0.6-0.9,1-1.4c0.5-0.5,1-0.9,1.6-1.1c0.9-0.3,1.8-0.5,2.7-0.5C126.8,333.4,127,333.3,127.1,333.3z"/>
		<path class="st7" d="M127.1,333.3c0.5-0.1,1.1-0.3,1.6-0.5c0.3-0.1,0.6-0.1,0.9,0c0.4,0.2,0.5,0.6,0.6,1c0.1,0.9,0.3,1.8,0.5,2.7
			c0.4,0.7,1,1.4,1.6,1.9c1.4,1.3,3,2.4,4.7,3.4c1.9,1.2,3.8,2.1,5.8,3.1s4.8,1.8,6.4,3c2.3,1.7,2.4,5.8-0.4,7.2
			c-2.4,1.2-8.6,2.4-15,0.2c-3.5-1.2-7.2-5.2-11.8-5.8c-2.9-0.4-6.8-0.8-8.6-3.2c-0.6-1-0.1-3.9,0.4-7.3c0.5-3,0.9-7.8,1.9-7.5
			l0.1,0.9l1.2,1.4c0.3,0.3,0.5,0.5,0.8,0.8c0.3,0.4,0.6,0.7,1,1.1c0.5,0.4,1.1,0.7,1.7,0.7c0.3,0,0.6,0,0.8-0.2
			c0.5-0.3,0.6-0.9,1-1.4c0.5-0.5,1-0.9,1.6-1.1c0.9-0.3,1.8-0.5,2.7-0.5C126.8,333.4,127,333.3,127.1,333.3z"/>
		<path class="st3" d="M134.4,340c-0.4-0.8-1.2-1.4-2.1-1.6c-1.3-0.3-3.7,0.5-5.3,1.7c-0.5,0.4-0.6,1-0.2,1.5
			c0.1,0.1,0.2,0.2,0.3,0.3l0,0c0.4,0.2,0.9,0.2,1.3-0.1C130.1,340.5,132.2,339.8,134.4,340z"/>
		<path class="st3" d="M138.4,342.6c-0.5-0.9-1.5-1.4-2.5-1.5c-2.1,0-4.1,0.6-5.8,1.8c-0.5,0.3-0.6,1-0.3,1.5
			c0.1,0.1,0.2,0.2,0.3,0.3l0,0c0.4,0.2,0.9,0.2,1.2-0.1C133.3,342.9,135.9,342.1,138.4,342.6z"/>
		<path class="st3" d="M142.9,344.9c-0.6-0.8-1.6-1.3-2.6-1.3c-2,0-3.9,0.7-5.5,1.8c-0.5,0.4-0.6,1-0.2,1.5c0.1,0.1,0.2,0.2,0.3,0.3
			l0,0c0.4,0.3,0.9,0.2,1.2-0.1C137.8,345.3,140.4,344.5,142.9,344.9z"/>
		<path class="st3" d="M76.4,289.4c0.4-10.1,2.6-15.3,2.9-18.1c0,0,0.8-55.4,2.2-72.2l49.6-2.1c0.7,18,1.4,66.4,1,72.8
			c-0.4,6.1-2.9,59.3-2.9,59.3c-7,2.2-14.5-1-14.5-1s-4.2-30.2-4.8-36.9c-0.5-6-0.3-12,0.5-18l-3.2-43.1c0,0-3.8,33.4-5.7,46
			C99.3,290.5,90,335.1,90,335.1c-6.7,1.7-13.2-1.2-13.2-1.2S75.8,304,76.4,289.4z"/>
		<path class="st1" d="M107.2,230.1l0.9-5.9c2.9-0.4,10.2-5,14.5-9c-3.1,4.7-7.3,8.5-12.2,11.2l-0.2,46.8L107.2,230.1z"/>
	</g>
	<g id="freepik--top--inject-3">
		<path class="st0" d="M127.6,167.8c-3.4-7.7-9.2-20.6-9.2-20.6l-1.5-21c2.1,0.1,4.3,0.3,6.4,0.6c3.1,0.5,8.1,3.5,10.3,9.1
			c1.7,4.2,10.5,29.6,10.5,29.6l15.3-8.1c3.9-2.5,5.3-6.6,7.8-9s5-2.7,7.8-4.6s3.9-3.4,4.6-1.5s-2.4,4.8-3,5.6s-3.6,2.3,0.2,2.5
			s11.6-3.5,13.5-4.2s1.7,1.6,0.7,2.9s-1.1,5.4-2.7,7.6c-1.7,2.4-2.6,3.4-6.3,4.9c-3.4,1.3-10.5,1.7-14.2,3.8s-12.5,10.1-18.4,14.2
			c-7.9,5.5-12.4,5.9-15.5,1.5S128.7,170.5,127.6,167.8z"/>
		<path class="st11" d="M114.8,125.7c5.2-0.4,11.3-0.1,14.7,3c2.7,2.5,3.7,4,6.8,12.5c2,5.7,6.3,18.9,6.3,18.9
			c-5.9,1.3-11.1,4.6-15,9.2l-9.8-21.9L114.8,125.7z"/>
		<path class="st5" d="M144.1,165.4c-2.6,0.9-4.9,2.7-6.5,5c0,0,0.4-4,6-6.4L144.1,165.4z"/>
		<path class="st10" d="M102.4,124.8c-2.5-0.1-4.9,0.2-7.3,0.8c-4.6,1.2-12.8,3.5-12.8,3.5c-2.6,1.4-3.6,5.9-4.2,8.4
			c-1.9,8.3,3,27,3.8,34.3S81,201.4,81,201.4c5.6,6.5,35.9,10.8,50.6,0c0,0,0.6-51.3-0.8-58.6c-2.2-11.1-5.5-16.4-17-17.1
			L102.4,124.8z"/>
		<path class="st2" d="M108.9,97.3l-3.3,1.8c-0.5-0.9-0.1-2.1,0.8-2.6C107.2,96,108.3,96.3,108.9,97.3
			C108.8,97.2,108.8,97.3,108.9,97.3z"/>
		<path class="st2" d="M123.2,98.6l-3-2.3c0.6-0.8,1.7-1,2.5-0.5c0,0,0.1,0,0.1,0.1C123.6,96.5,123.8,97.7,123.2,98.6z"/>
		<path class="st2" d="M93.7,86.8c0,0-3.5,0.5-4.8,3.2c-1.1,2.3-0.7,7.9,0.8,14c0.9,3.9,2.1,7.8,3.8,11.5c0.6,1,1.6,1.8,2.7,2.2
			l-0.2-7.3l-0.3-5c0,0,3.2-4.4,3.6-8c0.5-4.7-0.5-6.6-0.5-6.6L93.7,86.8z"/>
		<path class="st2" d="M99.4,93.8c0,7.5,6.1,13.5,13.6,13.5c7.5,0,13.1-6.2,13-13.6s-5.7-13.4-13.1-13.4
			C105.4,80.3,99.4,86.4,99.4,93.8z"/>
		<path class="st0" d="M96,104.5c-1.2,1.1-2.2-1.7-3.2-2.7s-4.4-2.5-6,1s1.5,8.6,4,9.6c1.6,0.6,3.4,0,4.3-1.4v16
			c3.8,6.9,10.6,6.7,14.3,6.3s4.4-4.2,1.8-7.2v-5c2,0.3,4.1,0.4,6.1,0.3c3.3-0.5,5-3,6-6.6c1.6-5.8,2.2-15.5,0-26.7
			c-3.7-2.9-16.6-2.4-24.4,2.6C99.4,100.7,97.2,103.5,96,104.5z"/>
		<path class="st2" d="M123.9,82.5c0.5-2.1,0.7-4.2,0.7-6.4c0-0.8-0.2-1.9-1-2.2s-1.6,0.3-2.2,0.7c-2.9,1.9-6.5,2.5-9.9,2.7
			c-6,0.3-15.2-0.1-18.2,6.5c-0.8,1.8-1,3.7,0.7,5c1.5,1,3.2,1.6,5,1.9c3,0.5,6,1.2,9.1,1.6s6.7,0.8,9.8-0.1
			c2.6-0.8,5.2-1.5,7.1-3.5c1.7-1.8,2.6-4.1,2.6-6.5c0-0.3-0.1-0.8-0.4-0.9c-0.2,0-0.3,0-0.5,0.1L123.9,82.5z"/>
		<path class="st5" d="M111.1,121.2c0,0-7.4-1.5-10-2.8c-1.5-0.8-2.8-2-3.6-3.5c0.4,1.5,1.1,2.9,2,4.2c1.9,2.4,11.6,4.2,11.6,4.2
			L111.1,121.2z"/>
		<path class="st2" d="M109.6,102.2c0,0.9-0.8,1.6-1.7,1.6c-0.9,0-1.6-0.8-1.6-1.7c0-0.9,0.8-1.6,1.7-1.6
			C108.9,100.5,109.6,101.3,109.6,102.2z"/>
		<path class="st9" d="M112,113.7c0,0.9-0.7,1.6-1.6,1.6c-0.9,0-1.6-0.7-1.6-1.6c0-0.9,0.7-1.6,1.6-1.6c0,0,0,0,0,0
			C111.3,112.1,112,112.9,112,113.7z"/>
		<path class="st2" d="M107.5,96.9l-3.4,2.2c-0.6-1-0.3-2.3,0.7-2.9C105.7,95.7,106.9,95.9,107.5,96.9
			C107.5,96.9,107.5,96.9,107.5,96.9z"/>
		<path class="st2" d="M119.6,94.8l3.6,1.6c-0.4,1-1.5,1.4-2.5,1c0,0-0.1,0-0.1,0C119.7,97,119.3,95.8,119.6,94.8z"/>
		<path class="st2" d="M121.6,101.7c0,0.9-0.8,1.6-1.7,1.5c-0.9,0-1.6-0.8-1.5-1.7c0-0.9,0.7-1.5,1.6-1.5
			C120.8,100,121.6,100.8,121.6,101.7z"/>
		<polygon class="st5" points="113.4,98.9 114,110 119.2,108.6 		"/>
		<path class="st0" d="M20,144.7c1.7,0.9,8.8,5.9,12.6,6.3c1.6,0.2,2.1-0.1,2-0.5c-0.1-0.6-1.1-1.4-1.4-1.9c-0.4-0.8-3-4.2-2-6
			s1.9-0.1,4.2,2.2s4.8,3.1,6.9,5.9s2.8,7,6.2,10.1l13.8,9.4c0,0,6.4-29.8,9.2-33.3c3-3.7,15.9,4.4,13.2,16.1s-8.8,32.1-13.1,36.1
			c-2.8,2.6-8.6,0.1-15.8-6.3c-5.7-5.1-13.6-12.8-16.9-15.5s-10.2-4.2-13.4-6c-3.4-2-4.2-3.2-5.5-5.8c-1.2-2.5-0.7-6.5-1.4-8
			S18.2,143.7,20,144.7z"/>
		<path class="st11" d="M82.3,129.1c4.4,2.8,4.6,6.8,4.9,11.4c0.1,5.4-0.8,10.7-2.5,15.8c-1.9,5.8-4.8,16.4-4.8,16.4
			s-11.5,0.3-17.5-4.9c0,0,2.7-11.4,4.6-20S71.2,130.1,82.3,129.1z"/>
		<path class="st5" d="M62.4,170.2c3.2,1.8,5,5.5,5.6,7c-0.3-3.5-2.2-6.7-5.2-8.5L62.4,170.2z"/>
	</g>
	<g id="freepik--Outlet--inject-3">
		<polygon class="st4" points="182.1,386.3 259.3,430.9 259.3,447.3 182.1,402.8 		"/>
		<polygon class="st12" points="182.1,386.3 259.3,430.9 259.3,447.3 182.1,402.8 		"/>
		<polygon class="st4" points="336.5,386.3 259.3,430.9 259.3,447.3 336.5,402.8 		"/>
		<polygon class="st7" points="336.5,386.3 259.3,430.9 259.3,447.3 336.5,402.8 		"/>
		<polygon class="st4" points="336.5,386.3 259.3,341.8 182.1,386.3 259.3,430.9 		"/>
		<polygon class="st6" points="336.5,386.3 259.3,341.8 182.1,386.3 259.3,430.9 		"/>
		<polygon class="st13" points="259.3,430.9 259.3,426.2 190.2,386.3 182.1,386.3 		"/>
		<polygon class="st13" points="259.3,341.8 259.3,346.5 328.4,386.3 336.5,386.3 		"/>
		<polygon class="st4" points="336.5,386.3 328.4,386.3 259.3,426.2 259.3,430.9 		"/>
		<polygon class="st4" points="259.3,341.8 259.3,346.5 190.2,386.3 182.1,386.3 		"/>
		<path class="st1" d="M259.6,367l33.2,19.1c2.5,1.4,2.5,3.8,0,5.2L268,405.6c-2.8,1.4-6.2,1.4-9,0l-33.2-19.1
			c-2.5-1.4-2.5-3.8,0-5.2l24.7-14.3C253.4,365.6,256.7,365.6,259.6,367z"/>
		<path class="st3" d="M268,405.6l23.9-13.8l-32.3-18.7c-2.8-1.4-6.2-1.4-9,0L226.7,387l32.3,18.6
			C261.8,407.1,265.2,407.1,268,405.6z"/>
		<path class="st2" d="M239.5,386.4l14.5-8.4c0.5-0.3,1.2-0.3,1.7,0l1.8,1c0.5,0.3,0.5,0.7,0,1l-14.5,8.4c-0.5,0.3-1.2,0.3-1.7,0
			l-1.8-1c-0.3-0.1-0.4-0.4-0.3-0.7C239.3,386.5,239.4,386.4,239.5,386.4z"/>
		<path class="st2" d="M261.2,398.9l14.5-8.4c0.5-0.3,1.2-0.3,1.7,0l1.8,1c0.5,0.3,0.5,0.7,0,1l-14.5,8.4c-0.5,0.3-1.2,0.3-1.7,0
			l-1.8-1c-0.3-0.1-0.4-0.4-0.3-0.7C260.9,399.1,261.1,399,261.2,398.9z"/>
		<path class="st4" d="M225.8,418.8c-0.2-3.1-1.8-5.9-4.4-7.6c-0.9-0.7-2.1-0.8-3.1-0.3l-1.9,1.1c-0.9,0.6-1.4,1.7-1.3,2.8
			c0.2,3.1,1.8,5.9,4.4,7.6c0.9,0.7,2.1,0.8,3.1,0.3l1.9-1.1C225.4,420.9,225.9,419.9,225.8,418.8z"/>
		<path class="st13" d="M219.5,412.3c2.6,1.7,4.2,4.5,4.4,7.6c0,2.8-2,3.9-4.4,2.5c-2.6-1.7-4.2-4.5-4.4-7.6
			C215.1,412.1,217.1,410.9,219.5,412.3z"/>
	</g>
	<g id="freepik--Cable--inject-3">
		<path class="st1" d="M168.8,444.3c-4.9,0.1-9.7-1.1-14-3.4l-51.2-29.6c-4.1-2.4-6.4-5.7-6.4-9.2s2.3-6.9,6.4-9.2l59.3-34.2
			c6.5-3.8,12-13.3,12-20.8V150.1c0-1.1,0.9-2,2-2s2,0.9,2,2v187.7c0,9.1-6.1,19.7-14,24.2l-59.3,34.2c-2.8,1.6-4.4,3.7-4.4,5.8
			s1.6,4.1,4.4,5.8l51.2,29.6c6.6,3.8,17.4,3.8,24,0l37.8-21.8c0.9-0.6,2.2-0.3,2.8,0.6c0.6,0.9,0.3,2.2-0.6,2.8
			c0,0-0.1,0.1-0.1,0.1l-37.8,21.8C178.5,443.2,173.6,444.4,168.8,444.3z"/>
	</g>
	<g id="freepik--exclamation-marks--inject-3">
		<path class="st4" d="M78.9,78.3c-0.1-0.3,0-0.6,0.2-0.8c0.2-0.2,0.4-0.4,0.7-0.4l4.9-0.9c0.3-0.1,0.6,0,0.8,0.2
			c0.2,0.2,0.4,0.4,0.4,0.7l0.8,3.9c0.1,0.3,0,0.6-0.2,0.8c-0.1,0.2-0.4,0.4-0.7,0.5l-4.9,0.9c-0.3,0.1-0.6,0-0.8-0.2
			c-0.2-0.2-0.4-0.4-0.4-0.7L78.9,78.3z M74.9,57.2c-0.1-0.6,0.3-1.1,0.8-1.2c0,0,0,0,0,0l4.9-0.9c0.3-0.1,0.6,0,0.8,0.2
			c0.2,0.2,0.4,0.4,0.4,0.7L85,72.6c0.1,0.3,0,0.6-0.2,0.8c-0.2,0.2-0.4,0.4-0.7,0.4l-4.9,0.9c-0.3,0.1-0.6,0-0.8-0.2
			c-0.2-0.2-0.4-0.4-0.4-0.7L74.9,57.2z"/>
		<path class="st4" d="M69.4,90.8c-0.2-0.2-0.2-0.6,0-0.9c0,0,0,0,0,0l2.1-1.9c0.1-0.1,0.3-0.2,0.4-0.1c0.2,0,0.3,0.1,0.4,0.2
			l1.5,1.7c0.2,0.2,0.2,0.6,0,0.9c0,0,0,0,0,0l-2.1,1.9c-0.1,0.1-0.3,0.2-0.4,0.1c-0.2,0-0.3-0.1-0.4-0.2L69.4,90.8z M61.3,81.7
			c-0.1-0.1-0.2-0.3-0.2-0.4c0-0.2,0.1-0.3,0.2-0.4l2.1-1.9c0.1-0.1,0.3-0.2,0.4-0.2c0.2,0,0.3,0.1,0.4,0.2l6.4,7.2
			c0.1,0.1,0.2,0.3,0.1,0.4c0,0.2-0.1,0.3-0.2,0.4l-2.1,1.9c-0.1,0.1-0.3,0.2-0.4,0.1c-0.2,0-0.3-0.1-0.4-0.2L61.3,81.7z"/>
	</g>
</g>
</svg>
