<?xml version="1.0" encoding="utf-8"?>
<!-- Generator: Adobe Illustrator 24.2.0, SVG Export Plug-In . SVG Version: 6.00 Build 0)  -->
<svg version="1.1" id="Camada_1" xmlns="http://www.w3.org/2000/svg" xmlns:xlink="http://www.w3.org/1999/xlink" x="0px" y="0px"
	 viewBox="0 0 750 500" style="enable-background:new 0 0 750 500;" xml:space="preserve">
<style type="text/css">
	.st0{fill:#EBEBEB;}
	.st1{fill:#E0E0E0;}
	.st2{fill:#FF725E;}
	.st3{opacity:0.7;}
	.st4{fill:#FFFFFF;}
	.st5{fill:#263238;}
	.st6{fill:#F4D3BD;}
	.st7{fill:#EAAE94;}
	.st8{fill:#455A64;}
	.st9{opacity:0.6;}
	.st10{opacity:0.3;}
	.st11{fill:#FAFAFA;}
	.st12{fill:#B78876;}
	.st13{fill:#AA6550;}
</style>
<g id="freepik--background-complete--inject-19">
	<path class="st0" d="M71.6,377.6c0,0-2.9,6.8,13,11.5s24.8,6,24.8,6s3.4,1.4,1.8,3.9s-6.7,6.4-5.1,9.7s6.1,4,12,2.1
		s19-5.3,20.2-5.6s3,0,2.2,1.9s-9.6,13.2-4,17.1s21.3-3.9,23-4.7s2.6-0.6,3.2,0.2s-2.7,4.3-5.1,7.6s-4.5,7.6-1.1,9.6s16,0.5,33.9-15
		l7.9-7.7l-2.6-10.8c-6.9-22.7-16.8-30.6-20.7-30.8s-4.4,4.6-4.2,8.7s1.1,8.9,0.2,9.2s-1.8,0.1-2.8-1.5s-10.1-16.5-16.9-16.3
		s-5.5,14.5-5.7,16.5s-2.1,1.3-2.9,0.4s-10.1-10.8-14.1-15.5s-7.9-6.6-11.3-4.6s-0.9,8-0.9,10.9s-3.6,2.3-3.6,2.3s-8.2-3.7-24.2-8.1
		S71.6,377.6,71.6,377.6"/>
	<path class="st1" d="M200.6,415.6c-11.7-3.3-32.4-9.6-50.2-14.9s-33.9-10-45.6-13.4l-13.8-4l-3.8-1.1l-1-0.3l-0.3-0.1l0.3,0.1
		l1,0.3l3.8,1c3.3,0.9,8,2.2,13.9,3.9c11.7,3.3,27.8,8,45.7,13.3s38.5,11.6,50.2,15"/>
	<path class="st1" d="M113.5,403.5c0.2-0.2,0.4-0.3,0.7-0.4c0.4-0.2,1.1-0.6,1.9-1c1.6-0.8,3.9-1.9,6.5-3l6.5-2.9l2-0.9
		c0.2-0.1,0.5-0.2,0.7-0.3c-0.2,0.2-0.4,0.3-0.7,0.4c-0.4,0.2-1.1,0.6-1.9,1c-1.7,0.8-4,1.8-6.5,2.9l-6.5,2.9l-2,0.9
		C114,403.4,113.7,403.5,113.5,403.5z"/>
	<path class="st1" d="M131.9,394.1c-0.1,0-2.5-4.6-5.3-10.4s-5.1-10.5-5-10.5s2.5,4.6,5.3,10.4S132,394.1,131.9,394.1z"/>
	<path class="st1" d="M158.9,403.5c-0.1-0.3-0.1-0.5-0.2-0.8c-0.1-0.6-0.2-1.3-0.4-2.2c-0.3-1.8-0.8-4.4-1.4-7.1s-1.2-5.3-1.7-7.1
		c-0.2-0.9-0.4-1.6-0.6-2.1c-0.1-0.3-0.1-0.5-0.2-0.8c0.1,0.2,0.2,0.5,0.3,0.8c0.2,0.5,0.4,1.2,0.7,2.1c0.5,1.8,1.2,4.3,1.8,7.1
		s1.1,5.3,1.3,7.2c0.1,0.9,0.2,1.7,0.3,2.2C158.9,402.9,158.9,403.2,158.9,403.5z"/>
	<path class="st1" d="M144.1,415.6c0.2-0.2,0.3-0.4,0.5-0.5c0.4-0.4,0.9-0.8,1.5-1.4c1.3-1.1,3.1-2.7,5.1-4.4s3.8-3.2,5.2-4.3
		l1.6-1.3c0.2-0.2,0.4-0.3,0.6-0.4c-0.2,0.2-0.3,0.4-0.5,0.5l-1.5,1.4c-1.3,1.1-3.1,2.7-5.1,4.4s-3.8,3.2-5.2,4.3l-1.6,1.3
		C144.5,415.4,144.3,415.5,144.1,415.6z"/>
	<path class="st1" d="M166.9,426.9c0.2-0.2,0.4-0.5,0.7-0.7l2-1.8c1.6-1.5,3.9-3.5,6.5-5.7s4.9-4.2,6.6-5.6l2-1.7
		c0.2-0.2,0.5-0.4,0.8-0.6c-0.2,0.2-0.4,0.5-0.7,0.7l-1.9,1.8c-1.6,1.5-3.9,3.5-6.5,5.7s-4.9,4.2-6.6,5.6l-2,1.7
		C167.4,426.6,167.2,426.8,166.9,426.9z"/>
	<path class="st1" d="M184.8,411.2c-0.1-0.3-0.2-0.7-0.2-1c-0.2-0.7-0.4-1.6-0.6-2.7c-0.5-2.3-1.2-5.5-2.1-9s-1.8-6.6-2.4-8.9
		c-0.3-1.1-0.6-2-0.8-2.7c-0.1-0.3-0.2-0.7-0.2-1c0.1,0.3,0.3,0.7,0.4,1c0.2,0.6,0.5,1.5,0.9,2.7c0.7,2.3,1.6,5.4,2.5,8.9
		s1.6,6.7,2,9c0.2,1.2,0.4,2.1,0.5,2.8C184.8,410.5,184.8,410.9,184.8,411.2z"/>
	<path class="st0" d="M523,202.1c-14-9.4-17.4-27.2-17.1-43.3c0-2.7-0.3-5.5,0.9-7.9s4.2-4,6.6-2.9c2,0.9,2.9,3.2,4.1,5.1
		c1.5,2.5,3.8,4.6,6.4,5.9c1.7,0.9,3.8,1.4,5.5,0.4c2.3-1.3,2.5-4.5,2.5-7.2l-0.4-14.9c-0.2-2.7,0-5.3,0.7-7.9
		c0.8-2.6,2.6-4.9,5.1-5.7s5.7,0.7,6.3,3.3c0.1,1.1,0.2,2.2,0.1,3.3c0,1.1,0.6,2.2,1.7,2.6c1.1,0.3,2.1-0.5,2.9-1.3
		c2.7-2.8,4.5-6.2,6.2-9.7s3.3-7,5.8-10s5.9-5.4,9.7-5.7s7.9,2,9,5.7s-1.1,7.6-3.4,10.7c-3.5,4.6-7.6,8.6-12.2,12.1
		c-0.9,0.5-1.6,1.3-2,2.3c-0.5,1.8,1.2,3.5,2.9,4.1c2,0.6,4.2,0.4,6.2,0.6s4.3,1.1,5.2,3c1.1,2.7-1.1,5.6-3.3,7.5
		c-4.4,3.8-9.5,6.9-14.9,9c-2,0.6-3.9,1.6-5.6,2.8c-1.6,1.4-2.5,3.8-1.5,5.7s3.5,2.4,5.5,2s3.9-1.6,5.8-2.3
		c3.7-1.4,8.4-1.3,10.8,1.8c1.5,2.2,1.9,5,1,7.5c-0.8,2.5-2.2,4.7-3.9,6.7c-5.7,7.1-13.2,12.5-21.7,15.8
		C539.4,204.1,531.5,205,523,202.1"/>
	<path class="st1" d="M527,192c2.5-8.8,5.5-17.5,9-25.9c0.9-2.2,1.8-4.5,2.7-6.7s1.8-4.4,2.8-6.4c1.9-4,4.1-7.8,6.4-11.6
		c2.2-3.6,4.5-6.9,6.6-10s4.2-5.9,6.1-8.4c3.1-4,6.5-7.7,10.1-11.1c1.3-1.2,2.3-2.1,3-2.7l0.8-0.7c0.1-0.1,0.2-0.2,0.3-0.2
		c-0.1,0.1-0.2,0.2-0.3,0.3l-0.8,0.7c-0.7,0.6-1.7,1.6-3,2.8c-3.6,3.5-7,7.2-10,11.2c-1.9,2.5-4,5.3-6.1,8.4s-4.3,6.4-6.5,10
		c-2.3,3.7-4.5,7.6-6.4,11.5c-1,2.1-1.9,4.2-2.8,6.4l-2.7,6.7c-3.5,8.4-6.5,17.1-9,25.9"/>
	<path class="st1" d="M541.6,152.9c-0.1-0.4-0.2-0.7-0.3-1.1c-0.2-0.7-0.3-1.8-0.5-3.1c-0.4-2.6-0.9-6.3-1.4-10.4s-1-7.7-1.5-10.4
		c-0.2-1.3-0.4-2.4-0.6-3.1c-0.1-0.4-0.2-0.8-0.2-1.2c0.2,0.4,0.3,0.7,0.3,1.1c0.2,0.7,0.5,1.8,0.7,3.1c0.5,2.6,1.1,6.3,1.6,10.4
		s0.9,7.6,1.2,10.4c0.2,1.2,0.3,2.3,0.4,3.1C541.6,152.2,541.6,152.6,541.6,152.9z"/>
	<path class="st1" d="M575.8,145.9c-0.4,0.1-0.9,0.2-1.4,0.2c-0.9,0.1-2.2,0.2-3.7,0.4c-3.1,0.4-7.5,1.1-12.2,2.1s-9,2.1-12,2.9
		c-1.5,0.4-2.8,0.8-3.6,1.1c-0.4,0.2-0.9,0.3-1.3,0.4c0.4-0.2,0.8-0.4,1.3-0.5c0.8-0.3,2-0.7,3.6-1.2c3-0.9,7.3-2.1,12-3.1
		c4-0.9,8.1-1.5,12.2-1.9c1.6-0.2,2.9-0.2,3.7-0.3C574.9,145.9,575.4,145.9,575.8,145.9z"/>
	<path class="st1" d="M527.4,191.3c-0.1-0.1-0.2-0.3-0.2-0.4c-0.2-0.3-0.4-0.7-0.6-1.2c-0.5-1.1-1.2-2.6-2.1-4.6
		c-1.7-3.9-3.9-9.4-6.3-15.4s-4.5-11.5-6.2-15.5c-0.8-1.9-1.5-3.5-2-4.6l-0.5-1.3c-0.1-0.1-0.1-0.3-0.2-0.5c0,0,0.1,0.1,0.2,0.4
		l0.6,1.2c0.5,1.1,1.2,2.6,2.1,4.6c1.7,3.9,3.9,9.4,6.3,15.4s4.6,11.5,6.2,15.5c0.8,1.9,1.5,3.5,2,4.6l0.5,1.3
		C527.3,191.1,527.3,191.2,527.4,191.3z"/>
	<path class="st1" d="M572.7,175.8c-0.1,0.1-0.3,0.2-0.5,0.2l-1.3,0.5l-4.8,1.7c-4.1,1.4-9.7,3.4-16,5.7s-11.9,4.2-16,5.5
		c-2.1,0.7-3.7,1.2-4.9,1.5l-1.3,0.4c-0.2,0.1-0.3,0.1-0.5,0.1c0.1-0.1,0.3-0.2,0.5-0.2l1.3-0.5c1.2-0.4,2.9-1,4.8-1.7
		c4.1-1.4,9.7-3.4,16-5.6s11.9-4.2,16-5.5c2.1-0.7,3.7-1.2,4.9-1.5l1.3-0.4C572.4,175.9,572.5,175.8,572.7,175.8z"/>
	<path class="st0" d="M675.9,269.2c-0.2,2.7-1.6,5.3-3.7,7c-2.1,1.7-4.6,2.9-7.3,3.5c-5.1,1.3-11.1,0.4-16.2-1.2
		c2.1-5.5,8-8.8,11.1-10.3C664.7,265.9,675.1,264.7,675.9,269.2"/>
	<path class="st0" d="M642.4,286.4c2.6-1.6,5.9-1.7,8.7-0.3c2.7,1.5,4.7,4,5.5,7c0.5,1.3,0.4,2.8-0.3,4.1c-0.8,1.1-2.2,1.6-3.5,1.4
		c-1.3-0.2-2.5-0.8-3.5-1.6C645.7,294.2,642.7,290.8,642.4,286.4"/>
	<path class="st1" d="M629.3,285.7c1.1-0.3,2.3-0.5,3.4-0.6c1.3-0.2,2.5-0.2,3.8,0c1.5,0.1,3.1,0.4,4.6,0.7c2.8,0.6,5.4,1.9,7.5,3.8
		c0.6,0.6,1.2,1.2,1.7,1.9c0.2,0.2,0.4,0.5,0.5,0.8c-0.1,0.1-0.8-1.1-2.5-2.4c-2.2-1.7-4.7-2.9-7.4-3.5c-1.5-0.3-3-0.6-4.5-0.7
		c-1.2-0.2-2.5-0.2-3.7-0.1C631.6,285.7,630.4,285.7,629.3,285.7z"/>
	<path class="st1" d="M668.1,270.9c-0.5,0.3-1,0.6-1.6,0.8c-1,0.5-2.5,1.1-4.4,1.9c-3.7,1.6-8.9,3.7-14.7,5.9s-11.1,4.1-14.9,5.3
		c-1.9,0.6-3.5,1.1-4.6,1.4c-0.6,0.2-1.1,0.3-1.7,0.4c0.5-0.3,1.1-0.5,1.6-0.7l4.5-1.6c3.8-1.4,9.1-3.3,14.8-5.5l14.7-5.8l4.5-1.7
		C667,271.2,667.6,271,668.1,270.9z"/>
	<path class="st0" d="M638.2,280.8c5.1-4,8-10.3,7.8-16.8c-0.1-1.6-0.6-3.5-2.1-4.1s-3.2,0.6-4.2,1.9c-4.4,5.4-5.2,12.9-1.9,19.1"/>
	<path class="st1" d="M642.4,267.2c0.1,0.3,0.1,0.6,0,0.9c0,0.6-0.1,1.5-0.2,2.5c-0.3,2.8-1.2,5.5-2.5,8c-0.8,1.4-1.7,2.6-2.9,3.6
		c-1.6,1.4-3.5,2.4-5.5,3c-0.3,0.1-0.6,0.2-0.9,0.2c0-0.1,1.2-0.5,3.1-1.4c1.1-0.6,2.1-1.3,3-2.1c1.1-1,2-2.2,2.7-3.5
		c1.3-2.4,2.1-5,2.6-7.7C641.9,269.4,642.1,268.3,642.4,267.2z"/>
	<path class="st0" d="M108.3,97.3c3.3-0.2,6.5,1,8.8,3.2c2.4,2.2,4.2,5,5.3,8c2.4,5.8,2.3,12.9,1.4,19.1
		c-6.8-1.5-11.6-7.8-13.9-11.2C106.3,111,103.1,99.1,108.3,97.3"/>
	<path class="st0" d="M134,133.6c-2.4-2.8-3-6.7-1.8-10.1c1.3-3.4,3.9-6.1,7.3-7.6c1.5-0.7,3.3-1.1,4.8-0.4c1.4,0.8,2.2,2.3,2.2,3.9
		c0,1.6-0.5,3.1-1.3,4.4C142.6,128.5,139.2,132.5,134,133.6"/>
	<path class="st1" d="M135.5,149.2c-0.6-1.3-1-2.6-1.3-3.9c-0.4-1.5-0.6-3-0.7-4.5c-0.1-1.8-0.1-3.7,0.1-5.5
		c0.3-3.4,1.3-6.6,3.1-9.4c0.6-0.8,1.2-1.6,1.9-2.3c0.5-0.5,0.9-0.7,0.9-0.7s-1.1,1.1-2.4,3.3c-1.6,2.8-2.6,6-2.9,9.2
		c-0.1,1.8-0.2,3.6-0.1,5.4c0,1.5,0.2,2.9,0.5,4.4C135.1,146.5,135.4,147.8,135.5,149.2z"/>
	<path class="st1" d="M111.5,106.2c0.4,0.5,0.8,1.1,1.2,1.7c0.7,1.1,1.8,2.8,3,4.8c2.5,4.1,5.9,9.8,9.4,16.2s6.7,12.2,8.8,16.6
		c1.1,2.1,1.9,3.9,2.5,5.1c0.3,0.6,0.6,1.3,0.8,1.9c-0.4-0.6-0.7-1.2-1.1-1.8l-2.7-5c-2.2-4.2-5.4-10.1-8.9-16.4l-9.3-16.2
		c-1.1-2-2.1-3.7-2.8-4.9C112.1,107.5,111.8,106.8,111.5,106.2z"/>
	<path class="st0" d="M128.3,139.5c-5.6-5.4-13.4-7.7-21-6.2c-1.9,0.4-4,1.3-4.4,3.2s1.3,3.6,2.9,4.6c7.1,4.3,16.1,3.9,22.7-1.1"/>
	<path class="st1" d="M111.6,137c0.3-0.1,0.7-0.2,1.1-0.2c0.7-0.1,1.7-0.1,3-0.1c3.3-0.1,6.6,0.4,9.7,1.5c1.7,0.7,3.3,1.6,4.7,2.8
		c1.1,1,2.2,2.1,3,3.3c0.6,0.8,1,1.7,1.4,2.6c0.2,0.3,0.3,0.6,0.4,1c-0.1,0.1-0.8-1.4-2.2-3.4c-0.9-1.2-1.9-2.2-3-3.1
		c-1.4-1.1-2.9-2-4.6-2.6c-3.1-1.1-6.3-1.6-9.5-1.7C114.3,137.2,113,137.1,111.6,137z"/>
	<path class="st0" d="M345.5,465.6c-1.1-2.7-1.1-5.7,0-8.4c1.2-2.6,2.9-5,5.1-6.9c4.1-3.7,10.2-5.8,15.7-6.8
		c0.8,6.1-3.1,12.1-5.3,15C357.6,463.1,348.6,469.4,345.5,465.6"/>
	<path class="st0" d="M368.4,433.1c-1.7,2.8-4.7,4.6-8,4.5c-3.3-0.1-6.3-1.5-8.5-3.9c-1.1-1-1.8-2.4-1.8-3.9c0.3-1.4,1.2-2.5,2.6-3
		c1.3-0.4,2.7-0.5,4.1-0.2C361.5,427.4,365.9,429.1,368.4,433.1"/>
	<path class="st1" d="M381,427.3c-0.9,0.9-1.8,1.6-2.9,2.3c-1.1,0.8-2.3,1.4-3.5,1.9c-1.5,0.6-3.1,1.2-4.6,1.6
		c-2.9,0.8-6,0.8-8.9,0.2c-0.9-0.2-1.7-0.5-2.5-0.9c-0.6-0.3-0.9-0.5-0.8-0.5s1.3,0.6,3.5,1c2.9,0.5,5.8,0.4,8.6-0.3
		c1.5-0.4,3.1-0.9,4.6-1.5c1.2-0.4,2.4-1,3.5-1.7C378.9,428.5,379.9,427.8,381,427.3z"/>
	<path class="st1" d="M352,460.2c0.3-0.5,0.7-1,1.1-1.5c0.7-0.9,1.8-2.3,3.2-3.9c2.7-3.3,6.5-7.8,10.8-12.8s8.3-9.2,11.3-12.3
		c1.5-1.5,2.7-2.8,3.6-3.6c0.4-0.5,0.9-0.9,1.4-1.2c-0.4,0.5-0.8,1-1.2,1.4c-0.9,1-2,2.2-3.4,3.7c-2.9,3.1-6.9,7.5-11.2,12.4
		L356.6,455l-3.3,3.8C352.9,459.4,352.5,459.8,352,460.2z"/>
	<path class="st0" d="M375,436.2c-2.8,6.3-2.5,13.5,1,19.5c0.9,1.5,2.3,3,4,2.8s2.6-2.1,3-3.8c1.5-7.2-1.5-14.6-7.6-18.8"/>
	<path class="st1" d="M377.8,451c0,0-0.2-0.3-0.5-0.9s-0.6-1.4-1-2.5c-1.1-2.8-1.6-5.7-1.6-8.6c0-1.6,0.4-3.3,0.9-4.8
		c0.5-1.2,1.1-2.4,1.9-3.5c0.5-0.7,1.1-1.4,1.8-2c0.5-0.4,0.7-0.6,0.8-0.6s-0.9,1-2.2,2.9c-0.7,1.1-1.3,2.2-1.7,3.4
		c-0.5,1.5-0.8,3-0.8,4.6c0,2.9,0.5,5.8,1.4,8.5C377.2,448.7,377.5,449.8,377.8,451z"/>
</g>
<g id="freepik--Stains--inject-19">
	<path class="st2" d="M48.5,242.2c-4.2-24.3,4.2-51.1,23.6-66.4s49.5-16.4,68.3-0.4c13.2,11.2,19.4,28.4,27.3,43.8
		s19.8,31.1,36.9,33.8c14.8,2.3,29.6-5.8,44.5-3.8c14.5,1.9,26.6,13.7,30.8,27.7s1,29.5-6.4,42.1s-19,22.3-31.6,29.7
		c-40.5,23.8-94.2,23-134-1.9s-63.8-73-60-119.8"/>
	<g class="st3">
		<path class="st4" d="M48.5,242.2c-4.2-24.3,4.2-51.1,23.6-66.4s49.5-16.4,68.3-0.4c13.2,11.2,19.4,28.4,27.3,43.8
			s19.8,31.1,36.9,33.8c14.8,2.3,29.6-5.8,44.5-3.8c14.5,1.9,26.6,13.7,30.8,27.7s1,29.5-6.4,42.1s-19,22.3-31.6,29.7
			c-40.5,23.8-94.2,23-134-1.9s-63.8-73-60-119.8"/>
	</g>
	<path class="st2" d="M283.1,459.7c13.1-9,19.3-28.8,11.1-42.4l0,0c-8.3-12.4-21.2-22.3-36-24.4s-31.1,4.9-37.7,18.3
		c-4.1,8.4-4.2,18.6-0.7,27.4c3.6,8.8,10,16.1,18.2,20.9C251.6,467.7,270,468.6,283.1,459.7z"/>
	<g class="st3">
		<path class="st4" d="M283.1,459.7c13.1-9,19.3-28.8,11.1-42.4l0,0c-8.3-12.4-21.2-22.3-36-24.4s-31.1,4.9-37.7,18.3
			c-4.1,8.4-4.2,18.6-0.7,27.4c3.6,8.8,10,16.1,18.2,20.9C251.6,467.7,270,468.6,283.1,459.7z"/>
	</g>
	<path class="st2" d="M710.1,376.8c-0.8-21-11.2-41.9-28.7-53.7s-41.8-13.4-59.8-2.4c-11.2,6.8-19.3,17.7-26.1,28.9
		c-3.7,6.2-7.6,13-14.2,15.6c-8.7,3.5-18.2-1.3-27.4-3.1c-22.2-4.4-44.1,9.1-50,30.9c-8,33.2,15.3,56.9,40.2,71.3
		c27.8,16.1,63,16.1,93.2,5.3c19.8-7,38.3-18.6,51.9-34.8S710.9,397.9,710.1,376.8z"/>
	<g class="st3">
		<path class="st4" d="M710.1,376.8c-0.8-21-11.2-41.9-28.7-53.7s-41.8-13.4-59.8-2.4c-11.2,6.8-19.3,17.7-26.1,28.9
			c-3.7,6.2-7.6,13-14.2,15.6c-8.7,3.5-18.2-1.3-27.4-3.1c-22.2-4.4-44.1,9.1-50,30.9c-8,33.2,15.3,56.9,40.2,71.3
			c27.8,16.1,63,16.1,93.2,5.3c19.8-7,38.3-18.6,51.9-34.8S710.9,397.9,710.1,376.8z"/>
	</g>
	<path class="st2" d="M662.3,197c-2.6-16.8-18.8-31.9-35.7-30.3l0,0c-15.8,2.3-31.3,10.2-40.1,23.4s-9.7,32.2,0.2,44.8
		c6.2,7.9,16,12.6,26,13.4c10.1,0.6,20.1-2.2,28.5-7.9C655.5,231.1,664.9,213.8,662.3,197z"/>
	<g class="st3">
		<path class="st4" d="M662.3,197c-2.6-16.8-18.8-31.9-35.7-30.3l0,0c-15.8,2.3-31.3,10.2-40.1,23.4s-9.7,32.2,0.2,44.8
			c6.2,7.9,16,12.6,26,13.4c10.1,0.6,20.1-2.2,28.5-7.9C655.5,231.1,664.9,213.8,662.3,197z"/>
	</g>
</g>
<g id="freepik--character-2--inject-19">
	<path class="st5" d="M466.5,201.2c2.2-0.3,3.9-1.9,5.9-2.8c3-1.4,6.5-1.2,9.4,0.5c2.8,1.7,4.8,3.7,5,7l-3.7,4"/>
	<path class="st6" d="M489.8,221.7l-5.9,35.4c-1,6-3.7,14.7-13.1,12.6l0,0c-8.1-2.4-8.9-10.5-7.9-16.2c0.5-2.7,0.8-4.9,0.8-5.2
		c0,0-8.9-2.4-8-11.4c0.4-4.4,2-13.3,3.5-21.3c1.6-8.6,9.6-14.6,18.3-13.7l0.9,0.1C487.6,203.6,491.5,212.4,489.8,221.7z"/>
	<path class="st7" d="M463.6,248.3c4.2,0.5,8.4-0.2,12.1-2.1c0,0-3.5,6.2-12.4,4.4L463.6,248.3z"/>
	<path class="st5" d="M459.9,221.1c0.2,0.2,1.4-0.3,3.1-0.1s2.8,0.9,3,0.8s-0.1-0.3-0.6-0.7c-0.7-0.4-1.6-0.7-2.4-0.8
		c-0.8-0.1-1.7,0-2.5,0.3C460,220.8,459.8,221,459.9,221.1z"/>
	<path class="st5" d="M473.6,222.6c0.2,0.2,1.4-0.3,3.1-0.1s2.8,0.9,3,0.8s-0.1-0.3-0.6-0.7c-0.7-0.4-1.6-0.7-2.4-0.8
		c-0.8-0.1-1.7,0-2.5,0.2C473.7,222.3,473.5,222.5,473.6,222.6z"/>
	<path class="st5" d="M473.3,224.8c-0.1,0.5,0.3,1,0.9,1.1c0.5,0.1,1-0.3,1.1-0.8c0.1-0.5-0.3-1-0.9-1.1
		C473.9,224,473.4,224.3,473.3,224.8z"/>
	<path class="st5" d="M460.3,223.4c-0.1,0.5,0.3,1,0.9,1.1c0.5,0.1,1-0.3,1.1-0.8c0.1-0.5-0.3-1-0.9-1.1
		C460.9,222.5,460.4,222.9,460.3,223.4z"/>
	<path class="st5" d="M468,231.7c-0.7-0.3-1.4-0.5-2.2-0.6c-0.4-0.1-0.7-0.2-0.7-0.4c0-0.4,0.1-0.7,0.4-1c0.4-0.8,0.9-1.7,1.3-2.6
		c1.2-2.2,2.2-4.5,3.1-6.8c-0.1-0.1-1.8,2.9-3.6,6.5l-1.2,2.6c-0.3,0.4-0.4,0.9-0.3,1.4c0.1,0.3,0.3,0.5,0.5,0.6
		c0.2,0.1,0.4,0.1,0.6,0.1C466.5,231.7,467.3,231.8,468,231.7z"/>
	<path class="st5" d="M475.3,216.6c0.1,0.4,1.3,0.3,2.7,0.6s2.5,0.9,2.8,0.6s-0.1-0.5-0.5-0.9c-0.6-0.5-1.3-0.8-2-1
		c-0.7-0.2-1.5-0.2-2.2,0C475.5,216.1,475.2,216.4,475.3,216.6z"/>
	<path class="st5" d="M460.6,216.8c0.1,0.3,1.3,0.2,2.7,0.4s2.6,0.6,2.8,0.3s-0.1-0.4-0.6-0.7c-1.3-0.8-2.8-1-4.2-0.6
		C460.8,216.4,460.6,216.6,460.6,216.8z"/>
	<path class="st6" d="M488.3,228.3c0.2-0.1,6.4-1.2,5.5,5s-6.8,4-6.8,3.9S488.3,228.3,488.3,228.3z"/>
	<path class="st7" d="M489.2,235c0,0,0.1,0.1,0.3,0.2c0.2,0.1,0.5,0.2,0.8,0.1c0.9-0.4,1.5-1.2,1.5-2.2c0.1-0.5,0.1-1.1-0.1-1.6
		c-0.1-0.4-0.3-0.8-0.7-0.9c-0.2-0.1-0.5,0-0.7,0.2c-0.1,0.2-0.1,0.3-0.1,0.3s-0.1-0.1,0-0.4c0.1-0.1,0.2-0.3,0.3-0.4
		c0.2-0.1,0.4-0.1,0.6-0.1c0.5,0.2,0.9,0.6,1,1.1c0.2,0.6,0.2,1.2,0.1,1.8c-0.1,1.1-0.9,2.1-1.9,2.4c-0.4,0.1-0.7,0-1-0.3
		C489.2,235.2,489.2,235,489.2,235z"/>
	<path class="st5" d="M457.4,213.6c3.9,1.5,8.4,1,11.9-1.4c2.4-1.6,4.4-4.1,7.2-4.7c1.9-0.3,3.9,0.2,5.5,1.4
		c1.6,1.2,2.9,2.7,3.8,4.4c-2.2,4.4-1.6,9.6-0.9,14.5c0,0.5,0.2,1.1,0.6,1.5c0.8,0.5,1.8,0.4,2.5-0.3c1.1-1.1,1.8-2.4,2.1-3.9
		c1-3.2,1.3-6.6,1-10c-0.3-3.4-1.7-6.6-3.8-9.2c-2.8-3.2-6.8-5.2-11-5.5c-4.2-0.3-8.5,0.7-12.1,2.9c-1.7,1-3.2,2.3-4.2,4"/>
	<path class="st5" d="M457.9,222.1c0.6-2.5,0.9-5.6,1.4-8.1c3.9,0.6,7.9-0.4,11.1-2.8c1.6-1.3,3.1-3,5-3.6c2.6-0.7,5.2,0.6,7.6,1.9
		l-0.1-0.1c1.2,0.8,2.2,1.9,3,3.1c-1.5,4.9-1.8,10-1.1,15c0.1,0.8,0.5,1.4,1.2,1.9c1.3,0.8,2.2-0.1,3.2-0.7c0.7-0.4,1.7-0.7,2.3-0.1
		c1.9-3.1,3.2-6.5,4.1-10c-0.4,1.3,0.4,2.7,1.7,3.1c1,0.3,2.1-0.1,2.7-0.9c-0.6-0.7-1-1.6-1.2-2.5c1.4,1.2,3.4,1,4.6-0.3
		c0,0,0,0,0.1-0.1l-2-2l2.8,0.1c-2.1-1.1-3.9-2.6-5.3-4.6c-1.4-1.9-3-3.6-4.9-5c-2-1.3-4.6-1.8-6.7-0.6c0.1-3.2-2.2-6.3-5.1-7.6
		c-3.6-1.4-7.4-1.8-11.2-1.1c-2.5,0.5-5,2-8.2,4.3c-1.5,1.1-3,2.3-4.3,3.7c-1.9,2.1-5.8,5.4-9.5,4.4l0.3,3.8c2,1.9,6.1,0.2,6.1,0.2
		s-2.4,2.4-4.6,2.3l0.6,3.3c0,0,3.4,0.6,4.9-2L457.9,222.1z"/>
	<path class="st8" d="M485.8,213.2c0,0-0.3-0.5-0.9-1.3c-0.8-1.1-1.9-2.1-3.1-2.9c-0.9-0.4-1.8-0.8-2.7-1c-1.1-0.3-2.2-0.4-3.2-0.1
		c-2.3,0.7-3.9,3-6.3,4.4c-2.2,1.4-4.9,2.2-7.5,2.2c-0.6,0-1.2,0-1.8-0.1c-0.2-0.1-0.5-0.1-0.7,0c-0.2,0.1-0.5,0.2-0.7,0.4
		c-0.8,0.6-1.4,1.3-1.9,2.1c-0.9,1.2-2.2,2-3.7,2.2c-0.4,0-0.8,0-1.2,0c-0.1,0-0.3,0-0.4-0.1c0-0.1,0.6,0,1.5-0.1
		c1.4-0.2,2.6-1,3.5-2.2c0.5-0.9,1.2-1.7,2-2.3c0.2-0.1,0.5-0.3,0.8-0.4c0.3-0.1,0.6-0.1,0.9-0.1c0.6,0.1,1.2,0.1,1.7,0.1
		c2.6,0,5.1-0.8,7.3-2.2c1.1-0.7,2.2-1.6,3.2-2.4c0.9-0.9,2.1-1.6,3.3-2c1.1-0.3,2.4-0.3,3.5,0.1c1,0.3,1.9,0.6,2.8,1.1
		c1.2,0.8,2.3,1.8,3.1,3.1c0.2,0.3,0.4,0.7,0.6,1C485.7,213.1,485.8,213.2,485.8,213.2z"/>
	<path class="st8" d="M495.5,218.6c0,0,0,0.2-0.2,0.5c-0.2,0.5-0.5,0.9-0.8,1.3c-0.5,0.6-1.3,1-2.1,0.9c-0.5-0.1-1-0.4-1.2-0.9
		c-0.3-0.5-0.3-1-0.3-1.6l0.5,0.1c-0.3,0.7-1,1.1-1.7,1.2c-0.7,0-1.3-0.2-1.8-0.7c-0.4-0.4-0.8-0.9-1-1.5c-0.3-0.9-0.4-1.9-0.4-2.9
		c0-0.9-0.1-1.7-0.3-2.6c0.5,0.8,0.7,1.7,0.7,2.6c0,0.9,0.2,1.8,0.5,2.7c0.2,0.5,0.5,0.9,0.9,1.3c0.4,0.4,0.9,0.6,1.5,0.6
		c0.6,0,1.1-0.4,1.3-0.9l0.8-2.1l-0.4,2.2c-0.2,0.8,0.3,1.7,1.1,1.9c0.7,0.1,1.4-0.2,1.8-0.7c0.3-0.3,0.6-0.7,0.9-1.1
		C495.3,218.8,495.5,218.6,495.5,218.6z"/>
	<path class="st8" d="M493.2,225.4c-0.5,0.3-1.1,0.5-1.7,0.4c-1.5-0.1-2.9-0.7-3.9-1.7c-1-1-1.8-2.2-2.4-3.6
		c-0.3-0.5-0.5-1.1-0.6-1.7c0.4,0.5,0.7,1,0.9,1.5c0.6,1.2,1.4,2.4,2.4,3.4c1,1,2.2,1.6,3.6,1.7
		C492.1,225.5,492.6,225.5,493.2,225.4z"/>
	<path class="st8" d="M492.9,226.5c-0.5,0.2-1,0.2-1.5,0.1c-1.2-0.1-2.4-0.5-3.5-1.2c-1.1-0.6-2-1.5-2.6-2.6
		c-0.3-0.4-0.5-0.9-0.6-1.4c0.3,0.4,0.6,0.8,0.9,1.2c0.7,0.9,1.6,1.7,2.6,2.4c1,0.6,2.1,1,3.3,1.2
		C491.9,226.3,492.4,226.4,492.9,226.5z"/>
	<path class="st8" d="M496.9,203.5c-0.5,0-1-0.1-1.5-0.2c-1.2-0.1-2.5-0.1-3.6,0.2c-1.2,0.3-2.3,0.8-3.3,1.5c-0.8,0.5-1.2,1-1.3,0.9
		c0.3-0.5,0.6-0.9,1-1.2c1-0.8,2.2-1.4,3.4-1.7c1.3-0.3,2.6-0.3,3.8-0.1C495.9,203,496.5,203.2,496.9,203.5z"/>
	<path class="st8" d="M488.5,198.2c1.2,2.7,0.7,5.9-1.3,8.2c0.6-1.3,1-2.6,1.3-4C488.7,201,488.7,199.6,488.5,198.2z"/>
	<path class="st8" d="M452.6,209.4c0.4,0.3,0.8,0.6,1.3,0.7c1.4,0.2,2.7,0.1,4-0.5c0.8-0.3,1.7-0.6,2.7-1c1-0.4,2-0.8,2.9-1.4
		c2-1.1,4-2.8,6.5-3.9c1.2-0.6,2.5-0.9,3.8-1c1.3-0.1,2.5,0.2,3.6,0.8c2.1,1.1,3.6,2.6,5.2,3.2c1.2,0.6,2.6,0.6,3.9,0.2
		c0.4-0.2,0.8-0.5,1.2-0.9c0,0,0,0.1-0.2,0.3c-0.2,0.3-0.6,0.5-0.9,0.7c-1.3,0.6-2.8,0.6-4.1,0c-1.7-0.6-3.2-2.2-5.3-3.2
		c-1.1-0.5-2.2-0.8-3.4-0.7c-1.3,0.1-2.5,0.5-3.7,1c-2.4,1.1-4.4,2.7-6.5,3.8c-1,0.6-2,1-3,1.4c-1,0.3-1.9,0.7-2.7,0.9
		c-1.3,0.5-2.8,0.6-4.1,0.3c-0.4-0.1-0.7-0.3-1-0.6C452.8,209.6,452.7,209.5,452.6,209.4z"/>
	<path class="st8" d="M487.5,205.8c-0.7-0.8-1.5-1.6-2.4-2.4c-2.1-1.7-4.6-2.9-7.3-3.2c-1.5-0.1-3-0.1-4.5,0.1
		c-1.2,0.1-2.5,0.1-3.7,0.1c-0.8-0.1-1.7-0.2-2.5-0.5c-0.3-0.1-0.6-0.2-0.8-0.4c1.1,0.4,2.2,0.6,3.3,0.6c1.2,0,2.5,0,3.7-0.2
		c1.5-0.2,3-0.2,4.6-0.1c2.8,0.3,5.4,1.5,7.5,3.4c0.6,0.6,1.2,1.2,1.7,1.9C487.2,205.3,487.3,205.6,487.5,205.8z"/>
	<path class="st5" d="M468.7,236.2c0-0.2,1.2-0.3,2.3-1.3c0.4-0.4,0.8-0.9,1.1-1.4c0.3-0.4,0.5-0.7,0.5-0.6s0,0.3-0.2,0.8
		c-0.2,0.6-0.6,1.2-1.1,1.6c-0.5,0.5-1.1,0.8-1.8,0.9C469,236.3,468.7,236.3,468.7,236.2z"/>
	<path class="st2" d="M629.6,408.1l16.4-9.3c0,0,14.9,13.5,18.1,12.1l-16.9-32.4l-26.1,13.4L629.6,408.1z"/>
	<g class="st9">
		<path class="st4" d="M639.4,389.5c-0.1-0.7,0.3-1.5,1-1.7c0.7-0.2,1.5,0.3,1.7,1c0.2,0.8-0.3,1.6-1.1,1.8
			c-0.8,0.1-1.5-0.5-1.6-1.2"/>
	</g>
	<g class="st9">
		<path class="st4" d="M647.3,378.5l-2.6,1.5l17.1,30.5c0,0,1.4,1.1,2.3,0.4L647.3,378.5z"/>
	</g>
	<path class="st5" d="M646.1,399.4c0.2-0.1-0.2-0.9-0.1-2s0.5-1.8,0.4-1.9s-0.9,0.6-1,1.9S646,399.5,646.1,399.4z"/>
	<path class="st5" d="M649.3,402.1c0.2,0,0.1-0.9,0.5-1.8s1-1.4,0.9-1.6s-1,0.2-1.5,1.3S649.1,402.1,649.3,402.1z"/>
	<path class="st5" d="M654.3,401.9c0-0.2-0.9,0-1.6,0.9s-0.6,1.8-0.4,1.8s0.4-0.7,0.9-1.4S654.4,402,654.3,401.9z"/>
	<path class="st5" d="M642.1,401.1c0.1-0.1-0.5-0.8-0.9-1.7s-0.5-1.8-0.7-1.8s-0.4,1,0.1,2S642,401.2,642.1,401.1z"/>
	<g class="st10">
		<polygon points="632.9,406.2 635.8,404.6 627.4,388.7 624.7,390.1 		"/>
	</g>
	<path class="st5" d="M638.8,402.9c0.1,0-0.2-0.7-0.8-1.6c-0.4-0.5-0.9-1-1.4-1.4c-0.3-0.2-0.7-0.5-1-0.7c-0.2-0.1-0.4-0.2-0.6-0.3
		c-0.3-0.1-0.7,0.1-0.9,0.4c-0.1,0.3-0.1,0.6,0,0.9c0.1,0.2,0.2,0.4,0.4,0.6c0.3,0.3,0.6,0.6,0.9,0.8c0.5,0.4,1.1,0.8,1.8,1
		c0.6,0.3,1.2,0.4,1.8,0.3c0-0.1-0.7-0.2-1.6-0.7c-0.6-0.3-1.1-0.6-1.6-1c-0.3-0.2-0.5-0.5-0.8-0.8c-0.3-0.3-0.4-0.6-0.3-0.8
		s0.1-0.1,0.2-0.1c0.2,0.1,0.3,0.1,0.5,0.2c0.3,0.2,0.6,0.4,0.9,0.6c0.5,0.4,1,0.8,1.4,1.2C638.3,402.4,638.7,403,638.8,402.9z"/>
	<path class="st5" d="M638.9,402.6c-0.6-0.1-1.3,0.1-1.8,0.4c-0.6,0.3-1.2,0.7-1.7,1.1c-0.3,0.3-0.5,0.6-0.8,0.9
		c-0.3,0.4-0.4,1-0.3,1.5c0.2,0.3,0.5,0.5,0.8,0.4c0.2,0,0.5-0.1,0.7-0.1c1.1-0.4,1.9-1.1,2.4-2.1c0.3-0.5,0.4-1.2,0.3-1.8
		c-0.1,0-0.1,0.7-0.7,1.6c-0.3,0.5-0.8,1-1.3,1.3c-0.3,0.2-0.6,0.4-1,0.5c-0.4,0.1-0.7,0.1-0.8,0c-0.1-0.3,0-0.6,0.2-0.9
		c0.2-0.3,0.4-0.6,0.7-0.9c0.4-0.5,0.9-0.8,1.5-1.2C638.3,402.8,638.9,402.7,638.9,402.6z"/>
	<path class="st2" d="M583,433.6l18.6-3c0,0,9.3,17.9,12.8,17.6l-4.6-36.2l-29.1,3.6L583,433.6z"/>
	<g class="st9">
		<path class="st4" d="M598.5,419.5c0.1-0.8,0.8-1.3,1.5-1.2c0.8,0.1,1.3,0.8,1.2,1.5c-0.1,0.8-0.8,1.4-1.7,1.3
			c-0.8-0.2-1.3-1-1.1-1.7"/>
	</g>
	<g class="st9">
		<path class="st4" d="M609.7,411.9l-2.9,0.5l5.5,34.6c0,0,0.9,1.5,2,1.2L609.7,411.9z"/>
	</g>
	<path class="st5" d="M601.4,431.1c0.2,0,0.2-0.9,0.6-1.9s1.2-1.5,1.1-1.7s-1.1,0.2-1.6,1.4S601.3,431.2,601.4,431.1z"/>
	<path class="st5" d="M603.5,434.7c0.2,0,0.4-0.8,1-1.5s1.4-1,1.4-1.1s-1-0.2-1.9,0.7S603.3,434.8,603.5,434.7z"/>
	<path class="st5" d="M608.3,436.3c0-0.2-0.9-0.3-1.8,0.3s-1.2,1.5-1,1.5s0.6-0.5,1.4-1S608.3,436.5,608.3,436.3z"/>
	<path class="st5" d="M597.1,431.4c0.2-0.1-0.2-0.9-0.2-1.9s0.2-1.8,0-1.9s-0.7,0.8-0.6,1.9S597,431.5,597.1,431.4z"/>
	<g class="st10">
		<polygon points="586.6,433 590,432.4 587.5,414.6 584.5,415 		"/>
	</g>
	<path class="st5" d="M593.4,431.9c0.1-0.6,0-1.2-0.2-1.8c-0.2-0.6-0.5-1.2-0.8-1.8c-0.2-0.3-0.4-0.7-0.7-1
		c-0.1-0.2-0.3-0.4-0.5-0.5c-0.3-0.2-0.7-0.2-1,0c-0.2,0.2-0.3,0.5-0.3,0.8c0,0.2,0.1,0.5,0.2,0.7c0.1,0.4,0.3,0.7,0.5,1.1
		c0.4,0.6,0.8,1.1,1.3,1.5c0.4,0.4,1,0.8,1.6,0.9c0-0.1-0.5-0.4-1.3-1.2c-0.4-0.5-0.8-1-1.1-1.5c-0.2-0.3-0.3-0.7-0.5-1
		c-0.2-0.4-0.2-0.7,0-0.8s0.1,0,0.2,0c0.1,0.1,0.3,0.2,0.4,0.4c0.2,0.3,0.5,0.6,0.7,0.9c0.3,0.5,0.6,1.1,0.9,1.7
		C592.9,430.8,593.1,431.3,593.4,431.9z"/>
	<path class="st5" d="M593.6,431.6c-0.6-0.3-1.2-0.4-1.8-0.2c-0.7,0.1-1.4,0.2-2,0.5c-0.4,0.2-0.7,0.4-1,0.6
		c-0.5,0.3-0.8,0.7-0.8,1.3c0,0.3,0.3,0.6,0.6,0.7c0.2,0.1,0.5,0.1,0.7,0.1c0.4,0,0.8,0,1.2-0.1c0.7-0.2,1.3-0.5,1.8-1
		c0.8-0.8,1-1.6,0.9-1.6s-0.3,0.6-1.2,1.3c-0.5,0.4-1,0.7-1.6,0.8c-0.3,0.1-0.7,0.1-1,0.1c-0.4,0-0.7-0.1-0.7-0.3s0.2-0.5,0.5-0.7
		c0.3-0.2,0.6-0.4,0.9-0.6c0.6-0.3,1.1-0.5,1.8-0.6C592.9,431.6,593.6,431.7,593.6,431.6z"/>
	<path class="st5" d="M506.7,333.4c-0.6,0.2,8.8,9.2,10.3,15.4c1.8,7.4,6.8,15.8,6.8,15.8l34.6,33.2l65.2-9.5l11,20.1L556,429.6
		c-4.2,1.1-8.8,0.3-12.3-2.3L493,389.5l-29.1-36L506.7,333.4z"/>
	<path class="st5" d="M459.1,356.3l4.2,15.4c11.8,24.3,34.2,70.4,40.2,73.4c8.3,4.1,84.2-11,84.2-11l-1.7-20.9l-63.8,5.5l-42.6-74.9
		L459.1,356.3z"/>
	<path class="st8" d="M629.6,409.6c0,0-0.1,0.1-0.4,0.1l-1.3,0.4l-4.9,1.4l-18.2,5.2l-27,7.7l-15.9,4.5c-1.4,0.4-2.8,0.8-4.2,1.2
		c-4.5,1.1-9.1,0.6-13.3-1.5c-1.4-0.7-2.7-1.5-3.9-2.4l-3.5-2.8c-2.3-1.8-4.6-3.7-6.8-5.5c-4.4-3.7-8.7-7.2-12.6-10.8
		c-7.9-7-14.8-13.6-20.4-19.2s-9.9-10.5-12.7-14l-1.9-2.3c-0.5-0.7-0.9-1.3-1.3-1.8l-0.8-1.1c-0.2-0.2-0.2-0.4-0.2-0.4
		s0.1,0.1,0.3,0.4s0.5,0.6,0.8,1.1s0.8,1.1,1.3,1.7l1.9,2.3c2.8,3.4,7.1,8.2,12.8,13.9s12.6,12.2,20.5,19.1c4,3.5,8.2,7.1,12.6,10.7
		c2.2,1.8,4.5,3.6,6.8,5.5l3.5,2.7c1.2,0.9,2.4,1.7,3.8,2.4c4,1.9,8.6,2.4,12.9,1.4c1.4-0.4,2.8-0.8,4.2-1.2l15.9-4.5l27-7.5
		l18.2-5.1l5-1.4l1.3-0.3L629.6,409.6z"/>
	<path class="st8" d="M480.4,357.2c0,0.1-0.4,0.3-0.5,1c0,0.4,0.1,0.7,0.3,1c0.5,0.4,1.2,0.3,1.6-0.2c0.2-0.2,0.2-0.4,0.3-0.7
		c0-0.4-0.2-0.7-0.5-0.9C480.9,357.1,480.5,357.3,480.4,357.2c0-0.1,0.1-0.2,0.4-0.2c0.3-0.1,0.6,0,0.9,0.2c0.4,0.2,0.8,0.7,0.8,1.2
		c0,0.9-0.7,1.6-1.5,1.6c-0.4,0-0.8-0.2-1.1-0.4c-0.3-0.4-0.4-0.9-0.3-1.4c0.1-0.3,0.3-0.6,0.5-0.8
		C480.2,357.2,480.4,357.2,480.4,357.2z"/>
	<path class="st8" d="M513.6,348.2c-0.2,0.2-0.4,0.4-0.6,0.6c-0.6,0.5-1.2,1-1.8,1.4c-2.2,1.4-4.6,2.2-7.1,2.4
		c-2.5,0.2-5.1-0.2-7.4-1.2c-0.7-0.3-1.4-0.7-2-1.1c-0.2-0.1-0.5-0.3-0.7-0.5c0-0.1,1,0.6,2.8,1.3c4.7,1.8,9.9,1.4,14.2-1.1
		C512.7,349,513.5,348.2,513.6,348.2z"/>
	<path class="st8" d="M572.4,292.9c0,0-45.3-17-48.1-19.5s-14.7-16-19.7-17.8c0,0-8.1-2.1-13.6-1.8l-5.8,0.7v-4.4l-23.9,0.4
		l-0.7,5.9l-4.1,1.5c0,0-9.6,20-9.6,29.1s-4.7,62.5,4.6,72.8c1.4,1.6,7,0.6,7,0.6s26.8-2.9,53.5-21.5l-9.8-11.3
		c0,0-3.4-23.6,0.6-40.5c0.1-0.4,0.2-0.7,0.3-1.1c11.5,5.7,29.3,14,34.5,14c0,0,29.2,9.9,34.6,3.5
		C573.1,302.8,572.4,292.9,572.4,292.9z"/>
	<path class="st8" d="M461.3,257.1c0,0-9.4,0.4-15.4,7.9s-16,39.9-16,39.9l-13.6-14l-13,7.2c0,0,18.4,25.6,22,28.6
		c2,1.4,4.3,2.3,6.6,2.8c8.7,0.8,14.6-8.1,16.4-15.5l6-30.1"/>
	<path class="st6" d="M407.2,295.9l-14-8.3c0,0-4.2-10-2.6-10.5s3,5.6,3,5.6l2,1c0,0-2.7-5.1-1.8-5.6s2.3,1,3,2.2
		c0.6,0.9,2.4,4.6,2.4,4.6l0.9-1.3l-0.7-3.4c0,0-1-2.3,0.1-2.3s1.1-0.1,1.9,1.8s1.4,3.3,1.4,3.3s4.1,2.4,5,2.1
		c1.3-0.4,2.8-0.3,4,0.3c0,0,3.9,2,2.9,6.1"/>
	<path class="st5" d="M501.9,258.4c0.1,0-0.3,1-0.8,2.5c-1.2,4.1-1.4,8.3-0.7,12.5c0.3,1.6,0.5,2.6,0.5,2.6
		c-0.4-0.8-0.6-1.6-0.8-2.5c-0.5-2.1-0.6-4.2-0.5-6.4c0.1-2.1,0.5-4.2,1.2-6.3C501,259.9,501.4,259.1,501.9,258.4z"/>
	<path class="st5" d="M464.4,257.1c-0.3-1.1-0.4-2.3-0.2-3.4c0-1.1,0.1-2.3,0.5-3.4c0.1,1.1,0.1,2.3,0,3.4
		C464.7,254.9,464.6,256,464.4,257.1z"/>
	<path class="st5" d="M470,258c-0.1-1.3-0.1-2.6,0.1-3.8c0-1.3,0.2-2.5,0.6-3.8c0.1,1.3,0.1,2.6-0.1,3.8
		C470.5,255.5,470.3,256.8,470,258z"/>
	<path class="st5" d="M477.4,257.8c-0.1,0,0.2-1.7,0.3-3.7s0-3.7,0.2-3.7C478.6,252.8,478.4,255.4,477.4,257.8z"/>
	<path class="st5" d="M482.9,256.4c-0.1,0,0.1-1.4,0-3.1s-0.3-3.1-0.1-3.1c0.5,1,0.7,2,0.6,3.1C483.5,254.3,483.3,255.4,482.9,256.4
		z"/>
	<path class="st5" d="M447.6,269.3c0.1,0,0,13.1-0.3,29.2s-0.7,29.2-0.8,29.2s0-13.1,0.3-29.2S447.5,269.3,447.6,269.3z"/>
	<path class="st11" d="M446.7,300c-0.7-0.3-1.4-0.7-2-1.1c-1.5-1-3.1-1.8-4.8-2.4c-1.7-0.6-3.4-0.9-5.2-0.8
		c-1.4,0.1-2.2,0.5-2.2,0.4c0.6-0.4,1.4-0.7,2.1-0.7c1.8-0.2,3.7,0,5.4,0.6c1.7,0.7,3.3,1.5,4.8,2.6
		C445.6,299,446.2,299.5,446.7,300z"/>
	<path class="st11" d="M501.4,290.8c-0.1,0.1-0.3,0.2-0.5,0.3l-1.4,0.8c-0.6,0.4-1.4,0.8-2.2,1.2s-1.9,1-3,1.4s-2.4,1-3.8,1.5
		s-2.9,1-4.4,1.5c-3.4,1-6.9,1.8-10.4,2.4c-3.5,0.5-7.1,0.8-10.7,0.9c-1.6,0-3.2,0-4.7-0.1s-2.8-0.2-4.1-0.3s-2.3-0.3-3.3-0.5
		s-1.8-0.3-2.5-0.5l-1.6-0.4c-0.2,0-0.4-0.1-0.5-0.1c0.2,0,0.4,0,0.6,0l1.6,0.3c0.7,0.1,1.5,0.3,2.5,0.4s2.1,0.3,3.3,0.4
		s2.6,0.2,4,0.3s3,0.1,4.6,0.1c7.1-0.1,14.2-1.2,21-3.3c1.6-0.5,3-0.9,4.4-1.5s2.6-1,3.8-1.5s2.1-1,3-1.4s1.6-0.8,2.3-1.1l1.4-0.7
		C501,291,501.2,290.9,501.4,290.8z"/>
	<path class="st11" d="M527.7,276.4c0,0.1-0.8,0.6-2,1.7c-1.6,1.4-3,3-4.3,4.7c-1.2,1.7-2.2,3.6-3,5.6c-0.6,1.5-0.8,2.5-0.9,2.5
		c0-0.2,0-0.5,0.1-0.7c0.1-0.6,0.3-1.3,0.5-1.9c1.4-4.1,3.9-7.8,7.3-10.4c0.5-0.4,1-0.8,1.6-1.1
		C527.4,276.4,527.7,276.3,527.7,276.4z"/>
	<path class="st11" d="M532.7,277.9c0,0.1-1,0.5-2.5,1.5c-3.9,2.6-6.9,6.3-8.5,10.6c-0.6,1.7-0.8,2.8-0.9,2.7s0-0.3,0.1-0.8
		c0.1-0.7,0.3-1.4,0.5-2.1c1.5-4.5,4.6-8.4,8.7-10.8c0.6-0.4,1.2-0.7,1.9-1C532.2,278,532.5,277.9,532.7,277.9z"/>
	<path class="st11" d="M501.7,286.7c-0.2,0.1-0.3,0.2-0.5,0.2l-1.5,0.6c-0.6,0.3-1.4,0.6-2.4,0.9s-2,0.7-3.2,1.1
		c-2.4,0.8-5.2,1.5-8.4,2.3s-6.8,1.3-10.5,1.8s-7.4,0.6-10.6,0.7s-6.2-0.1-8.7-0.3c-1.2-0.1-2.3-0.2-3.3-0.3s-1.8-0.2-2.5-0.3
		l-1.6-0.2c-0.2,0-0.4,0-0.6-0.1c0.2,0,0.4,0,0.6,0l1.6,0.1c0.7,0.1,1.5,0.2,2.5,0.2s2.1,0.2,3.3,0.2c2.5,0.2,5.4,0.2,8.7,0.2
		s6.8-0.3,10.6-0.7s7.3-1.1,10.5-1.7s6-1.4,8.4-2.1c1.2-0.3,2.2-0.7,3.2-1s1.7-0.6,2.4-0.8l1.5-0.5
		C501.3,286.8,501.5,286.7,501.7,286.7z"/>
	<path class="st11" d="M447.2,292.4c-1.7-1.1-3.5-2.1-5.3-2.9c-1.9-0.7-3.9-1.2-5.9-1.5c0.6-0.1,1.2-0.1,1.8,0
		c1.5,0.1,2.9,0.5,4.2,1c1.4,0.5,2.6,1.2,3.8,2.1C446.4,291.5,446.8,291.9,447.2,292.4z"/>
	<path class="st6" d="M587.4,289.1l-9.9,3.3l-5,0.4v10.7l5.1,1.8l13.8-0.8c0,0,7.9,4,9.9,3.8s2-0.9,2-0.9l-9.8-5.9
		c1.3-0.3,2.6-0.1,3.8,0.5c2.2,1,6.1,3.3,7.5,2.6s1.1-1.1,1.1-1.1l-7.7-4.8c0,0,6.5,2.9,7.7,2.4c0.6-0.3,1.1-0.8,1.2-1.5l-4.3-3.8
		l-6.4-5L587.4,289.1z"/>
	<path class="st7" d="M581.9,293.5c0.4,0.1,0.7,0.3,1.1,0.5c0.7,0.3,1.6,0.8,2.8,1.4s2.6,1.3,4.2,2.2c0.4,0.2,0.8,0.5,1.1,0.9
		c0.3,0.4,0.5,0.9,0.6,1.4c0.1,0.5-0.1,1.1-0.3,1.6c-0.3,0.5-0.8,0.8-1.4,0.9c-0.7,0.2-1.5,0.2-2.2,0c-0.7-0.2-1.3-0.4-1.9-0.7
		c-1.2-0.5-2.3-1-3.3-1.5l0.3-0.1c-0.6,0.8-1.4,1.4-2.3,1.8c-0.7,0.3-1.5,0.4-2.2,0.4c-0.5,0-1-0.1-1.4-0.2
		c-0.3-0.1-0.5-0.2-0.5-0.2c0.6,0.1,1.3,0.2,1.9,0.2c0.7,0,1.4-0.2,2.1-0.5c0.8-0.4,1.6-1,2.1-1.8l0.1-0.1l0.2,0.1
		c1,0.5,2.1,1,3.3,1.5c0.6,0.3,1.2,0.5,1.8,0.6c0.6,0.1,1.3,0.1,1.9,0c0.4-0.1,0.8-0.3,1.1-0.7c0.2-0.4,0.3-0.8,0.3-1.2
		c-0.1-0.9-0.7-1.6-1.5-2c-1.5-0.9-2.9-1.6-4.1-2.3l-2.8-1.5C582.5,294,582.2,293.7,581.9,293.5z"/>
	<path class="st7" d="M598.7,298.7c-1.6-0.7-3-1.6-4.4-2.7c-0.3-0.2-0.6-0.5-0.9-0.8h0.3c-0.9,0.5-1.8,0.7-2.8,0.8
		c-0.4,0.1-0.8,0-1.1-0.1c0-0.1,0.4-0.1,1.1-0.2c0.9-0.1,1.8-0.4,2.6-0.9l0.2-0.1l0.1,0.1c0.2,0.2,0.5,0.5,0.8,0.7
		C596.1,296.6,597.5,297.6,598.7,298.7z"/>
	<path class="st2" d="M615.6,375.4c-2,0-4-0.3-5.9-0.9c-19-5.7-18-19.4-17.2-30.4c0.7-10.3,0.8-16.7-7.7-19.9
		c-11.2-4.2-15.8-0.1-22.8,6.1c-8.3,7.4-18.7,16.5-43.8,12.8c-13-1.9-34-8.8-59.7-30.6c-9.2-7.7-17.6-16.2-25.3-25.4l3.9-3.1
		c0.4,0.5,38.8,47.8,81.9,54.2c22.8,3.4,31.8-4.6,39.7-11.6c7.1-6.3,13.8-12.2,27.9-7c12.4,4.6,11.6,15.4,10.9,24.9
		c-0.8,11.1-1.5,20.7,13.7,25.3c17.1,5.1,39.6-22,53-38.2c4.8-5.8,8.1-10,10.8-12.1l3.8,3c-1.7,2-6.3,7-10.7,12.3
		C654.3,351.3,634.3,375.4,615.6,375.4z"/>
	<path class="st4" d="M545.1,336c0,0-0.2,0.2-0.6,0.4c-0.6,0.4-1.1,0.7-1.8,1c-2,1-4.1,1.7-6.3,2.2c-2.2,0.4-4.4,0.6-6.6,0.5
		c-0.7,0-1.3-0.1-2-0.2c-0.2,0-0.5-0.1-0.7-0.2c0-0.1,1.1,0,2.7,0c4.4,0,8.7-0.9,12.8-2.6C544.2,336.4,545.1,335.9,545.1,336z"/>
	<path class="st4" d="M574.4,320.9c-0.5,0-1.1,0-1.6-0.1c-2.6,0-5.2,0.8-7.2,2.5c-0.4,0.4-0.8,0.7-1.2,1c0.2-0.5,0.6-1,1-1.3
		c2-1.9,4.7-2.8,7.4-2.6C573.3,320.5,573.9,320.7,574.4,320.9z"/>
	<path class="st4" d="M606.2,368.1c-0.8-0.1-1.5-0.3-2.2-0.7c-3.5-1.6-6.2-4.6-7.6-8.2c-0.3-0.7-0.5-1.5-0.5-2.3
		c0.1,0,0.3,0.9,0.8,2.2c0.7,1.7,1.7,3.3,3,4.6c1.3,1.4,2.7,2.5,4.4,3.4C605.4,367.8,606.3,368.1,606.2,368.1z"/>
	<path class="st4" d="M675.9,321.3c-2.4,2.9-5,5.5-7.9,7.9C670.4,326.3,673,323.7,675.9,321.3z"/>
	<path class="st2" d="M437.6,288.2L437.6,288.2c-2.1,2.3-5.8,2.5-8.1,0.4l-8.8-8l7.7-8.5l8.8,8C439.6,282.2,439.7,285.8,437.6,288.2
		z"/>
	<path class="st5" d="M437.6,288.2c0.3-0.4,0.6-0.9,0.8-1.3c0.6-1.3,0.7-2.8,0.3-4.2c-0.3-1-0.8-1.8-1.6-2.5l-2.6-2.4
		c-1.9-1.7-4-3.6-6.2-5.6h0.3l-3.9,4.3l-3.9,4.2v-0.3l6.1,5.6l2.6,2.4c0.7,0.7,1.6,1.1,2.6,1.4c1.4,0.3,2.9,0.1,4.1-0.7
		C436.8,288.8,437.2,288.5,437.6,288.2c-0.3,0.4-0.7,0.8-1.2,1.1c-1.3,0.8-2.8,1.1-4.3,0.8c-1-0.2-2-0.7-2.8-1.4
		c-0.8-0.7-1.7-1.5-2.6-2.4l-6.2-5.6l-0.2-0.2l0.2-0.2l3.9-4.3l3.9-4.2l0.2-0.2l0.2,0.2l6.1,5.6l2.6,2.4c0.8,0.7,1.3,1.6,1.6,2.6
		c0.4,1.4,0.3,3-0.4,4.3C438.3,287.4,438,287.8,437.6,288.2z"/>
	<path class="st2" d="M393.2,240.1l-15.1-12.5c-1.2-1-1.4-2.7-0.4-3.9c0,0,0,0,0,0l0,0c1-1.2,2.7-1.4,3.9-0.4c0,0,0,0,0,0l15.1,12.5
		L393.2,240.1z"/>
	<path class="st2" d="M379,258.4l-15.1-12.5c-1.2-1-1.4-2.7-0.4-3.9c0,0,0,0,0,0l0,0c1-1.2,2.7-1.4,3.9-0.4c0,0,0,0,0,0l15.1,12.5
		L379,258.4z"/>
	<g class="st9">
		<path class="st4" d="M393.2,240.1l-15.1-12.5c-1.2-1-1.4-2.7-0.4-3.9c0,0,0,0,0,0l0,0c1-1.2,2.7-1.4,3.9-0.4c0,0,0,0,0,0
			l15.1,12.5L393.2,240.1z"/>
	</g>
	<g class="st9">
		<path class="st4" d="M379,258.4l-15.1-12.5c-1.2-1-1.4-2.7-0.4-3.9c0,0,0,0,0,0l0,0c1-1.2,2.7-1.4,3.9-0.4c0,0,0,0,0,0l15.1,12.5
			L379,258.4z"/>
	</g>
	<path class="st5" d="M393.2,240.1c0.1-0.1,0.1-0.2,0.2-0.3l0.7-0.9l2.5-3.2v0.2l-7.1-5.8l-4.5-3.7l-2.4-2l-1.2-1
		c-0.4-0.3-0.8-0.5-1.3-0.6c-0.8-0.1-1.7,0.2-2.2,0.9c-0.5,0.6-0.7,1.5-0.5,2.3c0.1,0.4,0.3,0.7,0.5,1c0.3,0.3,0.6,0.6,0.9,0.8
		l1.9,1.6l6.5,5.4l4.4,3.7l1.2,1c0.2,0.1,0.3,0.3,0.4,0.4c-0.1-0.1-0.3-0.2-0.4-0.3l-1.2-1c-1.1-0.9-2.6-2.1-4.5-3.6l-6.7-5.4
		l-1.9-1.6c-0.4-0.3-0.7-0.6-1-0.9c-1.1-1.2-1.1-3.1,0.2-4.2c0.7-0.6,1.6-0.9,2.5-0.8c0.6,0.1,1.1,0.3,1.6,0.7l1.2,1l2.4,2l4.4,3.7
		l7,5.9l0.1,0.1l-0.1,0.1l-2.7,3.2l-0.7,0.8C393.4,239.9,393.3,240,393.2,240.1z"/>
	<path class="st5" d="M379,258.4c0.1-0.1,0.1-0.2,0.2-0.3c0.2-0.2,0.4-0.5,0.7-0.9l2.5-3.2v0.2l-7.1-5.8l-4.5-3.6l-2.4-2l-1.2-1
		c-0.4-0.3-0.8-0.5-1.3-0.6c-0.8-0.1-1.7,0.2-2.2,0.9c-0.5,0.6-0.7,1.5-0.5,2.3c0.1,0.4,0.3,0.7,0.5,1c0.3,0.3,0.6,0.6,0.9,0.8
		l1.9,1.6l6.5,5.4l4.4,3.7l1.2,1C378.7,258,378.9,258.2,379,258.4c0-0.1-0.2-0.2-0.4-0.4l-1.2-1l-4.5-3.6l-6.6-5.4l-1.9-1.6
		c-0.4-0.3-0.7-0.6-1-0.9c-0.3-0.4-0.5-0.8-0.6-1.2c-0.2-1,0-2,0.6-2.7c0.7-0.8,1.7-1.1,2.7-1c0.6,0.1,1.1,0.3,1.6,0.7
		c0.4,0.4,0.8,0.7,1.2,1l2.4,2l4.4,3.7l7,5.9l0.1,0.1l-0.1,0.1c-1.1,1.3-2,2.4-2.7,3.1l-0.7,0.8C379.1,258.3,379,258.4,379,258.4z"
		/>
	<path class="st2" d="M427.6,256l0.4-0.5c1.9-2.3,1.6-5.6-0.7-7.5c-1.9-1.6-4.8-1.6-6.7-0.1l-22.2-18.5l-25.4,30.3l22.7,18
		c-1.5,2.3-1,5.3,1.1,7l0,0c2.2,1.8,5.5,1.6,7.4-0.6c6.7,5,16.1,3.8,21.3-2.7l3.6-4.5C434.3,270.6,433.6,261.5,427.6,256z"/>
	<path class="st5" d="M427.6,256l0.2,0.2l0.5,0.5c0.3,0.3,0.6,0.6,0.8,0.9l0.5,0.6l0.5,0.7c0.9,1.3,1.6,2.7,2,4.2
		c1.3,4.5,0.5,9.5-2.2,13.3c-0.8,1.1-1.8,2.2-2.7,3.4c-0.9,1.3-2,2.4-3.1,3.5c-2.5,2.4-5.8,3.8-9.3,4.1c-3.8,0.3-7.7-0.8-10.7-3.1
		h0.3c-0.9,1.1-2.2,1.7-3.6,1.9c-1.5,0.2-3-0.3-4.1-1.2l0,0l0,0c-2.2-1.8-2.7-4.9-1.1-7.3l0,0.3l-17.6-14l-5.1-4.1l-0.2-0.1l0.2-0.2
		c9.2-11,17.9-21.3,25.4-30.3l0.1-0.2l0.2,0.1l22.1,18.5h-0.2c2.4-1.9,5.8-1.5,7.7,0.9c0.8,1,1.2,2.2,1.2,3.4c0,1.1-0.4,2.1-1,3
		c-0.2,0.2-0.3,0.4-0.5,0.6L427.6,256c0-0.1,0.2-0.4,0.6-0.9c0.6-0.9,0.9-1.9,0.9-3c0-1.7-0.8-3.3-2.2-4.3c-0.9-0.6-1.9-1-3-1
		c-1.2,0-2.4,0.4-3.3,1.1l-0.1,0.1l-0.1-0.1l-22.2-18.4h0.3l-25.3,30.4v-0.4l5.1,4.1l17.5,14l0.2,0.1l-0.1,0.2c-1.4,2.2-1,5,1,6.7
		l0,0c2.1,1.8,5.3,1.5,7.1-0.6l0.1-0.1l0.2,0.1c5.9,4.4,14.1,4,19.5-1c1.1-1.1,2.1-2.2,3-3.5c0.9-1.2,1.9-2.3,2.7-3.4
		c3.7-5.1,3.8-11.9,0.4-17.2c-0.2-0.3-0.3-0.5-0.5-0.7l-0.5-0.6c-0.2-0.3-0.5-0.6-0.8-0.9l-0.5-0.5C427.7,256,427.6,256,427.6,256z"
		/>
	
		<rect x="391.2" y="241.5" transform="matrix(0.6373 -0.7706 0.7706 0.6373 -51.3118 394.2745)" class="st1" width="4" height="20.3"/>
	<path class="st5" d="M427.6,256c-0.2,0.4-0.5,0.8-0.8,1.2c-0.6,0.8-1.4,1.8-2.4,3.1c-2.1,2.6-5,6.2-8.3,10s-6.2,7.3-8.4,10l-2.5,3
		c-0.3,0.4-0.6,0.7-1,1.1c0.2-0.4,0.5-0.8,0.8-1.2c0.6-0.8,1.4-1.8,2.4-3.1c2.1-2.6,5-6.2,8.3-10l8.4-10l2.5-3
		C426.9,256.7,427.3,256.3,427.6,256z"/>
	<path class="st5" d="M420.6,247.9c-0.3,0.4-0.6,0.9-0.9,1.2c-0.6,0.8-1.5,1.9-2.6,3.3c-2.2,2.7-5.4,6.5-8.9,10.6s-6.6,7.7-9,10.5
		c-1.1,1.3-2,2.4-2.7,3.2c-0.3,0.4-0.7,0.8-1.1,1.1c0.3-0.4,0.6-0.8,0.9-1.2c0.6-0.8,1.5-1.9,2.6-3.3c2.2-2.7,5.4-6.5,8.9-10.6
		l9-10.5l2.7-3.2C419.9,248.6,420.2,248.2,420.6,247.9z"/>
</g>
<g id="freepik--character-1--inject-19">
	<path class="st12" d="M321,167.5c-0.1,0.3-11.2,8.7-11.2,8.7l-0.2,7.1l5.7,0.8l8.1-4.6l5.5-0.3c0,0,3.4,1.8,4,2
		c0.9,0.3,1.8-0.1,2.2-0.9l-5-3.6c0,0,5.5,3.1,6.1,2.7c0.6-0.7,0.5-1.8-0.2-2.4c-0.1-0.1-0.2-0.2-0.4-0.2c0,0,1.7,0.9,2.8,0.2
		s0.7-1.6,0.7-1.6l-7.3-6.6c-0.9-0.8-2.2-1.3-3.4-1.3L321,167.5z"/>
	<path class="st13" d="M321.9,170.6c0,0.3,0,0.6-0.1,0.9c-0.1,0.6-0.2,1.4-0.4,2.3l-0.1-0.2l4.2-0.3c0.9-0.1,1.8,0,2.7,0.4
		c0.5,0.2,0.9,0.6,1.1,1.1c0.3,0.5,0.3,1.1,0.1,1.6v0.1h-0.1c-1.3,0.8-3,0.6-4.5,0.7c-1.1,0-2.2,0.4-3.1,1.1
		c-0.8,0.7-1.6,1.4-2.3,2.2c-0.7,0.8-1.4,1.4-2.3,1.9c-0.8,0.5-1.6,0.7-2.5,0.7c-1.3,0-2.5-0.3-3.7-0.8c-0.4-0.1-0.8-0.3-1.2-0.6
		c0.4,0.1,0.9,0.2,1.3,0.4c1.2,0.4,2.4,0.6,3.6,0.6c0.8,0,1.6-0.3,2.3-0.7c0.8-0.5,1.5-1.2,2.2-1.9c0.7-0.8,1.5-1.6,2.3-2.3
		c1-0.8,2.1-1.2,3.4-1.2c1.5-0.1,3.1,0.1,4.2-0.6l-0.1,0.1c0.3-0.8-0.1-1.7-0.9-2.1c-0.8-0.3-1.6-0.4-2.5-0.4l-4.2,0.2h-0.2v-0.2
		c0.2-0.9,0.4-1.7,0.5-2.3C321.7,171.1,321.8,170.8,321.9,170.6z"/>
	<path class="st13" d="M336,176.8c-0.7-0.2-1.3-0.6-1.9-1.1c-1.1-0.8-2.3-2.3-3.9-3.4c-0.4-0.3-0.8-0.5-1.2-0.5
		c-0.4-0.1-0.9,0-1.4,0h-2.4c-0.7,0-1.4,0-2.2-0.1c0.7-0.2,1.4-0.2,2.2-0.2l2.3-0.1c0.5,0,0.9,0,1.4,0c0.5,0.1,1,0.3,1.5,0.6
		c1.3,1.1,2.6,2.3,3.8,3.6C335.4,176.3,336.1,176.7,336,176.8z"/>
	<path class="st2" d="M336.6,388.5l-0.3,17.5c0,0,17.7,6.1,18,9.4l-33.9,0.7l-0.7-27.3L336.6,388.5z"/>
	<g class="st9">
		<path class="st4" d="M325.8,404.7c-0.7,0.2-1.1,0.9-0.9,1.6c0.2,0.7,0.9,1.1,1.6,0.9c0.7-0.2,1.2-1,1-1.7
			C327.1,404.9,326.4,404.5,325.8,404.7"/>
	</g>
	<g class="st9">
		<path class="st4" d="M320.3,416v-2.8l32.5,0.4c0,0,1.5,0.6,1.4,1.7L320.3,416z"/>
	</g>
	<path class="st5" d="M336.8,405.8c0,0.2-0.8,0.3-1.6,0.8s-1.2,1.2-1.4,1.2s0.1-1,1.1-1.7S336.9,405.6,336.8,405.8z"/>
	<path class="st5" d="M340.4,407.2c0,0.2-0.7,0.5-1.2,1.2s-0.7,1.5-0.9,1.5s-0.3-0.9,0.4-1.8S340.4,407,340.4,407.2z"/>
	<path class="st5" d="M342.5,411.4c-0.1,0-0.4-0.8,0-1.7s1.2-1.3,1.2-1.2s-0.4,0.6-0.7,1.4S342.7,411.4,342.5,411.4z"/>
	<path class="st5" d="M336.5,401.8c-0.1,0.1-0.8-0.1-1.8,0s-1.7,0.4-1.8,0.2s0.6-0.8,1.7-0.8S336.5,401.6,336.5,401.8z"/>
	<g class="st10">
		<polygon points="336.5,391.9 336.5,395 319.8,395.2 319.7,392.4 		"/>
	</g>
	<path class="st5" d="M336.4,398.3c-0.6,0.1-1.1,0.1-1.7,0c-0.6-0.1-1.2-0.3-1.8-0.5c-0.3-0.1-0.7-0.3-1-0.5
		c-0.2-0.1-0.4-0.2-0.5-0.4c-0.2-0.2-0.3-0.6-0.1-0.9c0.2-0.2,0.4-0.4,0.7-0.4c0.2,0,0.4,0,0.6,0.1c0.4,0.1,0.7,0.2,1.1,0.3
		c0.6,0.2,1.1,0.6,1.6,1c0.8,0.7,1.1,1.3,1,1.4s-0.5-0.5-1.3-1c-0.5-0.3-1-0.6-1.5-0.8c-0.3-0.1-0.7-0.2-1-0.3
		c-0.4-0.1-0.7-0.1-0.8,0.1s0,0.1,0,0.2c0.1,0.1,0.2,0.2,0.4,0.3c0.3,0.2,0.6,0.4,0.9,0.5c0.5,0.3,1.1,0.4,1.7,0.6
		C335.3,398,335.9,398.1,336.4,398.3z"/>
	<path class="st5" d="M336.2,398.5c-0.3-0.5-0.5-1.1-0.5-1.6c0-0.6,0-1.3,0.2-1.9c0.1-0.3,0.2-0.7,0.4-1c0.2-0.5,0.6-0.8,1.1-0.9
		c0.3,0,0.6,0.2,0.7,0.5c0.1,0.2,0.2,0.4,0.2,0.6c0.1,0.4,0.1,0.8,0,1.1c-0.1,0.6-0.3,1.2-0.7,1.8c-0.6,0.9-1.3,1.1-1.3,1
		s0.5-0.4,1-1.3c0.3-0.5,0.5-1,0.5-1.6c0-0.3,0-0.7-0.1-1c-0.1-0.4-0.2-0.6-0.3-0.6s-0.5,0.3-0.6,0.6c-0.2,0.3-0.3,0.6-0.4,0.9
		c-0.2,0.6-0.3,1.1-0.3,1.7C336.1,397.9,336.3,398.5,336.2,398.5z"/>
	<path class="st5" d="M274.8,289.6c0.8,1.2,37.7,39.5,37.7,39.5s-4.6,17.6-2.9,32.9s6.6,39.7,6.6,39.7l26.7-2.1l-7.3-83L306.4,278
		L274.8,289.6z"/>
	<path class="st2" d="M345.8,369.1l3.3,17.2c0,0,18.6,2.4,19.5,5.6l-33.1,7.5l-6.2-26.6L345.8,369.1z"/>
	<g class="st9">
		<path class="st4" d="M338.5,387.2c-0.6,0.4-0.9,1.1-0.6,1.8c0.3,0.6,1.1,0.9,1.7,0.6c0.7-0.4,0.9-1.2,0.6-1.9
			c-0.4-0.6-1.2-0.8-1.9-0.4"/>
	</g>
	<g class="st9">
		<path class="st4" d="M335.5,399.4l-0.5-2.7l31.9-6.2c0,0,1.6,0.3,1.7,1.4L335.5,399.4z"/>
	</g>
	<path class="st5" d="M349.6,386c0,0.2-0.8,0.4-1.4,1.1s-0.9,1.5-1.1,1.5s-0.1-1,0.7-1.9S349.6,385.9,349.6,386z"/>
	<path class="st5" d="M353.4,386.7c0.1,0.1-0.6,0.6-1,1.4s-0.4,1.6-0.5,1.6s-0.5-0.9,0-1.9S353.3,386.5,353.4,386.7z"/>
	<path class="st5" d="M356.3,390.4c-0.1,0.1-0.5-0.7-0.3-1.7s0.9-1.5,1-1.4s-0.3,0.7-0.4,1.5S356.4,390.3,356.3,390.4z"/>
	<path class="st5" d="M348.4,382.2c0,0.2-0.8,0.1-1.7,0.4s-1.5,0.7-1.7,0.6s0.4-0.9,1.5-1.2S348.4,382,348.4,382.2z"/>
	<g class="st10">
		<polygon points="346.4,372.5 347,375.6 330.7,379.2 330.1,376.4 		"/>
	</g>
	<path class="st5" d="M347.7,378.7c-0.5,0.3-1.1,0.4-1.7,0.4c-1,0-2-0.1-2.9-0.4c-0.2-0.1-0.4-0.2-0.6-0.3c-0.3-0.2-0.4-0.5-0.3-0.8
		c0.1-0.3,0.3-0.5,0.6-0.5c0.2-0.1,0.4-0.1,0.6-0.1c0.4,0,0.7,0,1.1,0.1c0.6,0.1,1.2,0.3,1.8,0.6c0.9,0.5,1.3,1.1,1.3,1.1
		s-0.5-0.4-1.5-0.8c-0.5-0.2-1.1-0.4-1.7-0.5c-0.3-0.1-0.7-0.1-1-0.1c-0.4,0-0.7,0-0.7,0.2s0,0.1,0.1,0.2c0.1,0.1,0.3,0.2,0.4,0.2
		c0.3,0.1,0.7,0.2,1,0.3c0.6,0.1,1.2,0.2,1.7,0.2C346.6,378.7,347.1,378.7,347.7,378.7z"/>
	<path class="st5" d="M347.5,379c-0.1,0-0.5-0.5-0.8-1.5c-0.2-0.6-0.2-1.2-0.2-1.9c0-0.4,0.1-0.7,0.2-1.1c0.1-0.5,0.4-0.9,0.9-1.1
		c0.3-0.1,0.6,0.1,0.8,0.3c0.1,0.2,0.2,0.4,0.3,0.6c0.1,0.4,0.2,0.7,0.3,1.1c0,0.6-0.1,1.3-0.3,1.9c-0.5,1-1.1,1.4-1.1,1.3
		c0.3-0.5,0.5-1,0.7-1.5c0.2-0.5,0.2-1.1,0.2-1.7c0-0.3-0.1-0.6-0.2-1c-0.1-0.3-0.3-0.6-0.5-0.5s-0.4,0.4-0.5,0.7
		c-0.3,0.9-0.3,1.8-0.1,2.7C347.3,378.4,347.6,379,347.5,379z"/>
	<path class="st5" d="M208.9,263.4c0,0-2.5,15.8,7.1,26.1s19.9,14.9,38.1,14.1s57.5,0.1,57.5,0.1s1.7,21,6.2,38.2s13.6,43,13.6,43
		l17.8-1.7c0,0-4.8-93.6-6-101.9s-15-12.5-22.5-14.9s-50.2-11.1-50.2-11.1l-38.8-5.4L208.9,263.4z"/>
	<path class="st8" d="M349.2,383.2h-0.3l-0.9,0.1l-3.6,0.3l-13.6,0.9h-0.1v-0.1c-2.4-7.7-5.5-17.6-9.1-29.1
		c-1.8-5.8-3.7-11.9-5.7-18.3c-1-3.2-2.1-6.5-2.8-9.9c-0.8-3.5-1.3-7-1.5-10.6c-0.3-4.2-0.1-8.4,0.7-12.5l0.2,0.3
		c-10.9-0.2-21.1-0.3-30.3-0.4c-4.6,0-9,0-13,0.1s-7.8,0.2-11.3,0.2c-6.9,0-12.4-0.4-16.2-0.7c-1.9-0.2-3.4-0.3-4.3-0.4l-1.1-0.1
		l-0.4-0.1c0.1,0,0.3,0,0.4,0l1.1,0.1l4.4,0.4c3.8,0.3,9.3,0.6,16.2,0.5c3.4,0,7.2-0.2,11.3-0.3s8.4-0.1,13-0.1
		c9.2,0,19.5,0.1,30.3,0.3h0.3l-0.1,0.3c-0.7,4.1-0.9,8.2-0.6,12.4c0.2,3.5,0.7,7.1,1.5,10.5c0.7,3.4,1.8,6.7,2.8,9.9
		c2,6.4,3.9,12.6,5.6,18.3c3.5,11.5,6.6,21.5,9,29.1l-0.1-0.1l13.6-0.8l3.6-0.2h0.9C349.1,383.1,349.2,383.1,349.2,383.2z"/>
	<path class="st8" d="M321,293c0.1,0.1-2.1,2.2-4.4,5.2s-3.7,5.7-3.8,5.7c0.2-0.7,0.5-1.3,0.8-1.9c0.8-1.4,1.6-2.8,2.6-4.1
		c1-1.3,2-2.5,3.2-3.7C319.9,293.8,320.4,293.3,321,293z"/>
	<path class="st8" d="M325.8,294.7c-2.4,1-4.8,2.2-7,3.6c-2.1,1.6-4.1,3.4-5.8,5.3c0.4-0.7,0.8-1.3,1.4-1.9c2.5-2.9,5.7-5.1,9.3-6.4
		C324.3,295,325.1,294.8,325.8,294.7z"/>
	<path class="st8" d="M246.4,168.5c1.3,0.6,28.6,17.4,29.9,17.4s33.6-11.8,33.6-11.8l6.6,10.2c0,0-28.3,21.8-37.6,22.1
		s-24-7.1-24-7.1L246.4,168.5z"/>
	<path class="st8" d="M189.6,177.7c0,0-34,34.6-33.6,43.3s4.6,13.6,7.3,14.8c3.8,1.6,46.3-3.6,46.3-3.6l2.5-16.6
		c-7-1.4-15.9-2.4-25.5-3.4c4.3-4.5,9.1-7.9,15-8.9l10.2-11.1C211.9,192.2,199.2,175.5,189.6,177.7z"/>
	<path class="st8" d="M187.8,188c0,0-1.6-7.5,2-10.4c6-5,11.1-7.3,15.5-9.4c5-2.5,10.3-5.4,10.3-5.4l30.9,5.7
		c0,0,16.5,26.3,16.1,32.8c-0.2,3.9-1.8,7.6-4.5,10.5c-1.2,7.1-0.4,14.4,2.2,21.1c3.7,9.2,10.2,22.4,10.2,22.4s-35.4-5.7-52.1,2.5
		c-9,4.4-9.8,11.4-9.8,11.4l-1.3-38.5l0,0l-6.9-23.6L187.8,188z"/>
	<path class="st5" d="M211.2,215.4c0,0-0.2-0.1-0.5-0.1s-0.8-0.1-1.4-0.2c-1.2-0.2-2.9-0.4-5.1-0.6c-4.3-0.5-10.2-1.1-16.8-1.7
		l-1.1-0.1l-0.6-0.1l0.5-0.4c2.5-2,4.8-3.8,7-5.5c2-1.4,4.3-2.4,6.6-2.9c1.6-0.3,3.2-0.4,4.9-0.3c0.4,0,0.9,0.1,1.3,0.2
		c0.2,0,0.3,0.1,0.4,0.1c-2.2-0.2-4.4-0.1-6.6,0.4c-2.3,0.5-4.5,1.6-6.4,3l-7,5.6l-0.1-0.4l1.1,0.1c6.6,0.6,12.5,1.3,16.8,1.9
		S211.2,215.1,211.2,215.4z"/>
	<path class="st5" d="M174.7,213c0.4-0.5,0.8-0.9,1.4-1.2c1.3-0.8,2.7-1.3,4.2-1.4c1.5-0.1,3,0.2,4.4,0.9c0.6,0.2,1.1,0.6,1.5,1.1
		c-0.1,0.1-0.6-0.3-1.6-0.8c-1.3-0.5-2.8-0.8-4.2-0.7c-1.4,0.1-2.8,0.5-4.1,1.2C175.2,212.6,174.7,213,174.7,213z"/>
	<path class="st5" d="M207,191.9c-0.1,0-0.4-1.3-1.1-3.2c-0.9-2.6-2.3-4.9-4.1-7c-1-1.1-2.2-2-3.5-2.8l-0.9-0.4
		c-0.3-0.1-0.6-0.2-0.9-0.3c-0.5-0.2-1.1-0.3-1.6-0.4c-0.8-0.1-1.6-0.2-2.5-0.2c-0.3,0-0.6,0-0.9,0c0.3-0.1,0.6-0.1,0.9-0.1
		c1.4-0.2,2.9,0,4.3,0.4c0.3,0.1,0.6,0.2,0.9,0.3l1,0.4c1.4,0.7,2.6,1.7,3.6,2.8c1.8,2.1,3.2,4.6,4.1,7.2c0.3,0.8,0.5,1.6,0.7,2.4
		C207,191.3,207,191.6,207,191.9z"/>
	<path class="st5" d="M257.1,212.8c0,0,0.4-0.5,1.1-1.3c1-1.2,1.7-2.6,2.3-4c0.8-2.1,1.3-4.4,1.2-6.7c-0.1-2.8-0.9-5.6-2.5-7.9
		c-1.6-2.4-3.3-4.6-5.2-6.7c-1.5-1.8-2.9-3.7-3.9-5.8c-0.7-1.4-1.2-2.9-1.4-4.5c-0.1-0.4-0.1-0.9-0.1-1.3c0-0.1,0-0.3,0-0.4
		c0,0,0,0.6,0.2,1.7c0.3,1.5,0.8,3,1.6,4.4c1.1,2,2.5,3.9,4,5.6c1.9,2.1,3.7,4.4,5.2,6.8c1.6,2.5,2.4,5.3,2.5,8.2
		c0.1,2.4-0.4,4.7-1.3,6.9c-0.6,1.5-1.4,2.8-2.5,4c-0.3,0.3-0.6,0.6-0.9,0.9C257.4,212.6,257.2,212.7,257.1,212.8z"/>
	<g class="st10">
		<path d="M203.4,214c-0.7-2.3,0.6-4.8,2.8-5.6c1.2-0.3,2.5-0.4,3.7-0.5c0.8-0.1,1.6-0.5,1.8-1.3c0.2-1-0.8-1.7-1.7-2.1
			c-3.7-1.6-7.9-1.7-11.7-0.3c2.1,2.8,3.4,6.2,3.6,9.7"/>
	</g>
	<g class="st10">
		<path d="M250.1,179.8c-1.6-3.2,4.2,5.8,6.9,8.1c2.8,2.2,5.4,4.7,7.8,7.4c2.2,2.8,3.9,5.9,3.6,9.4l-6.4-2.3c0,0,0.8-5.2-2-9
			S250.8,181,250.1,179.8z"/>
	</g>
	<g class="st10">
		<path d="M186.2,212c-1.8-1.9-4.5-2.7-7.1-3c-1.6-0.2-3.2-0.1-4.7,0.3c-1.5,0.5-2.8,1.6-3.3,3.2c-0.2,0.5-0.1,1,0.1,1.4
			c0.4,0.4,0.9,0.5,1.5,0.3c0.5-0.2,1-0.5,1.4-0.8c3.5-2.5,8-3,12-1.3"/>
	</g>
	<path class="st5" d="M196.7,187.5c0,1.2-0.9,2.1-2.1,2.1c-1.2,0-2.1-0.9-2.1-2.1c0-1.2,0.9-2.1,2.1-2.1c0,0,0,0,0,0
		C195.8,185.3,196.7,186.3,196.7,187.5C196.7,187.5,196.7,187.5,196.7,187.5z"/>
	<path class="st5" d="M208.1,173.5c0,1.2-0.9,2.1-2.1,2.1s-2.1-0.9-2.1-2.1c0-1.2,0.9-2.1,2.1-2.1S208.1,172.4,208.1,173.5
		L208.1,173.5z"/>
	<path class="st5" d="M230.1,174.4c0,1.2-0.9,2.1-2.1,2.1s-2.1-0.9-2.1-2.1c0-1.2,0.9-2.1,2.1-2.1c0,0,0,0,0,0
		C229.2,172.3,230.1,173.2,230.1,174.4L230.1,174.4z"/>
	<path class="st5" d="M247.2,173.1c0,1.2-0.9,2.1-2.1,2.1s-2.1-0.9-2.1-2.1c0-1.2,0.9-2.1,2.1-2.1S247.2,171.9,247.2,173.1
		L247.2,173.1z"/>
	<path class="st5" d="M275.4,198.1c0,1.2-0.9,2.1-2.1,2.1c-1.2,0-2.1-0.9-2.1-2.1c0-1.2,0.9-2.1,2.1-2.1c0,0,0,0,0,0
		C274.4,195.9,275.4,196.9,275.4,198.1C275.4,198,275.4,198,275.4,198.1z"/>
	<path class="st5" d="M258.2,195.9c0,1.2-0.9,2.1-2.1,2.1c-1.2,0-2.1-0.9-2.1-2.1s0.9-2.1,2.1-2.1c0,0,0,0,0,0
		C257.2,193.8,258.2,194.8,258.2,195.9C258.2,195.9,258.2,195.9,258.2,195.9z"/>
	<path class="st5" d="M261.8,181.9c0,1.2-0.9,2.1-2.1,2.1c-1.2,0-2.1-0.9-2.1-2.1c0-1.2,0.9-2.1,2.1-2.1c0,0,0,0,0,0
		C260.9,179.8,261.8,180.8,261.8,181.9C261.8,181.9,261.8,181.9,261.8,181.9z"/>
	<circle class="st5" cx="285.5" cy="187.7" r="2.1"/>
	<path class="st5" d="M302.2,189.6c0,1.2-0.9,2.1-2.1,2.1s-2.1-0.9-2.1-2.1c0-1.2,0.9-2.1,2.1-2.1c0,0,0,0,0,0
		C301.2,187.5,302.2,188.4,302.2,189.6z"/>
	<path class="st5" d="M249.4,212.1c0,1.2-0.9,2.1-2.1,2.1c-1.2,0-2.1-0.9-2.1-2.1s0.9-2.1,2.1-2.1c0,0,0,0,0,0
		C248.4,210,249.4,210.9,249.4,212.1C249.4,212.1,249.4,212.1,249.4,212.1z"/>
	<path class="st5" d="M257,224.1c0,1.2-0.9,2.1-2.1,2.1c-1.2,0-2.1-0.9-2.1-2.1s0.9-2.1,2.1-2.1c0,0,0,0,0,0
		C256,222,257,222.9,257,224.1C257,224.1,257,224.1,257,224.1z"/>
	<path class="st5" d="M241.3,232.1c0,1.2-0.9,2.1-2.1,2.1c-1.2,0-2.1-0.9-2.1-2.1c0-1.2,0.9-2.1,2.1-2.1c0,0,0,0,0,0
		C240.3,230,241.3,230.9,241.3,232.1C241.3,232.1,241.3,232.1,241.3,232.1z"/>
	<path class="st5" d="M231.1,245.3c0,1.2-0.9,2.1-2.1,2.1s-2.1-0.9-2.1-2.1c0-1.2,0.9-2.1,2.1-2.1c0,0,0,0,0,0
		C230.2,243.2,231.1,244.2,231.1,245.3L231.1,245.3z"/>
	<path class="st5" d="M256.1,243.1c0,1.2-0.9,2.1-2.1,2.1c-1.2,0-2.1-0.9-2.1-2.1c0-1.2,0.9-2.1,2.1-2.1c0,0,0,0,0.1,0
		C255.1,241,256.1,242,256.1,243.1z"/>
	<path class="st5" d="M215.2,255c0,1.2-0.9,2.1-2.1,2.1c-1.2,0-2.1-0.9-2.1-2.1s0.9-2.1,2.1-2.1c0,0,0,0,0,0
		C214.3,252.9,215.2,253.8,215.2,255C215.2,255,215.2,255,215.2,255z"/>
	<path class="st5" d="M224,222c0,1.2-0.9,2.1-2.1,2.1c-1.2,0-2.1-0.9-2.1-2.1c0-1.2,0.9-2.1,2.1-2.1c0,0,0,0,0,0
		C223.1,219.9,224,220.8,224,222C224,222,224,222,224,222z"/>
	<path class="st5" d="M216.9,237.3c0,1.2-0.9,2.1-2.1,2.1s-2.1-0.9-2.1-2.1c0-1.2,0.9-2.1,2.1-2.1S216.9,236.2,216.9,237.3
		L216.9,237.3z"/>
	<path class="st5" d="M242.6,190.4c0,1.2-0.9,2.1-2.1,2.1c-1.2,0-2.1-0.9-2.1-2.1c0-1.2,0.9-2.1,2.1-2.1c0,0,0,0,0,0
		C241.7,188.3,242.6,189.2,242.6,190.4C242.6,190.4,242.6,190.4,242.6,190.4z"/>
	<path class="st5" d="M229.5,207.2c0,1.2-0.9,2.1-2.1,2.1s-2.1-0.9-2.1-2.1c0-1.2,0.9-2.1,2.1-2.1
		C228.5,205.1,229.5,206,229.5,207.2C229.5,207.2,229.5,207.2,229.5,207.2z"/>
	<path class="st5" d="M216.9,193.8c0,1.2-0.9,2.1-2.1,2.1s-2.1-0.9-2.1-2.1c0-1.2,0.9-2.1,2.1-2.1S216.9,192.7,216.9,193.8
		L216.9,193.8z"/>
	<path class="st5" d="M165,226.4c0,1.2-0.9,2.1-2.1,2.1c-1.2,0-2.1-0.9-2.1-2.1s0.9-2.1,2.1-2.1c0,0,0,0,0,0
		C164,224.3,165,225.3,165,226.4z"/>
	<path class="st5" d="M174.8,199.8c0,1.2-0.9,2.1-2.1,2.1c-1.2,0-2.1-0.9-2.1-2.1c0-1.2,0.9-2.1,2.1-2.1c0,0,0,0,0,0
		C173.8,197.7,174.8,198.6,174.8,199.8C174.8,199.8,174.8,199.8,174.8,199.8z"/>
	<path class="st5" d="M193.5,229.4c0,1.2-0.9,2.1-2.1,2.1c-1.2,0-2.1-0.9-2.1-2.1s0.9-2.1,2.1-2.1c0,0,0,0,0,0
		C192.5,227.3,193.5,228.2,193.5,229.4z"/>
	<path class="st5" d="M206.3,219.6c0,1.2-0.9,2.1-2.1,2.1s-2.1-0.9-2.1-2.1c0-1.2,0.9-2.1,2.1-2.1c0,0,0,0,0,0
		C205.4,217.5,206.3,218.4,206.3,219.6z"/>
	<path class="st5" d="M180.7,217.3c0,1.2-0.9,2.1-2.1,2.1c-1.2,0-2.1-0.9-2.1-2.1c0-1.2,0.9-2.1,2.1-2.1c0,0,0,0,0,0
		C179.8,215.2,180.7,216.1,180.7,217.3C180.7,217.3,180.7,217.3,180.7,217.3z"/>
	<path class="st5" d="M191.6,203.4c0,1.2-0.9,2.1-2.1,2.1c-1.2,0-2.1-0.9-2.1-2.1c0-1.2,0.9-2.1,2.1-2.1c0,0,0,0,0,0
		C190.7,201.3,191.6,202.2,191.6,203.4C191.7,203.4,191.7,203.4,191.6,203.4z"/>
	<path class="st2" d="M182.8,324.9c-4.3,0-8.7-0.5-12.9-1.4c-8.8-1.9-15.7-4.8-21-8.7c-6.6,2.3-13.5,3.5-20.4,3.7
		c-22.7,0.6-43.2-6.5-68.4-26.9c-1.3-2.7-2.5-5.6-3.7-8.6c24.2,19.6,50.5,31,71.9,30.5c5.5-0.1,10.9-1,16.2-2.6
		c-5.9-6.1-8.8-14.1-8.8-23.8c0-10.6,4.6-15.4,8.3-17.6c5.4-3.1,12.7-2.6,19.1,1.1c7.1,4.1,11.3,11.1,11.3,18.7
		c-0.1,6.3-3.1,12.2-8.1,16c-3.7,2.8-7.7,5.2-11.9,7.1c12.1,6.6,26.1,8.8,39.6,6.2c21.3-4.2,39.1-11.8,52.9-22.5
		c21.9-16.8,34.4-43.2,33.5-70.8v-0.1c-1.2-24.6-15.6-48.7-36.7-61.4c-18.3-10.9-41.7-13.9-65.9-8.4c-15.1,3.4-35.5,11.5-47.6,30.8
		c-13,20.7-9.5,46.4,1.2,58.4c7.6,8.5,22.3,5.4,34.1,3l3.9-0.8c12.7-2.5,64.1-26.6,64.3-26.7l1.1,4.1c-0.8,0.3-51.4,24.9-64.4,27.5
		c-1.2,0.2-2.5,0.5-3.8,0.8c-13,2.7-29.3,6.1-38.8-4.5c-6.9-7.7-10.8-18.9-10.8-31.4c-0.1-11.6,3.1-23,9.1-33
		c13-20.7,34.8-29.3,50.7-33c25.5-5.8,50.2-2.6,69.5,9c22.4,13.5,37.7,39.2,39.1,65.4c0.1,1.3,1.5,20.5-8.8,42.1
		c-6.1,13-15.3,24.3-26.7,33c-14.4,11.2-32.9,19-55,23.4C190.9,324.5,186.9,324.9,182.8,324.9z M152.1,272.6c-1.9,0-3.9,0.4-5.6,1.4
		c-3.8,2.2-5.8,6.8-5.8,13.3c0,9.3,2.9,16.5,9,21.9c4.9-1.9,9.4-4.5,13.6-7.7c3.8-2.9,6-7.3,6.1-12c0-5.8-3.3-11.1-8.8-14.4
		C158,273.5,155.1,272.7,152.1,272.6z"/>
	<path class="st5" d="M152.8,317.4c-0.7-0.2-1.3-0.5-1.9-0.9c-1.4-0.9-2.8-1.9-4.1-3c-1.3-1.1-2.5-2.2-3.6-3.5
		c-0.5-0.5-0.9-1.1-1.2-1.7c0.1,0,0.5,0.6,1.4,1.5s2.2,2.1,3.7,3.4s2.9,2.3,3.9,3.1C151.7,316.6,152.3,317,152.8,317.4z"/>
	<path class="st5" d="M158.1,314.5c-0.8,0-1.5-0.2-2.2-0.6c-1.7-0.7-3.4-1.7-4.8-2.9c-1.5-1.2-2.8-2.5-3.9-4c-0.5-0.6-0.9-1.3-1.2-2
		c0.1,0,0.6,0.7,1.5,1.8c1.2,1.4,2.6,2.7,4,3.8c1.4,1.2,3,2.1,4.6,2.9C157.2,314.2,158.1,314.4,158.1,314.5z"/>
	<path class="st4" d="M138.1,297.3c-0.2-0.2-0.3-0.5-0.3-0.8c-0.2-0.8-0.4-1.5-0.6-2.3c-1-5.2-0.6-10.5,1.1-15.4
		c0.3-0.7,0.6-1.5,0.9-2.2c0.1-0.3,0.2-0.5,0.4-0.8c0.1,0-0.4,1.2-1,3.1c-0.7,2.5-1.2,5-1.4,7.6c-0.2,2.6-0.1,5.1,0.3,7.7
		C137.9,296.1,138.2,297.2,138.1,297.3z"/>
	<path class="st4" d="M125.7,315.2c-0.8,0.3-1.6,0.4-2.4,0.4c-3.9,0.3-7.9-0.2-11.6-1.6c-0.8-0.3-1.5-0.6-2.2-1.1
		c0.8,0.2,1.6,0.4,2.3,0.7c1.8,0.6,3.7,1,5.7,1.3c1.9,0.3,3.9,0.4,5.8,0.3C124,315.2,124.8,315.1,125.7,315.2z"/>
	<path class="st4" d="M263.5,282c-0.4,0.8-0.9,1.5-1.5,2.2c-2.6,3.4-5.5,6.4-8.8,9c-0.7,0.6-1.4,1.1-2.1,1.5
		c0.6-0.6,1.2-1.2,1.9-1.7c1.2-1.1,2.8-2.6,4.5-4.3c1.7-1.8,3.2-3.4,4.2-4.7C262.3,283.3,262.9,282.6,263.5,282z"/>
	<path class="st4" d="M120.9,231.1c-0.2-0.4-0.4-0.9-0.5-1.3c-0.4-1.2-0.7-2.5-1-3.7c-0.4-1.9-0.8-3.8-1-5.7
		c-0.5-4.7-0.4-9.4,0.4-14.1c0.3-1.9,0.7-3.8,1.3-5.6c0.4-1.2,0.8-2.5,1.2-3.7c0.1-0.5,0.3-0.9,0.6-1.3c-0.1,0.5-0.2,0.9-0.4,1.4
		c-0.3,0.9-0.7,2.1-1.1,3.7c-0.5,1.8-0.9,3.7-1.2,5.6c-0.3,2.3-0.6,4.7-0.6,7c-0.1,2.3,0,4.7,0.3,7c0.2,1.9,0.5,3.8,0.9,5.6
		c0.3,1.6,0.6,2.9,0.9,3.7C120.7,230.2,120.8,230.6,120.9,231.1z"/>
	<path class="st4" d="M126.9,186.2c-0.2,1-0.7,1.9-1.2,2.7c-0.4,0.9-1,1.7-1.7,2.4c0.3-1,0.7-1.9,1.2-2.7
		C125.7,187.7,126.3,186.9,126.9,186.2z"/>
	<path class="st5" d="M248,142.1c-1.2,1.9-0.2,4.4,1.2,6.2s3,3.5,3.3,5.8c0.4,3.1-2.2,5.7-5,7c-0.9,0.3-1.7,0.8-2.4,1.5
		c-0.8,1.1-0.5,2.6-0.5,3.9c0,2.3-1.3,4.4-3.3,5.6c-2.1,1.1-4.6,0.7-6.3-1c-0.8-1-1.4-2.3-1.6-3.6c-1.1-5,0.2-10.3,3.6-14.2
		c1.7-1.9,3.8-3.3,5.7-5s3.5-3.9,3.6-6.4"/>
	<path class="st5" d="M247.7,119.3c-1.4-3.6-5-5.8-8.7-7.1c-5.2-2-11-2.1-16.2-0.3c-7.6,2.8-12.7,9.9-16.7,16.9
		c-1.7,3.1-3.6,6.5-7,7.6c-1.8,0.5-3.7,0.3-5.6,0.5c-2.9,0.3-5.6,1.8-7.5,4c-2.2,2.7-3.4,6.6-6.6,8.1c-2.1,0.9-4.5,0.5-6.7,0.6
		c-4.7,0.1-9.7,3-10.8,7.6c-0.7,3,0.4,6.4-1,9.1c-0.5,1-1.3,1.8-1.8,2.9c-1.2,2.6-0.1,5.7,2.5,6.9c1.6,0.8,3.6,0.6,5.1-0.4
		c0.6-0.5,1.3-1,2.1-1.4c1.6-0.7,3.5,0.2,4.9,1.3s2.8,2.4,4.6,2.6c3.6,0.4,6.4-4,10.1-3.7c2,0.1,3.6,1.7,5.4,2.7
		c3.1,1.8,4.6,0.2,7.2-2.3s4,7.9,10,5.2c5.6-2.5,0.1-12.1,2.1-11.9s7.4-0.1,8.5-1.8"/>
	<path class="st5" d="M248.4,130c1.5-4.1,0.9-8.7-1.6-12.3c-2-2.6-4.6-4.6-7.6-5.8c-4-1.8-8.5-2.3-12.8-1.2
		c-4.2,1.2-7.9,4.6-8.8,8.8c-0.4,1.9-0.3,4-1.1,5.8c-0.5,0.7-0.8,1.5-0.8,2.4c0.2,0.8,0.8,1.4,1.6,1.5c0.8,0.1,1.6,0.1,2.3-0.2
		c2.5-0.9,4.9-2.2,7-3.9"/>
	<path class="st12" d="M234.4,167.7c0.5-3.7,0.6-5.2,0.6-5.2s7.9-0.4,10.7-10.4c1.4-5,2.1-13.3,2.4-20.1c0.3-6.1-2.9-14.1-9-14.1
		l-19.5,2.6c-1.9,0-3.4,1.4-3.6,3.3l-3.1,44.4c0,0,8.8,10.4,16.4,9S234.4,167.7,234.4,167.7z"/>
	<path class="st5" d="M244.9,138.9c-0.1,0.7-0.7,1.2-1.4,1.2c-0.7,0-1.2-0.6-1.2-1.3c0,0,0,0,0,0c0.1-0.7,0.7-1.2,1.4-1.2
		C244.4,137.6,245,138.2,244.9,138.9C244.9,138.9,244.9,138.9,244.9,138.9z"/>
	<path class="st5" d="M245.9,136.2c-0.2,0.1-1.1-0.7-2.5-0.9s-2.5,0.4-2.6,0.2s0.1-0.4,0.6-0.6c0.7-0.3,1.4-0.5,2.1-0.4
		c0.7,0.1,1.4,0.4,1.9,0.9C245.9,135.8,246,136.1,245.9,136.2z"/>
	<path class="st5" d="M232.1,137.6c-0.1,0.7-0.7,1.2-1.4,1.2c-0.7,0-1.2-0.6-1.2-1.3c0,0,0,0,0,0c0.1-0.7,0.7-1.2,1.4-1.2
		C231.6,136.3,232.2,136.8,232.1,137.6C232.1,137.5,232.1,137.6,232.1,137.6z"/>
	<path class="st5" d="M232.1,134.9c-0.2,0.2-1.1-0.7-2.5-0.8s-2.5,0.4-2.6,0.2s0.1-0.4,0.6-0.6c0.7-0.3,1.4-0.5,2.1-0.4
		c0.7,0.1,1.4,0.4,2,0.9C232.1,134.5,232.2,134.8,232.1,134.9z"/>
	<path class="st5" d="M236,145.8c0.8-0.2,1.5-0.2,2.3-0.2c0.4,0,0.7,0,0.8-0.3c0.1-0.4,0-0.7-0.1-1.1c-0.2-0.9-0.5-1.9-0.8-2.9
		c-0.7-2.4-1.2-4.9-1.6-7.4c0.2,0,1.1,3.2,2.2,7.2c0.2,1,0.5,1.9,0.7,2.9c0.2,0.5,0.2,1,0,1.4c-0.1,0.2-0.4,0.4-0.6,0.5
		c-0.2,0-0.4,0-0.6,0C237.5,146.1,236.8,146,236,145.8z"/>
	<path class="st13" d="M235.1,162.5c-4.8-0.5-9.4-2.3-13.2-5.2c0,0,2.6,7.4,12.9,7.6L235.1,162.5z"/>
	<path class="st13" d="M235,149.1c-0.5-0.7-1.3-1.2-2.1-1.2c-0.6,0-1.2,0.2-1.7,0.7c-0.4,0.4-0.6,1.1-0.3,1.6
		c0.4,0.6,1.1,0.8,1.8,0.7c0.7-0.2,1.3-0.5,1.9-0.9c0.2-0.1,0.3-0.2,0.4-0.4C235.1,149.6,235.1,149.4,235,149.1"/>
	<path class="st5" d="M232.8,129.8c-0.2,0.4-1.6,0-3.2,0s-3,0.3-3.2-0.1c-0.1-0.2,0.2-0.5,0.8-0.8c1.6-0.8,3.4-0.8,4.9,0
		C232.6,129.3,232.8,129.6,232.8,129.8z"/>
	<path class="st5" d="M246.2,130c-0.3,0.3-1.2-0.1-2.4-0.3s-2.2,0-2.4-0.4c-0.1-0.2,0.1-0.5,0.6-0.7c1.3-0.6,2.8-0.4,3.8,0.6
		C246.2,129.5,246.3,129.9,246.2,130z"/>
	<path class="st12" d="M217,141.2c0.1-0.8-0.6-2.6-1.3-2.8c-2-0.5-5.6-0.8-6.2,4.3c-0.8,6.9,6.3,6.3,6.3,6.1S216.7,143.8,217,141.2z
		"/>
	<path class="st13" d="M214,145.9c0,0-0.1,0.1-0.4,0.1c-0.3,0.1-0.6,0.1-0.9-0.1c-0.8-0.7-1.2-1.8-1.1-2.8c0.1-0.6,0.2-1.2,0.6-1.7
		c0.2-0.4,0.6-0.7,1-0.8c0.3,0,0.6,0.1,0.7,0.4c0.1,0.2,0,0.3,0,0.4s0.2-0.1,0.1-0.4c0-0.2-0.1-0.3-0.2-0.5
		c-0.2-0.2-0.4-0.3-0.6-0.3c-0.6,0-1.1,0.4-1.4,0.9c-0.4,0.6-0.6,1.2-0.6,1.9c-0.1,1.4,0.4,2.8,1.4,3.2c0.4,0.2,0.8,0.1,1.1-0.1
		C214,146.1,214,145.9,214,145.9z"/>
	<path class="st5" d="M240.2,116.9c-1,3.3-3.7,5.9-7.1,6.6c-1.8,0.4-3.9,0.3-5.1,1.7s-0.8,3.7-1.9,5.2c-1.6,2.1-5.3,1.6-6.5,3.9
		c-0.5,1-0.4,2.2-1,3.2c-0.9,1.3-2.6,1.8-4,1.1c-1.4-0.7-2.4-1.9-2.7-3.4c-0.3-1.5-0.5-3-0.3-4.5c0-3,0.5-5.9,1.6-8.7
		c2.4-5.7,11.7-13,17.8-12"/>
	<path class="st5" d="M247.2,144.2c1.6-1.9,3.1-4,4.7-5.8s3.1-3.7,3.2-6c0-2-0.6-3.9-1.7-5.5c-2-3.2-4.2-6.2-6.6-9
		c-0.5-0.7-1.1-1.3-1.9-1.8c-0.6-0.4-1.3-0.6-2.1-0.7c-0.6-0.1-1.2,0.1-1.7,0.4c-0.5,0.4-0.7,1-0.5,1.6c0.3,0.5,0.8,0.8,1.3,1
		c2.9,1.5,4.7,4.5,5.6,7.6c0.8,3.1,0.6,6.1,0.5,9.4c-0.1,2.5-0.4,5.2-0.7,7.6"/>
	<path class="st5" d="M231,110.2c-7.4-0.9-14.7,2.2-19.2,8.1c-2.4,3.2-4.2,7.5-8,8.8c-3.1,1.1-6.6-0.1-9.9,0.4
		c-3,0.5-5.5,2.5-6.7,5.3c-0.9,2.2-1,4.8-2.7,6.5c-2.1,2.3-6,2-8.2,4.2c-1.8,1.8-1.9,4.8-1.1,7.3c0.2,1.1,0.8,2,1.7,2.6
		c0.9,0.4,1.8,0.4,2.7,0.2c3.1-0.7,6.1-1.9,8.9-3.5c6.4-3.4,12.5-7.3,18.6-11.1c2.9-1.7,5.6-3.7,8-6.1c3-3.3,4.8-7.4,6.9-11.3
		s4.8-7.8,8.8-9.6"/>
	<path class="st8" d="M162.3,176.2c-0.1,0-0.2,0-0.3-0.1c-0.3-0.1-0.5-0.2-0.8-0.4c-0.9-0.6-1.6-1.6-1.9-2.6
		c-0.5-1.7-0.3-3.6,0.6-5.1c1.3-1.9,3.2-3.4,5.4-4.1c2.7-0.8,5.4-1.4,8.1-1.8c1.5-0.3,3-0.7,4.4-1.3c3.1-1.2,5.3-4.2,5.5-7.6
		c0.2-1.8,0.5-3.6,0.9-5.3c1.1-3.7,3.8-6.8,7.4-8.4c1.8-0.8,3.7-1.2,5.7-1.2c1.9,0,3.8,0.3,5.6,0.5c1.8,0.2,3.5,0,5.2-0.6
		c0.8-0.3,1.5-0.7,2.1-1.3c0.6-0.6,1.1-1.3,1.5-2c0.8-1.4,1.3-3,2.2-4.4c0.9-1.3,2-2.5,3.3-3.3c2.4-1.4,5-2.4,7.8-3
		c2.2-0.5,4.4-1.2,6.5-2c1.6-0.6,3.1-1.5,4.4-2.6c0.8-0.7,1.5-1.5,2.1-2.5c0.4-0.6,0.5-1,0.5-1c-0.1,0.3-0.3,0.7-0.4,1
		c-0.5,1-1.2,1.8-2,2.6c-1.3,1.1-2.8,2-4.4,2.7c-2.1,0.8-4.3,1.5-6.6,2c-2.7,0.6-5.2,1.6-7.6,3c-1.3,0.8-2.4,1.9-3.2,3.2
		c-0.8,1.3-1.3,2.9-2.1,4.4c-0.4,0.8-0.9,1.5-1.6,2.1c-0.7,0.6-1.4,1.1-2.3,1.4c-1.7,0.6-3.6,0.8-5.4,0.6c-1.8-0.1-3.7-0.4-5.5-0.4
		c-1.9,0-3.7,0.4-5.4,1.2c-3.4,1.6-6,4.5-7.1,8.1c-0.4,1.7-0.7,3.5-0.9,5.3c-0.2,1.8-0.8,3.4-1.8,4.9c-1.1,1.3-2.4,2.3-3.9,3
		c-1.4,0.6-2.9,1.1-4.5,1.4c-2.7,0.4-5.4,0.9-8.1,1.7c-2.2,0.7-4,2.1-5.3,4c-0.9,1.5-1.2,3.2-0.7,4.9c0.3,1,0.9,2,1.8,2.6
		C161.7,175.8,162,176,162.3,176.2z"/>
	<path class="st8" d="M162.9,154.9c0.2-0.3,0.4-0.5,0.7-0.7c0.8-0.5,1.7-0.8,2.7-0.8c1.5,0,3,0.2,4.4,0.7c0.9,0.3,1.8,0.5,2.7,0.6
		c1,0.2,2,0.1,3-0.3c1-0.4,1.9-1.1,2.6-2.1c0.7-1,1.3-2.1,1.7-3.2c0.4-1.2,0.8-2.5,1.2-3.8c0.5-1.3,1-2.6,1.7-3.9
		c1.4-2.7,3.6-5,6.4-6.4c1.5-0.7,3.1-1,4.7-1c1.6-0.1,3.3,0.1,4.9-0.1c1.6-0.1,3.1-0.7,4.3-1.7c1.1-1.1,2-2.4,2.6-3.9
		c0.6-1.4,1.4-2.8,2.4-4c1-1.1,2.2-2.1,3.5-2.8c2.5-1.2,5.2-1.8,7.9-2c2.6-0.2,4.9-0.3,7.1-0.7c1.9-0.2,3.8-0.8,5.6-1.6
		c1.3-0.6,2.5-1.5,3.6-2.5c0.6-0.7,1.2-1.4,1.6-2.2c0.3-0.6,0.4-0.9,0.4-0.9c-0.1,0.3-0.2,0.6-0.3,0.9c-0.4,0.9-0.9,1.7-1.5,2.3
		c-1,1.1-2.2,2-3.6,2.6c-1.8,0.9-3.7,1.4-5.6,1.7c-2.2,0.3-4.6,0.4-7.1,0.7c-2.7,0.2-5.3,0.9-7.8,2c-1.3,0.6-2.4,1.5-3.4,2.7
		c-0.9,1.2-1.7,2.5-2.3,3.9c-0.6,1.5-1.6,2.8-2.7,4c-1.3,1.1-2.9,1.8-4.6,1.9c-1.7,0.1-3.3,0-4.9,0.1c-1.6,0-3.1,0.3-4.5,0.9
		c-2.6,1.4-4.8,3.5-6.2,6.2c-0.7,1.2-1.2,2.5-1.7,3.8c-0.5,1.3-0.8,2.6-1.2,3.8c-0.8,2.4-2.3,4.6-4.5,5.4c-1,0.4-2.1,0.5-3.1,0.3
		c-0.9-0.1-1.8-0.4-2.7-0.6c-1.4-0.5-2.8-0.8-4.3-0.8c-0.9,0-1.8,0.2-2.6,0.7C163.1,154.7,162.9,155,162.9,154.9z"/>
	<path class="st8" d="M193.4,176c0,0,0.2,0,0.4-0.2c0.4-0.2,0.6-0.6,0.8-1c0.2-0.7,0.1-1.4-0.3-2c-0.6-0.7-1.3-1.3-2.2-1.7
		c-1.1-0.4-2.1-1-3-1.8c-1-1-1.6-2.3-1.7-3.7c-0.1-1.5,0.2-3,0.9-4.4c0.8-1.4,2-2.6,3.3-3.4c2.7-1.5,5.6-2.5,8.7-2.9
		c2.4-0.4,4.8-1,7.2-1.8c1.6-0.6,3-1.5,4.2-2.6c0.9-0.8,1.2-1.4,1.2-1.4s-0.1,0.1-0.2,0.4c-0.3,0.4-0.5,0.7-0.9,1.1
		c-1.2,1.2-2.6,2.2-4.2,2.8c-2.3,0.9-4.7,1.5-7.2,1.9c-2.7,0.5-5.8,1.1-8.5,2.9c-1.3,0.8-2.4,1.9-3.2,3.3c-0.7,1.3-1,2.7-0.9,4.1
		c0.1,1.3,0.6,2.5,1.5,3.4c0.9,0.7,1.8,1.3,2.9,1.7c0.9,0.4,1.7,1,2.2,1.8c0.4,0.6,0.5,1.4,0.3,2.2c-0.2,0.4-0.5,0.8-0.9,1
		C193.7,175.9,193.5,176,193.4,176z"/>
	<path class="st12" d="M205.9,228.2c0,0-1.1-1.2-0.8-2.4s1.1-2,1.4-1.9s0.2-6.3,1.4-6.7c0.8-0.3,1.6-0.6,2.5-0.8
		c0,0,1.4-3.5,2.1-3.4s9.3,1.6,9.3,1.6s6.7,7.2,6.4,7.9s-0.8,1.4-1.8,1.1c-0.7-0.3-1.4-0.6-2.1-1.1l3.6,3.9c0,0-0.7,3-3.6,0.9
		l1.4,1.8c0,0-0.9,3.8-5.1,0.6l-4.3-2.6h-2.8l6.4,3.9c0,0,0.7,1.9-1.2,1.9s-6.8-2.6-6.8-2.6s-2.9,1.7-3.9,1.7s-1.2-1.1-1.2-1.1
		L205.9,228.2z"/>
	<path class="st13" d="M224.4,227.5c-0.5-0.4-1-0.8-1.5-1.3c-1.2-1-2.4-2-3.5-3.2c-0.6-0.6-1.3-1-2.2-1c-0.7,0-1.4,0-2.1,0.1
		c-0.7,0.1-1.4,0.1-2-0.1c0-0.1,0.8,0,1.9-0.2c0.7-0.2,1.4-0.2,2.2-0.2c0.4,0,0.9,0.1,1.3,0.3c0.4,0.2,0.9,0.5,1.2,0.8
		c1.2,1.4,2.5,2.4,3.4,3.3C223.6,226.4,224,226.9,224.4,227.5z"/>
	<path class="st13" d="M227.8,226.4c-0.6-0.5-1.2-1.1-1.8-1.7c-1.1-1.1-2.5-2.6-4.1-4.2c-0.8-0.8-1.6-1.6-2.4-2.2
		c-0.7-0.5-1.5-0.8-2.4-0.9c-1.5-0.1-2.4,0-2.4,0c0.2-0.1,0.4-0.1,0.6-0.2c0.6-0.1,1.2-0.1,1.8-0.1c0.9,0,1.8,0.3,2.6,0.8
		c0.8,0.7,1.7,1.4,2.4,2.2c1.6,1.6,3.1,3.2,4,4.3C226.9,225.1,227.4,225.7,227.8,226.4z"/>
	<path class="st5" d="M230.9,147.1c0.3-0.1,0.9,0.8,1.8,1.7s1.8,1.5,1.7,1.8s-1.3,0-2.4-1.1S230.6,147.2,230.9,147.1z"/>
	<path class="st2" d="M304.7,227.3l-8.9-45.7c-0.4-1.8-2.3-3-4.1-2.6c-1.8,0.4-2.9,2.1-2.6,3.9l0.4,2.1l-18.4,4.5
		c-4,1-7.2,3.8-8.6,7.7l-11.1,2.7c-3.8,0.9-6.2,4.8-5.2,8.7l1,4l-10.9,2.7c-3,0.7-4.9,3.8-4.1,6.8s3.8,4.9,6.8,4.1l10.9-2.7l0.8,3.1
		c0.9,3.8,4.8,6.2,8.7,5.2l11.3-2.8V229c3,2.6,7.1,3.5,10.9,2.6l16.3-4l0.2,1c0.4,1.8,2.3,3,4.1,2.6
		C303.9,230.8,305,229.1,304.7,227.3L304.7,227.3z"/>
	<path class="st5" d="M304.7,227.3c0.1,0.3,0.1,0.5,0.1,0.8c0,0.8-0.3,1.5-0.8,2.1c-0.8,1-2.1,1.4-3.4,1.2c-1.2-0.3-2.2-1.2-2.6-2.4
		c-0.1-0.4-0.2-0.9-0.3-1.4l0.1,0.1l-12,3l-3.6,0.9c-1.3,0.4-2.6,0.5-3.9,0.5c-2.9-0.1-5.7-1.1-7.9-3l0.3-0.2v0.1l0,0.2h-0.2
		c-3.8,0.9-7.8,2-12.1,2.9c-2.3,0.3-4.6-0.5-6.3-2.2c-0.8-0.9-1.4-1.9-1.8-3.1c-0.3-1.1-0.6-2.3-0.9-3.4l0.3,0.2l-9.2,2.3
		c-0.8,0.2-1.5,0.4-2.4,0.5c-3.2,0.4-6.1-1.9-6.5-5.1c-0.2-1.3,0.1-2.6,0.8-3.7c0.9-1.5,2.5-2.6,4.3-2.9l10.2-2.5l-0.2,0.3
		c-0.2-0.8-0.4-1.7-0.6-2.6c-0.3-0.9-0.4-1.8-0.6-2.7c-0.1-1.9,0.5-3.8,1.7-5.3c0.6-0.7,1.3-1.3,2.1-1.8c0.8-0.4,1.7-0.7,2.6-0.9
		l10.3-2.5l-0.2,0.1c1-2.6,2.8-4.8,5.2-6.3c1.2-0.7,2.4-1.2,3.7-1.5l3.8-0.9l14.4-3.5l-0.2,0.2c-0.1-0.5-0.2-1.1-0.3-1.6
		c-0.1-0.6-0.2-1.1-0.1-1.7c0.3-2,2.2-3.3,4.2-3c0.4,0.1,0.7,0.2,1,0.3c1,0.5,1.7,1.4,2,2.4l2.2,11.3c1.4,7.1,2.5,13.3,3.5,18.4
		s1.7,9.1,2.3,11.9c0.2,1.4,0.4,2.4,0.6,3.1c0.1,0.4,0.1,0.6,0.1,0.8C304.7,227.1,304.7,227.2,304.7,227.3c0,0,0-0.1-0.1-0.2
		c0-0.2-0.1-0.5-0.2-0.8l-0.6-3.1c-0.5-2.8-1.4-6.8-2.4-11.9s-2.2-11.3-3.6-18.4c-0.7-3.5-1.4-7.3-2.2-11.3c-0.2-1-0.9-1.8-1.8-2.2
		c-1.6-0.8-3.5-0.1-4.3,1.5c-0.1,0.3-0.2,0.6-0.3,0.9c-0.1,0.5,0,1,0.1,1.6c0.1,0.5,0.2,1.1,0.3,1.6v0.2l-0.2,0.1l-14.4,3.6
		c-2.5,0.7-5.2,1-7.4,2.4c-2.3,1.4-4.1,3.6-5,6.1l0,0.1h-0.1l-10.3,2.5c-0.9,0.2-1.7,0.4-2.5,0.9c-0.8,0.4-1.4,1-2,1.6
		c-1.1,1.4-1.7,3.1-1.6,4.9c0.1,0.9,0.3,1.8,0.5,2.6c0.2,0.9,0.4,1.7,0.6,2.6l0.1,0.2l-0.2,0.1l-10.2,2.5c-1.7,0.2-3.1,1.2-4,2.7
		c-1.5,2.6-0.6,5.9,2,7.3c1,0.6,2.2,0.8,3.3,0.7c0.8-0.1,1.6-0.4,2.3-0.5l9.1-2.2l0.2-0.1l0.1,0.2c0.3,1.1,0.6,2.3,0.9,3.4
		c0.3,1.1,0.9,2.1,1.7,2.9c1.5,1.6,3.7,2.4,5.9,2.1c4.2-0.9,8.3-2,12.1-2.9l-0.1,0.2V229l-0.1-0.6l0.4,0.4c2.1,1.8,4.8,2.9,7.6,2.9
		c1.3,0,2.6-0.2,3.8-0.5l3.6-0.9l12-2.9h0.1v0.1c0.1,0.5,0.2,0.9,0.3,1.3c0.1,0.4,0.3,0.8,0.6,1.1c0.5,0.6,1.2,1,1.9,1.2
		c1.8,0.4,3.6-0.8,4-2.6c0-0.2,0.1-0.3,0.1-0.5C304.7,227.8,304.7,227.5,304.7,227.3z"/>
	<path class="st5" d="M298.2,227.5c-0.1,0-2.3-9.5-4.8-21.2s-4.5-21.3-4.3-21.3s2.3,9.4,4.8,21.2S298.3,227.5,298.2,227.5z"/>
	<path class="st5" d="M270.5,229c-0.1,0-2-7.1-4.3-15.9s-3.9-16-3.8-16s2,7.1,4.3,15.9S270.7,229,270.5,229z"/>
	<path class="st5" d="M249.8,223.5c-0.7-1.7-1.3-3.5-1.6-5.4c-0.5-1.8-0.8-3.7-1.1-5.5c0.7,1.7,1.3,3.6,1.6,5.4
		C249.2,219.8,249.6,221.7,249.8,223.5z"/>
	<path class="st4" d="M259.7,199.8c0,0.1-1.1,0.2-2.8,0.6c-0.9,0.2-1.9,0.4-3,0.7c-1.2,0.3-2.4,0.8-3.5,1.4c-1.1,0.5-2,1.4-2.4,2.5
		c-0.2,1-0.2,2-0.1,3c0.2,1.7,0.5,2.8,0.4,2.8c-0.4-0.9-0.7-1.8-0.8-2.8c-0.2-1-0.2-2.1,0-3.2c0.2-0.6,0.5-1.2,1-1.6
		c0.5-0.5,1-0.9,1.6-1.2c1.1-0.6,2.3-1.1,3.6-1.4c1.1-0.3,2.2-0.5,3-0.6C257.8,199.8,258.7,199.7,259.7,199.8z"/>
	<path class="st4" d="M286,187.7c-0.3,0.1-0.6,0.2-1,0.3c-0.6,0.1-1.5,0.4-2.6,0.6l-8.7,1.8c-1.6,0.3-3.1,0.9-4.5,1.6
		c-1.2,0.6-2.2,1.4-3,2.5c-0.7,1-1.2,2.1-1.5,3.3c-0.1-0.3,0-0.7,0.1-1c0.2-0.9,0.6-1.7,1.2-2.5c0.8-1.1,1.9-2,3-2.6
		c1.5-0.8,3-1.3,4.6-1.7c3.4-0.7,6.5-1.3,8.7-1.7c1.1-0.2,2-0.4,2.6-0.4C285.4,187.7,285.7,187.7,286,187.7z"/>
	<path class="st4" d="M245.2,215.1c-0.6,0.4-1.2,0.7-1.9,0.8c-1.2,0.3-3,0.5-4.9,0.9c-0.9,0.2-1.7,0.5-2.5,0.9
		c-0.6,0.3-1.2,0.8-1.7,1.3c-0.4,0.5-0.8,1.1-1.1,1.7c0-0.7,0.3-1.4,0.8-1.9c0.5-0.6,1.1-1.1,1.8-1.5c0.8-0.5,1.7-0.8,2.6-1
		c1.9-0.4,3.7-0.5,4.9-0.7S245.2,215,245.2,215.1z"/>
	<path class="st4" d="M293.5,179.9c0,0.1-0.4,0.1-0.9,0.2c-0.7,0.2-1.3,0.6-1.8,1.1c-0.4,0.5-0.7,1.2-0.8,1.9
		c-0.1,0.5,0,0.9-0.1,0.9s-0.2-0.3-0.3-0.9c0-0.8,0.2-1.6,0.8-2.2c0.5-0.6,1.3-1,2.1-1.1C293.1,179.7,293.5,179.8,293.5,179.9z"/>
</g>
<g id="freepik--error-404--inject-19">
	<path class="st4" d="M296.2,101.2c0,3.6-2.6,5.8-6.9,5.8h-4.6v5.4h-1.8v-17h6.4C293.6,95.4,296.2,97.6,296.2,101.2z M294.4,101.2
		c0-2.7-1.8-4.3-5.2-4.3h-4.5v8.5h4.5C292.6,105.4,294.4,103.9,294.4,101.2z"/>
	<path class="st4" d="M309.2,104.4v7.9h-1.6v-2c-1,1.5-2.6,2.3-4.4,2.1c-2.9,0-4.7-1.5-4.7-3.7c0-2,1.3-3.6,4.9-3.6h4v-0.8
		c0-2.2-1.2-3.4-3.6-3.4c-1.5,0-3.1,0.5-4.2,1.5l-0.8-1.3c1.5-1.2,3.3-1.8,5.2-1.7C307.4,99.5,309.2,101.1,309.2,104.4z
		 M307.5,108.5v-2.1h-4c-2.5,0-3.3,1-3.3,2.3c0,1.5,1.2,2.4,3.2,2.4C305.2,111.2,306.9,110.2,307.5,108.5z"/>
	<path class="st4" d="M325.8,99.6v11.2c0,4.4-2.2,6.4-6.4,6.4c-2.2,0.1-4.3-0.6-5.9-2l0.9-1.3c1.4,1.2,3.2,1.8,5,1.7
		c3.2,0,4.7-1.5,4.7-4.6v-1.6c-1.1,1.6-3,2.6-5,2.5c-3.4,0-6.2-2.8-6.2-6.2s2.8-6.2,6.2-6.2l0,0c2-0.1,3.9,0.9,5,2.5v-2.4H325.8z
		 M324.1,105.6c0.1-2.7-2-4.9-4.7-5c-2.7-0.1-4.9,2-5,4.7c-0.1,2.7,2,4.9,4.7,5c0.1,0,0.1,0,0.2,0c2.5,0.2,4.7-1.7,4.8-4.2
		C324.1,105.9,324.1,105.8,324.1,105.6z"/>
	<path class="st4" d="M341.7,106.5H331c0.1,2.6,2.4,4.6,5,4.4c0,0,0,0,0,0c1.5,0.1,2.9-0.6,3.9-1.7l1,1.1c-2.6,2.7-6.8,2.8-9.5,0.2
		c-1.3-1.2-2-2.8-2.1-4.6c-0.2-3.4,2.4-6.3,5.8-6.5c0.1,0,0.3,0,0.4,0c3.6,0,6.2,2.6,6.2,6.5C341.7,106.1,341.7,106.3,341.7,106.5z
		 M331,105.2h9c-0.3-2.5-2.5-4.3-5-4C332.9,101.5,331.2,103.1,331,105.2z"/>
	<path class="st4" d="M363.3,105v7.4h-1.7v-7.2c0-2.7-1.4-4.1-3.8-4.1c-2.7,0-4.5,1.7-4.5,4.6v6.7h-1.7V99.6h1.6v2.3
		c1.1-1.6,2.9-2.6,4.9-2.4C361.2,99.5,363.3,101.3,363.3,105z"/>
	<path class="st4" d="M366.8,106c0-3.6,2.9-6.5,6.5-6.5c3.6,0,6.5,2.9,6.5,6.5c0,3.6-2.9,6.5-6.5,6.5c-3.5,0.1-6.4-2.6-6.5-6
		C366.8,106.3,366.8,106.2,366.8,106z M378,106c-0.1-2.6-2.4-4.6-5-4.5c-2.6,0.1-4.6,2.4-4.5,5c0.1,2.5,2.2,4.5,4.8,4.5
		c2.6,0,4.7-2,4.7-4.6C378,106.3,378,106.1,378,106z"/>
	<path class="st4" d="M390,111.6c-0.8,0.6-1.7,0.9-2.7,0.9c-1.9,0.2-3.5-1.1-3.7-3c0-0.2,0-0.5,0-0.7v-7.7h-2.3v-1.5h2.3v-2.8h1.7
		v2.8h3.9v1.5h-3.9v7.6c-0.2,1.1,0.5,2.1,1.6,2.3c0.2,0,0.4,0,0.6,0c0.7,0,1.4-0.2,1.9-0.7L390,111.6z"/>
	<path class="st4" d="M401.4,98.1v1.5h3.9v1.5h-3.9v11.3h-1.7V101h-2.3v-1.5h2.3V98c-0.2-1.9,1.3-3.6,3.2-3.8c0.2,0,0.4,0,0.6,0
		c0.9,0,1.8,0.2,2.5,0.8l-0.6,1.3c-0.5-0.4-1.2-0.6-1.9-0.6C402.2,95.7,401.4,96.5,401.4,98.1z"/>
	<path class="st4" d="M406.2,106c0-3.6,2.9-6.5,6.5-6.5c3.6,0,6.5,2.9,6.5,6.5c0,3.6-2.9,6.5-6.5,6.5c-3.5,0.1-6.4-2.6-6.5-6.1
		C406.2,106.3,406.2,106.1,406.2,106z M417.4,106c-0.1-2.6-2.4-4.6-5-4.5c-2.6,0.1-4.6,2.4-4.5,5c0.1,2.5,2.2,4.5,4.8,4.5
		c2.6,0,4.7-2,4.7-4.6C417.4,106.3,417.4,106.1,417.4,106z"/>
	<path class="st4" d="M434.1,99.6v12.8h-1.6V110c-1,1.6-2.7,2.5-4.6,2.4c-3.2,0-5.4-1.8-5.4-5.5v-7.4h1.7v7.2c0,2.7,1.4,4.1,3.8,4.1
		c2.7,0,4.3-1.7,4.3-4.6v-6.7H434.1z"/>
	<path class="st4" d="M450.7,105v7.4H449v-7.2c0-2.7-1.4-4.1-3.8-4.1c-2.7,0-4.5,1.7-4.5,4.6v6.7H439V99.6h1.6v2.3
		c1.1-1.6,2.9-2.6,4.9-2.4C448.6,99.5,450.7,101.3,450.7,105z"/>
	<path class="st4" d="M467.1,94.4v18h-1.6v-2.5c-1,1.7-2.9,2.7-4.9,2.7c-3.6,0-6.5-2.9-6.5-6.5s2.9-6.5,6.5-6.5
		c1.9-0.1,3.8,0.9,4.9,2.5v-7.6H467.1z M465.4,106c-0.1-2.6-2.4-4.6-5-4.5c-2.6,0.1-4.6,2.4-4.5,5c0.1,2.5,2.2,4.5,4.8,4.5
		c2.6,0,4.7-2,4.7-4.6C465.4,106.3,465.4,106.1,465.4,106z"/>
	<path class="st4" d="M347,72.6h-8.9v11.5h-12.3V72.6h-29.4v-8.5l25.7-34.6h13.2l-23.8,32.8h14.6V52.2h11.9v10.2h8.9V72.6z"/>
	<path class="st4" d="M350.7,56.8c0-18,10-28.2,23.4-28.2s23.4,10.2,23.4,28.2S387.6,85,374.1,85S350.7,74.8,350.7,56.8z
		 M384.7,56.8c0-12.4-4.4-17.5-10.7-17.5s-10.6,5.1-10.6,17.5s4.4,17.5,10.6,17.5S384.8,69.2,384.7,56.8L384.7,56.8z"/>
	<path class="st4" d="M453.6,72.6h-8.9v11.5h-12.3V72.6H403v-8.5l25.7-34.6H442l-23.9,32.8h14.6V52.2h11.9v10.2h8.9L453.6,72.6z"/>
</g>
<g id="freepik--Lines--inject-19">
	<path class="st4" d="M439.2,173.1c-0.1,0-0.1,0.1-0.2,0.1l-0.6,0.3l-2.2,1.1l-8.2,4.2l-27.5,13.9l-0.2,0.1l-0.1-0.2
		c-0.8-1.1-1.6-2.2-2.4-3.4l-3.4-4.8l0.3,0.1l-25.6,14.8l-7.6,4.4l-2.1,1.1c-0.2,0.1-0.4,0.2-0.5,0.3s-0.2,0.1-0.2,0.1s0,0,0.2-0.1
		l0.5-0.3l2-1.2l7.6-4.5l25.6-14.9l0.2-0.1l0.1,0.2c1.1,1.5,2.2,3.2,3.4,4.8c0.8,1.2,1.6,2.3,2.4,3.4l-0.3-0.1l27.6-13.7l8.3-4.1
		l2.2-1.1l0.6-0.3L439.2,173.1z"/>
	<path class="st4" d="M431.9,209.3c-0.2,0.1-0.4,0.1-0.5,0.1l-1.6,0.4l-5.9,1.2l-19.6,3.8l-0.2,0.1v-0.2l-0.4-2.4
		c-0.1-0.6-0.2-1.1-0.3-1.6l0.3,0.2c-8,1.4-15,3-20,4.4c-2.5,0.7-4.5,1.2-6,1.6l-1.6,0.4c-0.2,0.1-0.4,0.1-0.6,0.1
		c0.2-0.1,0.4-0.2,0.5-0.2l1.6-0.5c1.4-0.4,3.4-1.1,5.9-1.8c6.6-1.8,13.3-3.4,20-4.5h0.2v0.2c0.1,0.5,0.2,1.1,0.3,1.6
		c0.1,0.8,0.3,1.7,0.4,2.4l-0.3-0.2l19.6-3.6l5.9-1l1.6-0.3C431.5,209.4,431.7,209.3,431.9,209.3z"/>
	<path class="st4" d="M364.9,174.6c0.1,0.1-2.4,5.6-5.7,12.3s-6,12.1-6.1,12.1s2.4-5.6,5.7-12.3S364.7,174.5,364.9,174.6z"/>
	<path class="st4" d="M394.7,201.5c0,0.1-6.3,2.1-14.1,4.4s-14.2,4-14.3,3.9s6.3-2.1,14.1-4.4S394.7,201.4,394.7,201.5z"/>
	<path class="st4" d="M345.8,157.3c0.2,0.3,0.3,0.7,0.4,1c0.3,0.7,0.6,1.7,1,2.9c0.9,2.6,2,6.1,3.5,10.3l0.1,0.3h-0.3l-7.8-0.2
		l0.2-0.3c0.2,1,0.4,2,0.6,3.1c1.3,7,2.4,13.4,3.3,18.1c0.4,2.3,0.7,4.1,0.9,5.5c0.1,0.6,0.2,1.1,0.2,1.5c0,0.2,0.1,0.4,0,0.5
		c-0.1-0.2-0.1-0.3-0.1-0.5c-0.1-0.4-0.2-0.9-0.3-1.5l-1.1-5.5c-0.9-4.7-2.1-11.1-3.4-18.1c-0.2-1.1-0.4-2.1-0.6-3.1l-0.1-0.3h0.3
		l7.8,0.2l-0.2,0.3l-3.3-10.4c-0.4-1.2-0.7-2.2-0.9-3C345.9,158,345.8,157.7,345.8,157.3z"/>
	<path class="st4" d="M311.2,232.7c-0.1-0.1,5-2.6,11.3-5.6s11.5-5.3,11.5-5.1s-5,2.6-11.3,5.6S311.3,232.8,311.2,232.7z"/>
	<path class="st4" d="M334.8,239.9c1.3-2,2.8-3.8,4.3-5.6c1.5-1.9,3-3.6,4.7-5.3c-1.3,2-2.8,3.8-4.3,5.6
		C338.1,236.5,336.5,238.3,334.8,239.9z"/>
	<path class="st4" d="M347.5,274.3c-0.1,0,0.7-9.8,1.9-21.8s2.3-21.7,2.4-21.7s-0.7,9.8-1.9,21.8
		C348.8,264.6,347.7,274.3,347.5,274.3z"/>
	<path class="st4" d="M330.2,188.1c0.9,1.3,1.7,2.6,2.3,4.1c0.8,1.4,1.4,2.8,1.9,4.3c-0.9-1.3-1.7-2.7-2.3-4.1
		C331.3,191.1,330.7,189.6,330.2,188.1z"/>
</g>
</svg>
